<svg width="341" height="78" viewBox="0 0 341 78" fill="none" xmlns="http://www.w3.org/2000/svg">
<g filter="url(#filter0_d_23_730)">
<path d="M7 23C7 11.9543 15.9543 3 27 3H314C325.046 3 334 11.9543 334 23V47C334 58.0457 325.046 67 314 67H27C15.9543 67 7 58.0457 7 47V23Z" fill="#5B8E69"/>
<path d="M27 1.5C15.1259 1.5 5.5 11.1259 5.5 23V47C5.5 58.8741 15.1259 68.5 27 68.5H314C325.874 68.5 335.5 58.8741 335.5 47V23C335.5 11.1259 325.874 1.5 314 1.5H27Z" stroke="#73B385" stroke-width="3"/>
</g>
<path d="M85.5086 44.252C84.6873 44.252 84.0526 44.028 83.6046 43.58C83.1566 43.1133 82.9326 42.4693 82.9326 41.648V26.612C82.9326 25.7533 83.1566 25.1093 83.6046 24.68C84.0526 24.232 84.6873 24.008 85.5086 24.008C86.3486 24.008 86.9833 24.232 87.4126 24.68C87.8606 25.1093 88.0846 25.7533 88.0846 26.612V32.716H88.1406L94.9446 25.212C95.2993 24.8387 95.6726 24.5493 96.0646 24.344C96.4753 24.12 96.9326 24.008 97.4366 24.008C98.2206 24.008 98.7806 24.2133 99.1166 24.624C99.4713 25.016 99.63 25.4827 99.5926 26.024C99.574 26.5467 99.3593 27.032 98.9486 27.48L92.1726 34.676V32.576L99.2846 40.612C99.77 41.1533 100.013 41.7133 100.013 42.292C100.013 42.852 99.8166 43.3187 99.4246 43.692C99.0513 44.0653 98.4913 44.252 97.7446 44.252C97.11 44.252 96.5966 44.1307 96.2046 43.888C95.8313 43.6267 95.4206 43.244 94.9726 42.74L88.1406 35.096H88.0846V41.648C88.0846 42.4693 87.87 43.1133 87.4406 43.58C87.0113 44.028 86.3673 44.252 85.5086 44.252ZM111.648 44.308C109.651 44.308 107.896 43.888 106.384 43.048C104.872 42.1893 103.696 40.9947 102.856 39.464C102.035 37.9333 101.624 36.1507 101.624 34.116C101.624 32.5853 101.857 31.1947 102.324 29.944C102.809 28.6933 103.491 27.62 104.368 26.724C105.264 25.828 106.328 25.1467 107.56 24.68C108.792 24.1947 110.155 23.952 111.648 23.952C113.645 23.952 115.391 24.372 116.884 25.212C118.396 26.052 119.572 27.2373 120.412 28.768C121.252 30.28 121.672 32.0627 121.672 34.116C121.672 35.6467 121.429 37.0373 120.944 38.288C120.477 39.5387 119.796 40.6213 118.9 41.536C118.023 42.432 116.968 43.1227 115.736 43.608C114.504 44.0747 113.141 44.308 111.648 44.308ZM111.648 39.996C112.637 39.996 113.477 39.7627 114.168 39.296C114.859 38.8293 115.391 38.1573 115.764 37.28C116.137 36.4027 116.324 35.348 116.324 34.116C116.324 32.268 115.913 30.8307 115.092 29.804C114.271 28.7773 113.123 28.264 111.648 28.264C110.677 28.264 109.837 28.4973 109.128 28.964C108.437 29.412 107.905 30.0747 107.532 30.952C107.159 31.8107 106.972 32.8653 106.972 34.116C106.972 35.964 107.383 37.4107 108.204 38.456C109.025 39.4827 110.173 39.996 111.648 39.996ZM127.122 44.252C126.338 44.252 125.741 44.0467 125.33 43.636C124.919 43.2253 124.714 42.6187 124.714 41.816V26.556C124.714 25.7347 124.919 25.1093 125.33 24.68C125.741 24.232 126.282 24.008 126.954 24.008C127.551 24.008 128.018 24.12 128.354 24.344C128.69 24.568 129.063 24.9413 129.474 25.464L138.35 36.552H137.566V26.416C137.566 25.632 137.762 25.0347 138.154 24.624C138.565 24.2133 139.162 24.008 139.946 24.008C140.73 24.008 141.318 24.2133 141.71 24.624C142.121 25.0347 142.326 25.632 142.326 26.416V41.928C142.326 42.6373 142.139 43.2067 141.766 43.636C141.393 44.0467 140.889 44.252 140.254 44.252C139.619 44.252 139.115 44.14 138.742 43.916C138.387 43.6733 138.005 43.3 137.594 42.796L128.718 31.68H129.502V41.816C129.502 42.6187 129.297 43.2253 128.886 43.636C128.494 44.0467 127.906 44.252 127.122 44.252ZM153.269 44.308C152.522 44.308 151.738 44.252 150.917 44.14C150.114 44.0467 149.349 43.8973 148.621 43.692C147.893 43.4867 147.239 43.244 146.661 42.964C146.157 42.7213 145.802 42.404 145.597 42.012C145.391 41.6013 145.317 41.172 145.373 40.724C145.429 40.276 145.587 39.884 145.849 39.548C146.11 39.1933 146.455 38.96 146.885 38.848C147.314 38.7173 147.799 38.7733 148.341 39.016C149.05 39.352 149.853 39.6133 150.749 39.8C151.645 39.9867 152.485 40.08 153.269 40.08C154.501 40.08 155.359 39.9213 155.845 39.604C156.349 39.268 156.601 38.8573 156.601 38.372C156.601 37.9427 156.423 37.5973 156.069 37.336C155.733 37.0747 155.126 36.8507 154.249 36.664L150.973 35.964C149.181 35.5907 147.846 34.9373 146.969 34.004C146.091 33.0707 145.653 31.8667 145.653 30.392C145.653 29.4213 145.849 28.544 146.241 27.76C146.651 26.9573 147.221 26.276 147.949 25.716C148.695 25.156 149.573 24.7267 150.581 24.428C151.607 24.1107 152.746 23.952 153.997 23.952C154.967 23.952 155.947 24.064 156.937 24.288C157.945 24.4933 158.813 24.8107 159.541 25.24C159.97 25.464 160.278 25.772 160.465 26.164C160.651 26.556 160.726 26.9667 160.689 27.396C160.651 27.8067 160.502 28.1707 160.241 28.488C159.998 28.8053 159.662 29.02 159.233 29.132C158.822 29.2253 158.327 29.1507 157.749 28.908C157.207 28.6653 156.591 28.488 155.901 28.376C155.229 28.2453 154.575 28.18 153.941 28.18C153.25 28.18 152.662 28.264 152.177 28.432C151.691 28.5813 151.318 28.8053 151.057 29.104C150.814 29.4027 150.693 29.748 150.693 30.14C150.693 30.532 150.851 30.868 151.169 31.148C151.505 31.4093 152.111 31.6333 152.989 31.82L156.237 32.52C158.047 32.912 159.401 33.556 160.297 34.452C161.193 35.348 161.641 36.5147 161.641 37.952C161.641 38.9227 161.445 39.8 161.053 40.584C160.661 41.368 160.101 42.04 159.373 42.6C158.645 43.1413 157.767 43.5613 156.741 43.86C155.714 44.1587 154.557 44.308 153.269 44.308ZM172.907 44.308C171.47 44.308 170.2 44.1307 169.099 43.776C167.998 43.4027 167.064 42.852 166.299 42.124C165.552 41.396 164.983 40.4907 164.591 39.408C164.218 38.3067 164.031 37.0373 164.031 35.6V26.612C164.031 25.7533 164.255 25.1093 164.703 24.68C165.151 24.232 165.786 24.008 166.607 24.008C167.447 24.008 168.082 24.232 168.511 24.68C168.959 25.1093 169.183 25.7533 169.183 26.612V35.656C169.183 37.0933 169.5 38.176 170.135 38.904C170.77 39.632 171.694 39.996 172.907 39.996C174.102 39.996 175.016 39.632 175.651 38.904C176.286 38.176 176.603 37.0933 176.603 35.656V26.612C176.603 25.7533 176.818 25.1093 177.247 24.68C177.695 24.232 178.33 24.008 179.151 24.008C179.972 24.008 180.598 24.232 181.027 24.68C181.456 25.1093 181.671 25.7533 181.671 26.612V35.6C181.671 37.5227 181.335 39.1373 180.663 40.444C180.01 41.732 179.03 42.7027 177.723 43.356C176.416 43.9907 174.811 44.308 172.907 44.308ZM187.72 44C186.899 44 186.255 43.776 185.788 43.328C185.34 42.8613 185.116 42.2173 185.116 41.396V26.836C185.116 25.996 185.34 25.352 185.788 24.904C186.236 24.456 186.871 24.232 187.692 24.232C188.532 24.232 189.167 24.456 189.596 24.904C190.044 25.352 190.268 25.996 190.268 26.836V39.716H197.1C197.81 39.716 198.351 39.9027 198.724 40.276C199.116 40.6307 199.312 41.1533 199.312 41.844C199.312 42.5347 199.116 43.0667 198.724 43.44C198.351 43.8133 197.81 44 197.1 44H187.72ZM205 44.252C204.179 44.252 203.544 44.028 203.096 43.58C202.648 43.1133 202.424 42.4693 202.424 41.648V28.46H198.028C197.338 28.46 196.806 28.2827 196.432 27.928C196.078 27.5547 195.9 27.032 195.9 26.36C195.9 25.6693 196.078 25.1467 196.432 24.792C196.806 24.4373 197.338 24.26 198.028 24.26H211.972C212.663 24.26 213.186 24.4373 213.54 24.792C213.914 25.1467 214.1 25.6693 214.1 26.36C214.1 27.032 213.914 27.5547 213.54 27.928C213.186 28.2827 212.663 28.46 211.972 28.46H207.576V41.648C207.576 42.4693 207.362 43.1133 206.932 43.58C206.503 44.028 205.859 44.252 205 44.252ZM214.505 44.252C213.926 44.252 213.441 44.1213 213.049 43.86C212.657 43.58 212.414 43.2067 212.321 42.74C212.228 42.2547 212.312 41.7133 212.573 41.116L219.545 26.108C219.881 25.38 220.292 24.848 220.777 24.512C221.281 24.176 221.85 24.008 222.485 24.008C223.12 24.008 223.67 24.176 224.137 24.512C224.622 24.848 225.042 25.38 225.397 26.108L232.369 41.116C232.668 41.7133 232.77 42.2547 232.677 42.74C232.602 43.2253 232.369 43.5987 231.977 43.86C231.604 44.1213 231.137 44.252 230.577 44.252C229.83 44.252 229.252 44.084 228.841 43.748C228.449 43.412 228.094 42.8707 227.777 42.124L226.265 38.568L228.225 39.996H216.689L218.677 38.568L217.165 42.124C216.829 42.8707 216.484 43.412 216.129 43.748C215.774 44.084 215.233 44.252 214.505 44.252ZM222.429 29.636L219.181 37.392L218.397 36.048H226.545L225.761 37.392L222.485 29.636H222.429ZM242.026 44.308C241.28 44.308 240.496 44.252 239.674 44.14C238.872 44.0467 238.106 43.8973 237.378 43.692C236.65 43.4867 235.997 43.244 235.418 42.964C234.914 42.7213 234.56 42.404 234.354 42.012C234.149 41.6013 234.074 41.172 234.13 40.724C234.186 40.276 234.345 39.884 234.606 39.548C234.868 39.1933 235.213 38.96 235.642 38.848C236.072 38.7173 236.557 38.7733 237.098 39.016C237.808 39.352 238.61 39.6133 239.506 39.8C240.402 39.9867 241.242 40.08 242.026 40.08C243.258 40.08 244.117 39.9213 244.602 39.604C245.106 39.268 245.358 38.8573 245.358 38.372C245.358 37.9427 245.181 37.5973 244.826 37.336C244.49 37.0747 243.884 36.8507 243.006 36.664L239.73 35.964C237.938 35.5907 236.604 34.9373 235.726 34.004C234.849 33.0707 234.41 31.8667 234.41 30.392C234.41 29.4213 234.606 28.544 234.998 27.76C235.409 26.9573 235.978 26.276 236.706 25.716C237.453 25.156 238.33 24.7267 239.338 24.428C240.365 24.1107 241.504 23.952 242.754 23.952C243.725 23.952 244.705 24.064 245.694 24.288C246.702 24.4933 247.57 24.8107 248.298 25.24C248.728 25.464 249.036 25.772 249.222 26.164C249.409 26.556 249.484 26.9667 249.446 27.396C249.409 27.8067 249.26 28.1707 248.998 28.488C248.756 28.8053 248.42 29.02 247.99 29.132C247.58 29.2253 247.085 29.1507 246.506 28.908C245.965 28.6653 245.349 28.488 244.658 28.376C243.986 28.2453 243.333 28.18 242.698 28.18C242.008 28.18 241.42 28.264 240.934 28.432C240.449 28.5813 240.076 28.8053 239.814 29.104C239.572 29.4027 239.45 29.748 239.45 30.14C239.45 30.532 239.609 30.868 239.926 31.148C240.262 31.4093 240.869 31.6333 241.746 31.82L244.994 32.52C246.805 32.912 248.158 33.556 249.054 34.452C249.95 35.348 250.398 36.5147 250.398 37.952C250.398 38.9227 250.202 39.8 249.81 40.584C249.418 41.368 248.858 42.04 248.13 42.6C247.402 43.1413 246.525 43.5613 245.498 43.86C244.472 44.1587 243.314 44.308 242.026 44.308ZM255.505 44.252C254.683 44.252 254.049 44.028 253.601 43.58C253.153 43.1133 252.929 42.46 252.929 41.62V26.64C252.929 25.7813 253.153 25.128 253.601 24.68C254.049 24.232 254.683 24.008 255.505 24.008C256.345 24.008 256.979 24.232 257.409 24.68C257.857 25.128 258.081 25.7813 258.081 26.64V41.62C258.081 42.46 257.866 43.1133 257.437 43.58C257.007 44.028 256.363 44.252 255.505 44.252Z" fill="white"/>
<defs>
<filter id="filter0_d_23_730" x="0" y="0" width="341" height="78" filterUnits="userSpaceOnUse" color-interpolation-filters="sRGB">
<feFlood flood-opacity="0" result="BackgroundImageFix"/>
<feColorMatrix in="SourceAlpha" type="matrix" values="0 0 0 0 0 0 0 0 0 0 0 0 0 0 0 0 0 0 127 0" result="hardAlpha"/>
<feOffset dy="4"/>
<feGaussianBlur stdDeviation="2"/>
<feComposite in2="hardAlpha" operator="out"/>
<feColorMatrix type="matrix" values="0 0 0 0 0 0 0 0 0 0 0 0 0 0 0 0 0 0 0.25 0"/>
<feBlend mode="normal" in2="BackgroundImageFix" result="effect1_dropShadow_23_730"/>
<feBlend mode="normal" in="SourceGraphic" in2="effect1_dropShadow_23_730" result="shape"/>
</filter>
</defs>
</svg>
