<svg width="165" height="155" viewBox="0 0 165 155" fill="none" xmlns="http://www.w3.org/2000/svg">
<path d="M28.4904 29.0758C35.3901 29.0758 40.9835 23.4825 40.9835 16.5828C40.9835 9.68303 35.3901 4.08969 28.4904 4.08969C21.5907 4.08969 15.9973 9.68303 15.9973 16.5828C15.9973 23.4825 21.5907 29.0758 28.4904 29.0758Z" fill="#EBEBEB"/>
<path d="M37.4904 25.2898C42.1461 20.6341 42.1461 13.0856 37.4904 8.42992C32.8347 3.77419 25.2862 3.77419 20.6305 8.42992C15.9748 13.0856 15.9748 20.6341 20.6305 25.2898C25.2862 29.9455 32.8347 29.9455 37.4904 25.2898Z" fill="#DBDBDB"/>
<path d="M33.259 27.21C38.9744 24.8916 41.7281 18.3789 39.4097 12.6635C37.0912 6.94818 30.5786 4.19444 24.8632 6.51288C19.1479 8.83132 16.3941 15.344 18.7126 21.0593C21.031 26.7747 27.5437 29.5284 33.259 27.21Z" fill="white"/>
<path d="M29.2064 6.50452H28.9208V8.19565H29.2064V6.50452Z" fill="#EBEBEB"/>
<path d="M24.0046 7.82285L23.7572 7.96564L24.6025 9.43035L24.8499 9.28756L24.0046 7.82285Z" fill="#EBEBEB"/>
<path d="M20.1601 11.555L20.0173 11.8025L21.482 12.6478L21.6248 12.4004L20.1601 11.555Z" fill="#EBEBEB"/>
<path d="M20.3965 16.7199H18.7053V17.0056H20.3965V16.7199Z" fill="#EBEBEB"/>
<path d="M21.6201 21.2396L20.1488 22.0852L20.2916 22.3337L21.7629 21.4882L21.6201 21.2396Z" fill="#EBEBEB"/>
<path d="M24.6048 24.2968L23.76 25.7618L24.0075 25.9045L24.8523 24.4395L24.6048 24.2968Z" fill="#EBEBEB"/>
<path d="M29.2064 25.526H28.9208V27.2171H29.2064V25.526Z" fill="#EBEBEB"/>
<path d="M33.5181 24.303L33.2708 24.4459L34.1163 25.9104L34.3637 25.7676L33.5181 24.303Z" fill="#EBEBEB"/>
<path d="M36.6389 21.0713L36.4961 21.3187L37.9607 22.1643L38.1035 21.9169L36.6389 21.0713Z" fill="#EBEBEB"/>
<path d="M39.4217 16.7199H37.7268V17.0056H39.4217V16.7199Z" fill="#EBEBEB"/>
<path d="M38.1623 11.6893L36.691 12.5349L36.8339 12.7834L38.3052 11.9379L38.1623 11.6893Z" fill="#EBEBEB"/>
<path d="M34.1181 7.82472L33.2733 9.28973L33.5208 9.43244L34.3656 7.96743L34.1181 7.82472Z" fill="#EBEBEB"/>
<path d="M30.7187 13.28L25.8197 22.9114L26.0743 23.0409L30.9733 13.4095L30.7187 13.28Z" fill="#EBEBEB"/>
<path d="M28.4916 13.0222L28.1182 13.097L30.2071 23.5319L30.5805 23.4571L28.4916 13.0222Z" fill="#DBDBDB"/>
<path d="M163.122 12.9377H108.987V115.366H163.122V12.9377Z" fill="#EBEBEB"/>
<path d="M158.487 18.0339H113.622V83.0665H158.487V18.0339Z" fill="white"/>
<path d="M116.487 125.672H112.91V115.366H119.275L116.487 125.672Z" fill="#EBEBEB"/>
<path d="M119.275 115.366L118.246 119.163H112.906V115.366H119.275Z" fill="#C7C7C7"/>
<path d="M155.619 125.672H159.195V115.366H152.831L155.619 125.672Z" fill="#EBEBEB"/>
<path d="M152.831 115.366L153.859 119.163H159.199V115.366H152.831Z" fill="#C7C7C7"/>
<path d="M158.487 87.7095C155.124 87.7781 151.764 87.8162 148.405 87.8428C145.045 87.8695 141.682 87.8733 138.323 87.8923L138.506 87.7095C138.506 89.3968 138.506 91.088 138.506 92.7791V97.8487C138.468 101.231 138.433 104.609 138.349 107.992C138.262 104.609 138.228 101.231 138.189 97.8487L138.17 92.7791C138.17 91.088 138.17 89.3968 138.17 87.7095V87.5229H138.353C141.713 87.5419 145.072 87.5229 148.435 87.5724C151.799 87.6219 155.124 87.6372 158.487 87.7095Z" fill="#C7C7C7"/>
<path d="M138.323 110.898C141.682 110.825 145.042 110.787 148.405 110.761C151.768 110.734 155.124 110.73 158.487 110.711L158.297 110.898C158.297 109.237 158.297 107.58 158.297 105.923L158.319 100.949C158.354 97.6316 158.388 94.3179 158.476 91.0004C158.559 94.3179 158.594 97.6316 158.628 100.949L158.651 105.923C158.651 107.58 158.67 109.237 158.651 110.898V111.081H158.468C155.105 111.062 151.745 111.081 148.386 111.035C145.026 110.989 141.682 110.955 138.323 110.898Z" fill="#C7C7C7"/>
<path d="M140.578 101.867H142.105V96.0167H140.578V101.867Z" fill="#C7C7C7"/>
<path d="M113.622 87.7095C116.982 87.6372 120.341 87.5991 123.704 87.5724C127.068 87.5457 130.423 87.5419 133.786 87.5229H133.965V87.7095C133.965 89.3968 133.965 91.088 133.965 92.7791L133.943 97.8487C133.908 101.231 133.874 104.609 133.786 107.992C133.699 104.609 133.665 101.231 133.626 97.8487L133.607 92.7791C133.607 91.088 133.607 89.3968 133.607 87.7095L133.79 87.8923C130.427 87.8733 127.068 87.8923 123.708 87.8428C120.349 87.7933 116.982 87.7781 113.622 87.7095Z" fill="#C7C7C7"/>
<path d="M133.786 110.898C130.423 110.966 127.064 111.005 123.704 111.035C120.345 111.065 116.982 111.062 113.622 111.081H113.439V110.898C113.439 109.237 113.439 107.58 113.439 105.923L113.462 100.949C113.497 97.6316 113.531 94.3179 113.618 91.0004C113.702 94.3179 113.737 97.6316 113.771 100.949L113.794 105.923C113.794 107.58 113.813 109.237 113.794 110.898L113.611 110.711C116.97 110.711 120.33 110.711 123.693 110.761C127.056 110.81 130.423 110.814 133.786 110.898Z" fill="#C7C7C7"/>
<path d="M131.528 96.0128H130V101.863H131.528V96.0128Z" fill="#C7C7C7"/>
<path d="M158.487 38.8037H113.622V39.5007H158.487V38.8037Z" fill="#C7C7C7"/>
<path d="M158.487 52.9193H113.622V53.6163H158.487V52.9193Z" fill="#C7C7C7"/>
<path d="M158.487 67.035H113.622V67.732H158.487V67.035Z" fill="#C7C7C7"/>
<path d="M136.571 18.0339H135.539V83.0665H136.571V18.0339Z" fill="#EBEBEB"/>
<path d="M53.9069 86.5592L54.8172 92.0249L60.9914 125.368H61.9855L57.4986 92.0249L56.8321 86.5592H53.9069Z" fill="#EBEBEB"/>
<path d="M56.8321 86.5592H53.9069L54.8172 92.0249H57.4986L56.8321 86.5592Z" fill="#C7C7C7"/>
<path d="M34.5198 125.368H35.5139L41.6881 92.0249L42.5984 86.5592H39.6732L39.0066 92.0249L34.5198 125.368Z" fill="#EBEBEB"/>
<path d="M39.6731 86.5592L39.0066 92.0249H41.688L42.5984 86.5592H39.6731Z" fill="#C7C7C7"/>
<path d="M16.0011 125.368H16.9952L23.1694 92.0249L24.0797 86.5592H21.1545L20.4879 92.0249L16.0011 125.368Z" fill="#EBEBEB"/>
<path d="M20.4879 92.0249H23.1694L24.0797 86.5592H21.1545L20.4879 92.0249Z" fill="#C7C7C7"/>
<path d="M17.578 89.1302H62.8197V85.4584L45.8817 84.3615L40.1912 51.5329H19.3034L17.578 89.1302Z" fill="#EBEBEB"/>
<path d="M17.578 89.1302H20.0461L21.6535 51.5329H19.3034L17.578 89.1302Z" fill="#C7C7C7"/>
<path d="M82.5001 154.266C110.97 154.266 134.049 150.396 134.049 145.623C134.049 140.85 110.97 136.981 82.5001 136.981C54.0303 136.981 30.9509 140.85 30.9509 145.623C30.9509 150.396 54.0303 154.266 82.5001 154.266Z" fill="#EBEBEB"/>
<path d="M21.1278 149.268C31.6247 149.268 40.134 147.473 40.134 145.258C40.134 143.043 31.6247 141.247 21.1278 141.247C10.631 141.247 2.12158 143.043 2.12158 145.258C2.12158 147.473 10.631 149.268 21.1278 149.268Z" fill="#EBEBEB"/>
<path d="M139.785 149.268C150.282 149.268 158.792 147.473 158.792 145.258C158.792 143.043 150.282 141.247 139.785 141.247C129.289 141.247 120.779 143.043 120.779 145.258C120.779 147.473 129.289 149.268 139.785 149.268Z" fill="#EBEBEB"/>
<path d="M0 125.672L20.625 125.581L41.25 125.547L82.5 125.486L123.75 125.547L144.375 125.581L165 125.672L144.375 125.768L123.75 125.802L82.5 125.863L41.25 125.802L20.625 125.768L0 125.672Z" fill="#263238"/>
<path d="M91.5042 71.8876H62.2598V125.615H91.5042V71.8876Z" fill="#455A64"/>
<path d="M91.5042 71.8876H62.2598V75.3918H91.5042V71.8876Z" fill="#263238"/>
<path d="M104.062 69.0651H3.15759V71.8913H104.062V69.0651Z" fill="#455A64"/>
<path d="M9.39661 71.8914L9.30139 75.3917L8.07113 125.619H5.83533V71.8914H9.39661Z" fill="#455A64"/>
<path d="M5.83533 71.8914H9.39661L9.30139 75.3917H5.83533V71.8914Z" fill="#263238"/>
<path d="M101.415 71.8876H91.5043V125.615H101.415V71.8876Z" fill="#37474F"/>
<path d="M101.415 71.8876H91.5043V75.3918H101.415V71.8876Z" fill="#263238"/>
<path d="M32.6915 103.798C31.3965 102.53 29.7244 100.999 27.74 101.543C25.8812 102.058 25.169 104.091 24.8338 105.783C24.4072 107.961 24.072 110.163 23.7254 112.361C23.3788 114.558 23.0474 116.798 22.7275 119.018C22.5497 120.273 22.372 121.526 22.1942 122.778L21.9391 124.659C21.8553 125.276 21.7524 125.89 21.7181 126.51C21.7181 126.709 22.019 126.739 22.0609 126.549C22.3009 125.501 22.3999 124.416 22.5523 123.353C22.7046 122.29 22.8608 121.22 23.0208 120.15C23.3306 118.029 23.6467 115.91 23.9692 113.793C24.2917 111.675 24.6218 109.556 24.9595 107.436C25.2451 105.638 25.3785 103.41 26.9706 102.225C27.4021 101.929 27.9021 101.747 28.4233 101.698C28.9445 101.649 29.4696 101.733 29.9491 101.943C30.9965 102.343 31.8535 103.086 32.6534 103.848C32.6801 103.859 32.7143 103.821 32.6915 103.798Z" fill="#263238"/>
<path d="M30.9204 102.518C30.9204 102.518 28.277 101.566 26.9706 103.493C25.6641 105.421 27.2258 110.349 39.2656 113.099C38.9111 109.336 37.9315 105.658 36.3671 102.218C33.7885 96.5766 29.1759 98.7096 30.9204 102.518Z" fill="#92E3A9"/>
<path d="M38.5724 112.284C38.391 111.946 38.1887 111.619 37.9668 111.305C37.7649 110.997 37.5631 110.688 37.3574 110.38C37.2012 110.148 37.0451 109.919 36.8851 109.691C36.8851 109.633 36.8851 109.576 36.9079 109.519C36.9308 109.462 36.9346 109.31 36.9498 109.207C36.9803 108.978 37.0108 108.754 37.0451 108.529C37.0793 108.304 37.1136 108.083 37.1593 107.858C37.1862 107.617 37.2385 107.38 37.3155 107.15C37.3155 107.116 37.2698 107.097 37.2622 107.15C37.237 107.28 37.2013 107.407 37.1555 107.531L37.0755 107.836C37.0184 108.064 36.9613 108.293 36.9079 108.525C36.8546 108.757 36.8203 108.948 36.7861 109.165C36.7683 109.269 36.753 109.372 36.7403 109.473C36.5232 109.165 36.3061 108.864 36.0814 108.567C35.4415 107.725 34.7635 106.914 34.0665 106.122C34.0665 106.122 34.0665 106.122 34.0665 106.103C34.1313 104.834 34.1008 103.585 34.3827 102.339C34.3827 102.305 34.337 102.286 34.3293 102.32C34.0111 103.493 33.8597 104.705 33.8799 105.92C33.6285 105.638 33.3771 105.36 33.1181 105.086C32.5316 104.453 31.9336 103.834 31.3241 103.227C31.3013 103.204 31.2632 103.227 31.2861 103.265C32.2992 104.354 33.2629 105.493 34.1998 106.651C33.4664 106.64 32.7328 106.666 32.0021 106.731C31.1832 106.792 30.3757 106.899 29.5644 107.009C29.5302 107.009 29.5378 107.066 29.5644 107.062C30.3713 106.946 31.1837 106.874 31.9983 106.845C32.7867 106.811 33.5676 106.845 34.3522 106.845C34.8588 107.474 35.3615 108.106 35.8529 108.75H35.1901C34.8093 108.75 34.455 108.784 34.0932 108.814C33.3451 108.875 32.602 108.986 31.8688 109.146C31.8617 109.146 31.855 109.149 31.85 109.154C31.845 109.159 31.8421 109.165 31.8421 109.173C31.8421 109.18 31.845 109.186 31.85 109.191C31.855 109.196 31.8617 109.199 31.8688 109.199C32.6077 109.115 33.3505 109.047 34.0932 109.02C34.4474 109.02 34.8016 109.02 35.1597 109.02H35.712C35.8142 109.035 35.9185 109.026 36.0167 108.994C36.3404 109.412 36.6642 109.835 36.9841 110.258C37.238 110.593 37.492 110.932 37.7459 111.275C38.0011 111.625 38.2296 112.006 38.5077 112.334C38.5496 112.338 38.5838 112.311 38.5724 112.284Z" fill="#263238"/>
<path d="M32.0706 105.238C31.6441 105.18 31.2134 105.159 30.7832 105.173C30.3528 105.173 29.9263 105.173 29.4959 105.2C29.4578 105.2 29.4578 105.257 29.4959 105.253C29.9301 105.223 30.3643 105.215 30.8023 105.223C31.2403 105.23 31.6441 105.268 32.0668 105.257C32.0859 105.257 32.0859 105.238 32.0706 105.238Z" fill="#263238"/>
<path d="M35.8491 106.205C35.8987 105.794 35.952 105.383 36.0396 104.979C36.0396 104.941 35.9901 104.926 35.9863 104.979C35.9253 105.383 35.8453 105.783 35.7844 106.19C35.7539 106.392 35.7273 106.594 35.7044 106.8C35.667 106.988 35.6504 107.179 35.6549 107.371C35.6549 107.38 35.6585 107.389 35.6649 107.395C35.6714 107.402 35.6801 107.405 35.6892 107.405C35.6983 107.405 35.707 107.402 35.7134 107.395C35.7198 107.389 35.7235 107.38 35.7235 107.371C35.7603 107.181 35.7819 106.989 35.7882 106.796C35.8073 106.598 35.8263 106.403 35.8491 106.205Z" fill="#263238"/>
<path d="M35.0568 101.65C34.954 102.031 34.8473 102.457 34.775 102.865C34.7369 103.071 34.7064 103.276 34.6759 103.486C34.6385 103.687 34.6257 103.891 34.6378 104.095C34.6378 104.095 34.6645 104.095 34.6683 104.095C34.7158 103.905 34.7476 103.712 34.7635 103.516C34.7902 103.314 34.8207 103.116 34.855 102.918C34.9273 102.499 35.0035 102.084 35.1101 101.669C35.1178 101.635 35.0682 101.616 35.0568 101.65Z" fill="#263238"/>
<path d="M19.3834 126.065C19.3148 125.303 19.2424 124.541 19.1624 123.78C19.0063 122.279 18.8196 120.782 18.6216 119.289C18.4235 117.796 18.2407 116.307 17.9893 114.821C17.8984 114.135 17.7441 113.46 17.5284 112.802C17.4493 112.517 17.3048 112.255 17.1065 112.035C16.9081 111.816 16.6614 111.645 16.3858 111.538C14.9689 111.046 14.0167 112.517 13.4415 113.557C13.4415 113.587 13.472 113.61 13.491 113.583C13.8338 113.088 14.7784 111.709 15.8525 111.77C16.5762 111.816 17.1552 112.326 17.5018 114.132C18.3664 118.622 19.1472 127.737 19.2386 128.331C19.2843 128.647 19.509 128.636 19.5129 128.297C19.5357 127.554 19.4481 126.808 19.3834 126.065Z" fill="#263238"/>
<path d="M13.8452 113C13.8452 113 15.0831 108.613 12.3445 110.814C7.77389 114.452 7.62915 122.366 7.62915 122.366C7.62915 122.366 15.7268 117.662 16.7323 114.562C18.233 109.942 13.8452 113 13.8452 113Z" fill="#92E3A9"/>
<path d="M15.3764 115.145C14.7404 115.274 14.0967 115.358 13.472 115.453L12.5579 115.579C12.356 115.61 12.1465 115.629 11.9408 115.651C12.5426 114.821 13.1521 113.995 13.731 113.145C13.7539 113.115 13.7005 113.08 13.6739 113.107C13.1941 113.602 12.7427 114.123 12.3217 114.669L11.9637 113.652C11.8266 113.271 11.678 112.871 11.5828 112.471C11.5828 112.437 11.5219 112.452 11.5295 112.471C11.6399 112.871 11.7199 113.278 11.8266 113.682C11.9332 114.086 12.0475 114.444 12.1846 114.825C11.8875 115.206 11.6019 115.606 11.3276 116.002C11.1867 115.621 11.0153 115.24 10.8934 114.825C10.8934 114.791 10.8287 114.825 10.8401 114.825C10.9848 115.271 11.0648 115.731 11.2019 116.177C11.0153 116.447 10.821 116.722 10.6496 116.996C10.3259 117.499 10.0174 118.013 9.71266 118.519C9.68974 118.53 9.67073 118.547 9.65839 118.569C9.64606 118.591 9.64105 118.616 9.6441 118.641C9.1299 119.529 8.64618 120.428 8.16626 121.33C8.16626 121.365 8.19673 121.391 8.21197 121.357C8.69188 120.462 9.22893 119.594 9.78503 118.737C9.87155 118.709 9.96102 118.691 10.0516 118.683L10.3297 118.622C10.5392 118.577 10.7487 118.523 10.9543 118.474C11.3657 118.371 11.7733 118.272 12.1884 118.203C12.2227 118.203 12.1884 118.142 12.1884 118.15C11.6971 118.241 11.2057 118.299 10.7106 118.356C10.4782 118.382 10.2459 118.413 10.0136 118.451H9.97928C10.2688 118.009 10.5658 117.571 10.8629 117.137C11.16 116.703 11.4609 116.287 11.7656 115.869C12.0437 115.827 12.3217 115.754 12.6036 115.701L13.5406 115.518C14.169 115.392 14.7937 115.251 15.4221 115.137C15.426 115.191 15.4107 115.137 15.3764 115.145Z" fill="#263238"/>
<path d="M10.5125 115.575C10.4783 115.461 10.4402 115.347 10.4059 115.229C10.3303 114.988 10.268 114.744 10.2193 114.497C10.2193 114.463 10.1583 114.478 10.1659 114.497C10.2193 114.745 10.2764 114.989 10.3335 115.236C10.3859 115.484 10.4572 115.727 10.5468 115.964C10.5527 115.973 10.5616 115.98 10.5721 115.984C10.5826 115.988 10.594 115.988 10.6046 115.985C10.6152 115.981 10.6242 115.974 10.6303 115.965C10.6364 115.955 10.6392 115.944 10.6382 115.933C10.6002 115.823 10.5506 115.701 10.5125 115.575Z" fill="#263238"/>
<path d="M16.2257 114.135C15.8449 114.189 15.464 114.215 15.1097 114.246C14.7555 114.276 14.348 114.334 13.9976 114.387V114.421C14.3784 114.394 14.7593 114.368 15.1136 114.318C15.4678 114.269 15.8525 114.215 16.2257 114.189C16.2257 114.185 16.2257 114.128 16.2257 114.135Z" fill="#263238"/>
<path d="M25.3405 120.531C25.1996 117.312 24.9939 114.101 24.6701 110.894C24.5102 109.298 24.3311 107.702 24.1064 106.114C23.9048 104.552 23.5956 103.006 23.1809 101.486C22.9005 100.307 22.382 99.1974 21.6573 98.2258C21.2967 97.7537 20.8218 97.3812 20.2773 97.1433C19.7329 96.9054 19.1369 96.81 18.5455 96.8661C17.1362 97.0413 16.0012 97.9287 15.0223 98.8924C13.9215 99.9741 12.9122 101.155 11.8952 102.32C11.6362 102.614 11.381 102.907 11.1334 103.204C11.1106 103.231 11.1334 103.269 11.1753 103.242C12.1694 102.099 13.2055 100.983 14.291 99.9208C15.2889 98.9381 16.3211 97.864 17.719 97.4564C18.3637 97.2512 19.0537 97.2354 19.7072 97.4107C20.2263 97.575 20.6936 97.8717 21.0631 98.2715C21.8006 99.1277 22.3229 100.148 22.5867 101.246C23.4551 104.206 23.7636 107.306 24.0836 110.361C24.4035 113.416 24.632 116.577 24.7882 119.693C24.9444 122.808 25.0663 125.966 25.3672 129.089C25.4052 129.47 25.4548 129.851 25.5043 130.232C25.5386 130.491 25.9385 130.491 25.9194 130.232C25.6338 126.998 25.4852 123.768 25.3405 120.531Z" fill="#263238"/>
<path d="M14.8279 99.2428C14.8279 99.2428 16.6676 95.8415 14.4966 94.7484C12.3255 93.6552 5.0544 101.757 2.93286 113.633C2.93286 113.633 14.6718 108.441 18.6597 103.265C22.6475 98.0887 18.1302 96.9499 14.8279 99.2428Z" fill="#92E3A9"/>
<path d="M16.5572 102.008C15.2355 102.008 13.9215 101.909 12.5998 101.917L13.3616 101.067C13.7309 100.691 14.0757 100.292 14.3938 99.8713C14.3938 99.8408 14.3938 99.8027 14.3481 99.8256C13.9892 100.132 13.6555 100.467 13.3501 100.827C13.0188 101.178 12.6874 101.528 12.3636 101.882C11.8571 102.427 11.3619 102.983 10.8706 103.539C10.8706 103.486 10.8706 103.433 10.8706 103.379C10.8706 103.147 10.8706 102.918 10.8706 102.686V101.345C10.8706 100.435 10.8706 99.5247 10.9429 98.6182C10.9429 98.5839 10.8896 98.5877 10.8858 98.6182C10.8249 99.5285 10.7296 100.431 10.6839 101.345C10.6839 101.791 10.6535 102.24 10.6459 102.686C10.6459 102.918 10.6459 103.151 10.6459 103.379C10.6459 103.505 10.6459 103.638 10.6459 103.76C10.5697 103.848 10.4897 103.932 10.4097 104.019C9.35845 105.223 8.35672 106.468 7.38165 107.733C7.38165 107.664 7.38165 107.592 7.38165 107.523L7.33595 107.104C7.30167 106.803 7.25977 106.503 7.21406 106.202C7.16836 105.901 7.12646 105.634 7.08075 105.352C7.03505 105.07 6.94744 104.712 6.92459 104.392C6.92459 104.385 6.92178 104.379 6.91678 104.374C6.91178 104.369 6.905 104.366 6.89793 104.366C6.89086 104.366 6.88408 104.369 6.87908 104.374C6.87408 104.379 6.87127 104.385 6.87127 104.392C6.92707 104.712 6.96395 105.035 6.98172 105.36L7.06171 106.232C7.08837 106.522 7.11503 106.811 7.1455 107.104C7.1455 107.241 7.17217 107.382 7.1874 107.519L7.21026 107.729C7.21679 107.788 7.23629 107.846 7.26739 107.897L6.76462 108.552C6.10188 109.432 5.44675 110.323 4.79163 111.218C4.79163 111.245 4.79163 111.283 4.83352 111.256C5.45056 110.449 6.08664 109.656 6.73796 108.872C7.22168 108.872 7.71302 108.872 8.19675 108.849C8.68048 108.826 9.21372 108.849 9.7203 108.849C9.72737 108.849 9.73415 108.846 9.73915 108.841C9.74415 108.836 9.74696 108.829 9.74696 108.822C9.74696 108.815 9.74415 108.808 9.73915 108.803C9.73415 108.798 9.72737 108.795 9.7203 108.795H8.19675C7.73207 108.795 7.25596 108.773 6.79509 108.795C7.36388 108.107 7.93521 107.42 8.50908 106.735C8.71857 106.487 8.93186 106.24 9.14135 105.973C9.33563 106 9.53227 106.007 9.72791 105.992H10.4249C10.8553 105.992 11.2895 105.992 11.7238 105.973C12.6188 105.973 13.5177 105.931 14.4128 105.927C14.4199 105.927 14.4267 105.925 14.4317 105.92C14.4367 105.915 14.4395 105.908 14.4395 105.901C14.4395 105.894 14.4367 105.887 14.4317 105.882C14.4267 105.877 14.4199 105.874 14.4128 105.874C13.5139 105.874 12.6188 105.825 11.72 105.802C11.2857 105.802 10.8515 105.775 10.4173 105.771H9.72411C9.5908 105.771 9.45749 105.771 9.34322 105.771C9.83456 105.188 10.3259 104.602 10.8211 104.019C10.8319 104.011 10.8409 104 10.8477 103.989C11.3276 103.42 11.8101 102.854 12.2951 102.29L12.497 102.061C13.8643 102.103 15.2317 102.012 16.5991 102.039C16.6014 102.033 16.6017 102.027 16.6001 102.021C16.5985 102.015 16.595 102.01 16.5901 102.007C16.5853 102.003 16.5794 102.002 16.5735 102.002C16.5675 102.002 16.5618 102.004 16.5572 102.008Z" fill="#263238"/>
<path d="M15.8791 104.339H15.5592C15.5287 104.339 15.5325 104.389 15.5592 104.389H15.8791C15.9172 104.396 15.9172 104.339 15.8791 104.339Z" fill="#263238"/>
<path d="M15.1708 104.343C14.748 104.343 14.3252 104.343 13.9025 104.316L13.2664 104.297C13.0716 104.272 12.8745 104.272 12.6798 104.297C12.6748 104.297 12.6699 104.299 12.6663 104.303C12.6628 104.306 12.6608 104.311 12.6608 104.316C12.6608 104.321 12.6628 104.326 12.6663 104.33C12.6699 104.333 12.6748 104.335 12.6798 104.335C12.8738 104.376 13.0724 104.39 13.2702 104.377H13.9025H15.1708C15.1742 104.372 15.1761 104.366 15.1761 104.36C15.1761 104.354 15.1742 104.348 15.1708 104.343Z" fill="#263238"/>
<path d="M11.48 108.304C10.6208 108.164 9.75269 108.086 8.88232 108.072V108.091C9.74694 108.175 10.6115 108.22 11.4647 108.357C11.4718 108.359 11.4794 108.359 11.4858 108.355C11.4922 108.351 11.497 108.345 11.499 108.338C11.501 108.331 11.5002 108.324 11.4966 108.317C11.493 108.311 11.487 108.306 11.48 108.304Z" fill="#263238"/>
<path d="M7.94918 104.529C7.94918 104.453 7.94918 104.377 7.92252 104.301C7.90347 104.133 7.87681 103.962 7.85015 103.794C7.79683 103.471 7.73969 103.151 7.67875 102.831C7.67875 102.8 7.62162 102.808 7.62543 102.831C7.66732 103.162 7.7016 103.493 7.73588 103.829C7.73588 103.992 7.76255 104.156 7.77778 104.316C7.77128 104.481 7.79451 104.647 7.84634 104.804C7.86919 104.853 7.94537 104.83 7.96061 104.785C7.97559 104.7 7.97169 104.613 7.94918 104.529Z" fill="#263238"/>
<path d="M25.2262 94.8741C24.8072 94.0894 24.2701 93.0572 23.2227 93.122C22.3581 93.1791 21.9658 94.0628 21.7829 94.7903C21.2078 97.0489 21.1773 99.4333 21.0593 101.757C20.8231 106.651 20.6098 111.549 20.5793 116.447C20.5793 117.803 20.5793 119.163 20.5793 120.519C20.5793 121.875 20.5793 123.3 20.6746 124.682C20.6791 124.706 20.6917 124.727 20.7101 124.742C20.7285 124.757 20.7516 124.765 20.7755 124.765C20.7994 124.765 20.8225 124.757 20.8409 124.742C20.8593 124.727 20.8719 124.706 20.8764 124.682C20.8764 123.498 20.8422 122.313 20.8383 121.129C20.8345 119.944 20.8383 118.817 20.8612 117.659C20.8993 115.32 20.9615 112.98 21.0478 110.639C21.1354 108.312 21.2383 105.988 21.3373 103.661L21.4859 100.176C21.5392 99.0333 21.5849 97.9212 21.7144 96.8013C21.7868 96.1729 21.882 95.5482 22.0115 94.9274C22.0774 94.4691 22.2641 94.0366 22.5523 93.6743C22.7524 93.479 23.0151 93.3609 23.2939 93.3407C23.5727 93.3204 23.8497 93.3995 24.0759 93.5638C24.5589 93.9006 24.9409 94.3628 25.1805 94.9007C25.1957 94.9312 25.2414 94.9007 25.2262 94.8741Z" fill="#263238"/>
<path d="M24.9444 94.5198C24.9444 94.5198 24.0797 91.4727 25.988 92.9963C29.1608 95.5292 29.2712 101.044 29.2712 101.044C29.2712 101.044 23.6303 97.7688 22.9295 95.6053C21.8858 92.3678 24.9444 94.5198 24.9444 94.5198Z" fill="#92E3A9"/>
<path d="M28.0867 98.7629L27.9267 98.5153C27.9324 98.4291 27.9324 98.3426 27.9267 98.2563C27.9267 98.123 27.9267 97.9935 27.9267 97.8754C27.9267 97.6164 27.9267 97.3612 27.9534 97.1137C27.9534 97.0794 27.9038 97.0794 27.9 97.1137C27.9 97.3689 27.8772 97.6202 27.8696 97.8754V98.2563C27.8696 98.302 27.8696 98.3592 27.8696 98.4163C27.6487 98.0735 27.4201 97.7345 27.184 97.3993C27.1154 97.3003 27.0469 97.2051 26.9745 97.1098C26.9478 96.779 26.9478 96.4466 26.9745 96.1157C26.9745 95.7615 26.9745 95.4073 26.9745 95.0569C26.9745 95.0188 26.9212 95.0226 26.9212 95.0569C26.9212 95.4378 26.8945 95.792 26.8755 96.1614C26.8526 96.4223 26.845 96.6843 26.8526 96.9461C26.3079 96.2071 25.729 95.4911 25.1462 94.7826C25.1272 94.7598 25.0853 94.7826 25.1043 94.8169C25.4662 95.274 25.8128 95.7463 26.1518 96.2224C25.489 96.0662 24.8149 95.9786 24.1407 95.8796C24.1064 95.8796 24.0912 95.9291 24.1407 95.9329C24.8568 96.0396 25.5576 96.2186 26.2622 96.3747C26.5288 96.7556 26.7993 97.1365 27.0621 97.5174C27.1725 97.6736 27.2754 97.8335 27.382 97.9897H27.3516L27.1345 97.9592C26.9783 97.9402 26.8221 97.9288 26.666 97.9173C26.3384 97.8907 26.0146 97.8754 25.6871 97.8564C25.68 97.8564 25.6732 97.8592 25.6682 97.8642C25.6632 97.8692 25.6604 97.876 25.6604 97.883C25.6604 97.8901 25.6632 97.8969 25.6682 97.9019C25.6732 97.9069 25.68 97.9097 25.6871 97.9097C26.0108 97.9097 26.327 97.944 26.6469 97.9783C26.8145 97.9783 26.9821 98.0202 27.1535 98.0392L27.3706 98.0659H27.4354L27.98 98.8657C28.2962 99.3342 28.5818 99.8408 28.9208 100.294C28.9437 100.321 28.9818 100.294 28.9665 100.267C28.7015 99.7499 28.4077 99.2476 28.0867 98.7629Z" fill="#263238"/>
<path d="M26.6812 95.3235C26.6812 95.2054 26.6812 95.0873 26.6812 94.9693C26.6755 94.7149 26.6857 94.4605 26.7116 94.2075C26.7116 94.2004 26.7088 94.1936 26.7038 94.1886C26.6988 94.1836 26.6921 94.1808 26.685 94.1808C26.6779 94.1808 26.6711 94.1836 26.6661 94.1886C26.6611 94.1936 26.6583 94.2004 26.6583 94.2075C26.6583 94.4512 26.6317 94.6988 26.6202 94.9464C26.6202 95.0683 26.6202 95.194 26.6202 95.3273C26.6202 95.3844 26.6202 95.4416 26.6202 95.4987C26.6106 95.5567 26.6106 95.6159 26.6202 95.6739C26.6202 95.68 26.6226 95.6858 26.6269 95.6901C26.6312 95.6943 26.637 95.6967 26.6431 95.6967C26.6491 95.6967 26.655 95.6943 26.6592 95.6901C26.6635 95.6858 26.6659 95.68 26.6659 95.6739C26.6754 95.6197 26.6754 95.5643 26.6659 95.5101L26.6812 95.3235Z" fill="#263238"/>
<path d="M25.9841 96.588C25.7734 96.5551 25.561 96.5335 25.348 96.5233C25.1157 96.5004 24.8833 96.4814 24.651 96.4509C24.6129 96.4509 24.6053 96.5042 24.651 96.5042C25.0966 96.5347 25.5423 96.6147 25.9879 96.6299C25.9919 96.6278 25.9951 96.6246 25.9972 96.6206C25.9994 96.6167 26.0003 96.6122 25.9999 96.6077C25.9995 96.6032 25.9977 96.599 25.9949 96.5955C25.9921 96.592 25.9884 96.5894 25.9841 96.588Z" fill="#263238"/>
<path d="M27.7552 96.6032C27.7628 96.6422 27.7628 96.6823 27.7552 96.7213V96.8051C27.7552 96.8775 27.7552 96.946 27.7552 97.0184V97.2317C27.7437 97.2934 27.7437 97.3567 27.7552 97.4183C27.7552 97.4183 27.7552 97.4183 27.7781 97.4183C27.7855 97.3883 27.7855 97.3569 27.7781 97.3269V97.2317C27.7781 97.1593 27.7781 97.087 27.7781 97.0184V96.7061C27.7781 96.6756 27.7781 96.6147 27.7781 96.588C27.7781 96.5613 27.7209 96.5537 27.7552 96.6032Z" fill="#263238"/>
<path d="M25.3671 111.119C24.1787 110.231 23.1122 108.952 21.5163 108.887C20.2023 108.837 19.2767 109.828 18.7511 110.932C18.4863 111.519 18.2697 112.127 18.1036 112.749C17.8674 113.582 17.644 114.42 17.4332 115.263C17.0143 116.924 16.6588 118.592 16.3668 120.268C16.2068 121.205 16.0582 122.142 15.9402 123.086C15.7906 124.042 15.6977 125.006 15.6621 125.973C15.6649 126.009 15.6798 126.042 15.7043 126.067C15.7288 126.093 15.7614 126.109 15.7965 126.113C15.8316 126.117 15.8671 126.109 15.8967 126.089C15.9264 126.07 15.9485 126.041 15.9592 126.008C16.1192 125.219 16.1839 124.404 16.302 123.608C16.4201 122.812 16.5381 122.005 16.6829 121.205C16.952 119.605 17.2669 118.015 17.6275 116.436C17.9665 114.943 18.3017 113.427 18.7701 111.972C19.1129 110.932 19.669 109.713 20.7926 109.34C22.5066 108.769 24.0607 110.22 25.3138 111.161C25.3671 111.18 25.3861 111.142 25.3671 111.119Z" fill="#263238"/>
<path d="M24.1291 110.269C24.1291 110.269 23.036 107.146 24.6167 106.533C26.9896 105.615 33.1942 112.604 31.9792 123.292C31.9792 123.292 27.1838 120.652 23.6454 117.682C20.107 114.711 19.2005 110.826 20.7583 109.828C22.3161 108.83 24.1291 110.269 24.1291 110.269Z" fill="#92E3A9"/>
<path d="M31.2633 121.014C31.0969 120.641 30.9034 120.281 30.6844 119.936C30.4825 119.555 30.2768 119.205 30.0673 118.843C29.656 118.139 29.2446 117.43 28.8218 116.733L28.6161 116.394C28.6161 116.352 28.6161 116.31 28.6428 116.268L28.7114 115.96C28.7647 115.728 28.8066 115.491 28.8485 115.259C28.9361 114.802 29.0123 114.337 29.138 113.888C29.138 113.881 29.1352 113.874 29.1302 113.869C29.1252 113.864 29.1184 113.861 29.1113 113.861C29.1042 113.861 29.0974 113.864 29.0924 113.869C29.0874 113.874 29.0846 113.881 29.0846 113.888C28.9856 114.345 28.8409 114.798 28.7038 115.244C28.6352 115.465 28.5666 115.686 28.5057 115.91C28.5057 115.987 28.4676 116.063 28.4447 116.139C27.9382 115.301 27.4202 114.471 26.8603 113.667C26.8961 113.556 26.9141 113.441 26.9136 113.324L26.9707 112.856C27.0126 112.501 27.0507 112.151 27.104 111.801C27.1948 111.11 27.322 110.425 27.4849 109.748C27.4849 109.713 27.443 109.706 27.4316 109.748C27.264 110.422 27.0774 111.096 26.9479 111.778C26.8869 112.113 26.826 112.452 26.7803 112.787C26.7574 112.959 26.7422 113.126 26.7231 113.298C26.7231 113.347 26.7231 113.4 26.7231 113.45C26.5517 113.206 26.3803 112.966 26.1975 112.73C25.6529 112.01 25.0853 111.305 24.5102 110.605C24.5102 110.578 24.4454 110.605 24.4683 110.635C25.4487 111.889 26.3482 113.205 27.1612 114.573C27.3211 114.825 27.4735 115.076 27.6297 115.335L27.4735 115.316C27.2754 115.293 27.0697 115.278 26.8717 115.259L25.6605 115.156C24.853 115.091 24.0417 115.042 23.238 114.954C23.2038 114.954 23.1923 115.004 23.238 115.008C24.0569 115.103 24.8682 115.232 25.6795 115.35C26.0604 115.408 26.4794 115.461 26.8831 115.51C27.1866 115.572 27.4953 115.604 27.8049 115.606C28.1248 116.114 28.4422 116.629 28.7571 117.152C28.6861 117.146 28.6148 117.146 28.5438 117.152H27.4011C26.8793 117.152 26.3613 117.152 25.8395 117.152C25.8052 117.152 25.8128 117.205 25.8395 117.205C26.3651 117.205 26.8907 117.24 27.4164 117.266C27.6677 117.266 27.9153 117.293 28.1781 117.312L28.559 117.339C28.667 117.362 28.7786 117.362 28.8866 117.339C29.157 117.777 29.4312 118.215 29.6979 118.653C29.9645 119.091 30.1968 119.46 30.4596 119.86C30.7007 120.287 30.9731 120.696 31.2747 121.083C31.2792 121.082 31.2835 121.08 31.2874 121.078C31.2913 121.076 31.2946 121.072 31.2973 121.069C31.3 121.065 31.3018 121.061 31.3029 121.056C31.3039 121.052 31.3041 121.047 31.3033 121.043C31.3026 121.038 31.3009 121.034 31.2985 121.03C31.2961 121.026 31.2929 121.023 31.2892 121.02C31.2855 121.018 31.2813 121.016 31.2769 121.015C31.2724 121.014 31.2678 121.014 31.2633 121.014Z" fill="#263238"/>
<path d="M28.978 112.361C28.9296 112.705 28.8584 113.046 28.7647 113.381C28.6733 113.728 28.5742 114.071 28.46 114.41C28.4585 114.414 28.4578 114.418 28.4581 114.423C28.4583 114.427 28.4594 114.432 28.4614 114.436C28.4633 114.44 28.466 114.444 28.4694 114.447C28.4727 114.45 28.4767 114.452 28.4809 114.454C28.4852 114.455 28.4897 114.456 28.4942 114.455C28.4987 114.455 28.5031 114.454 28.5072 114.452C28.5112 114.45 28.5149 114.447 28.5179 114.444C28.5209 114.441 28.5232 114.437 28.5247 114.433C28.6314 114.094 28.7266 113.755 28.8104 113.408C28.8942 113.061 28.9475 112.715 29.0313 112.372C29.0389 112.338 28.9818 112.326 28.978 112.361Z" fill="#263238"/>
<path d="M25.4548 114.452C25.3821 114.391 25.2905 114.357 25.1957 114.356L24.7425 114.295L23.9007 114.193C23.3142 114.124 22.7314 114.067 22.1448 113.995C22.1106 113.995 22.103 114.044 22.1448 114.048C22.6971 114.113 23.2418 114.196 23.7941 114.269L24.6016 114.375L24.9825 114.417C25.133 114.418 25.2824 114.443 25.4243 114.494C25.4548 114.509 25.4738 114.471 25.4548 114.452Z" fill="#263238"/>
<path d="M28.9703 119.163C28.6923 119.136 28.4142 119.129 28.14 119.121H27.721H27.5192C27.433 119.129 27.3463 119.129 27.2602 119.121C27.2183 119.121 27.2145 119.182 27.2602 119.175C27.3412 119.167 27.4229 119.167 27.5039 119.175H27.721L28.14 119.201C28.4181 119.201 28.6961 119.236 28.9703 119.236C29.0008 119.22 29.0046 119.163 28.9703 119.163Z" fill="#263238"/>
<path d="M30.6576 117.963C30.6932 117.806 30.7236 117.65 30.749 117.495L30.9204 116.566C30.9204 116.558 30.9176 116.552 30.9126 116.547C30.9076 116.542 30.9009 116.539 30.8938 116.539C30.8867 116.539 30.8799 116.542 30.8749 116.547C30.8699 116.552 30.8671 116.558 30.8671 116.566L30.6614 117.468C30.6272 117.617 30.5967 117.769 30.5624 117.918C30.5624 117.99 30.5357 118.059 30.5205 118.127C30.4979 118.198 30.4901 118.274 30.4977 118.348C30.4977 118.375 30.5396 118.394 30.5548 118.348C30.6128 118.227 30.6477 118.097 30.6576 117.963Z" fill="#263238"/>
<path d="M30.0216 127.192L29.7549 131.618L28.9665 144.683H12.8131L12.0247 131.618L11.7581 127.192H30.0216Z" fill="#455A64"/>
<path d="M30.0216 127.192L29.7549 131.618H12.0247L11.7581 127.192H30.0216Z" fill="#263238"/>
<path d="M31.2594 124.061H10.5239V128.491H31.2594V124.061Z" fill="#455A64"/>
<path d="M80.07 122.926C80.07 122.926 77.8418 139.323 77.8418 139.335C77.7999 142.473 77.7085 145.223 77.5295 146.64C77.5312 146.648 77.5312 146.656 77.5295 146.663C77.5262 146.999 77.4427 147.33 77.2857 147.627L77.2666 147.65C76.3258 148.267 51.2521 148.678 50.3722 148.411C49.4924 148.145 50.2237 145.604 51.1835 144.812C52.1434 144.02 61.677 139.567 61.677 139.567L64.0613 123.189L80.07 122.926Z" fill="#AD6359"/>
<path d="M77.8075 141.369C77.758 143.654 77.6704 145.559 77.5295 146.655C77.5312 146.663 77.5312 146.671 77.5295 146.678C77.5263 147.014 77.4427 147.345 77.2857 147.642C77.2857 147.642 77.2857 147.642 77.2857 147.661C76.3411 148.282 51.2674 148.689 50.3875 148.423C49.5077 148.156 50.239 145.616 51.1988 144.823C51.6597 144.443 54.0821 143.231 56.4817 142.066C55.7199 142.664 54.9581 143.399 55.3048 143.696C55.9027 144.191 71.1077 143.654 77.8075 141.369Z" fill="#263238"/>
<path d="M57.8757 141.369C57.8757 141.369 62.3131 139.35 69.9232 143.003Z" fill="#263238"/>
<path d="M83.8179 134.227L61.9664 133.877L72.9626 51.8871H87.7753L83.8179 134.227Z" fill="#263238"/>
<path d="M87.7754 51.8871L84.9683 110.292L77.6019 51.8871H87.7754Z" fill="#37474F"/>
<path d="M82.7667 130.43C82.1077 130.357 81.4336 130.361 80.7708 130.335C80.1081 130.308 79.4987 130.3 78.8664 130.289C77.5485 130.266 76.2345 130.243 74.9166 130.228C72.3152 130.205 69.7137 130.186 67.1123 130.194C65.6344 130.194 64.1642 130.243 62.6864 130.308C62.6787 130.31 62.6721 130.315 62.6674 130.322C62.6627 130.328 62.6602 130.336 62.6602 130.344C62.6602 130.352 62.6627 130.36 62.6674 130.366C62.6721 130.373 62.6787 130.378 62.6864 130.38C65.303 130.536 67.9159 130.578 70.5364 130.613C73.1569 130.647 75.7393 130.654 78.3408 130.651C79.0721 130.651 79.7996 130.651 80.5309 130.651C81.2622 130.651 82.0316 130.651 82.7667 130.582C82.7869 130.582 82.8063 130.574 82.8205 130.56C82.8348 130.546 82.8429 130.526 82.8429 130.506C82.8429 130.486 82.8348 130.466 82.8205 130.452C82.8063 130.438 82.7869 130.43 82.7667 130.43Z" fill="#455A64"/>
<path d="M75.7584 56.1607C74.471 65.4733 73.2788 74.7936 72.0143 84.1101C70.7497 93.4266 69.4166 102.648 68.0683 111.915C67.3065 117.114 66.5181 122.305 65.821 127.531C65.821 127.611 65.9315 127.642 65.9467 127.562C67.6493 118.318 68.9938 109.005 70.346 99.7036C71.6981 90.4023 72.936 81.162 74.0825 71.8722C74.7262 66.6541 75.3508 61.4321 75.8803 56.2025C75.8879 56.1073 75.7698 56.0921 75.7584 56.1607Z" fill="#455A64"/>
<path d="M87.7944 123.166C87.7944 123.166 89.8969 138.802 89.8969 138.813C89.916 141.948 89.9883 144.698 90.1597 146.118C90.1582 146.126 90.1582 146.134 90.1597 146.141C90.165 146.477 90.2457 146.808 90.3959 147.109C90.3959 147.109 90.3959 147.109 90.4149 147.128C91.3519 147.752 113.74 148.324 114.624 148.05C115.508 147.775 114.792 145.242 113.836 144.443C112.88 143.643 106.058 139.133 106.058 139.133L103.426 122.755L87.7944 123.166Z" fill="#AD6359"/>
<path d="M114.628 148.05C113.748 148.324 91.3595 147.752 90.4187 147.128C90.4187 147.128 90.4187 147.128 90.4187 147.105C90.2633 146.806 90.1811 146.474 90.1788 146.138C90.177 146.13 90.177 146.122 90.1788 146.115C89.9965 144.471 89.9177 142.817 89.9426 141.163C93.5991 143.483 103.068 144.515 106.077 143.856C108.743 143.269 108.157 141.121 107.6 140.154C109.665 141.529 113.188 143.894 113.862 144.454C114.795 145.239 115.512 147.775 114.628 148.05Z" fill="#263238"/>
<path d="M107.578 140.142C107.578 140.142 100.044 138.916 94.8904 142.988Z" fill="#263238"/>
<path d="M74.4672 51.8605C74.5319 52.1652 75.5679 56.972 76.642 61.1008C77.4228 64.1174 78.2265 66.7684 78.6874 67.0426C79.2092 67.3512 81.7535 68.4786 82.6067 68.8328L85.928 134.075L108.537 133.568L96.73 62.4339L94.7418 51.8605H74.4672Z" fill="#263238"/>
<path d="M77.3391 66.3951C79.1545 67.0559 80.9094 67.8728 82.5839 68.8366C82.5967 68.8442 82.6062 68.8563 82.6107 68.8705C82.6152 68.8848 82.6143 68.9002 82.6082 68.9138C82.6021 68.9274 82.5912 68.9383 82.5776 68.9445C82.564 68.9506 82.5486 68.9515 82.5343 68.947C80.767 68.1852 78.9654 67.4616 77.2438 66.6046C77.2161 66.5919 77.1944 66.5688 77.1837 66.5402C77.173 66.5116 77.1741 66.48 77.1867 66.4522C77.1993 66.4244 77.2225 66.4028 77.251 66.3921C77.2796 66.3814 77.3113 66.3825 77.3391 66.3951Z" fill="#455A64"/>
<path d="M76.8058 54.2944C76.8058 54.2334 76.9162 54.2182 76.9162 54.2944C76.9162 56.3931 77.0381 58.2404 77.2133 60.1981C77.2971 61.1084 78.0284 66.1399 79.6053 65.7743C79.8719 65.7095 79.9862 65.4505 80.0471 65.0544C80.0414 64.5335 79.971 64.0154 79.8376 63.5118C79.6624 62.4568 79.5215 61.4017 79.4301 60.339C79.2478 58.3576 79.2695 56.3628 79.4948 54.3858C79.4979 54.3745 79.5046 54.3646 79.5139 54.3575C79.5232 54.3504 79.5346 54.3466 79.5462 54.3466C79.5579 54.3466 79.5693 54.3504 79.5786 54.3575C79.5879 54.3646 79.5946 54.3745 79.5977 54.3858C79.5496 57.1313 79.7101 59.8765 80.0776 62.5977C80.2756 63.908 80.9346 65.8771 79.5672 66.079C78.1998 66.2809 77.2819 62.9862 77.0991 62.0835C76.6662 59.5106 76.5676 56.8925 76.8058 54.2944Z" fill="#455A64"/>
<path d="M79.5634 65.8961C79.7059 66.2353 79.8242 66.584 79.9177 66.9398C80.0195 67.2139 80.0698 67.5044 80.0662 67.7968C80.064 67.8087 80.0583 67.8196 80.0498 67.8283C80.0413 67.8369 80.0305 67.8428 80.0186 67.8453C80.0068 67.8477 79.9945 67.8466 79.9833 67.842C79.9721 67.8374 79.9625 67.8296 79.9557 67.8196C79.7879 67.5621 79.6596 67.2809 79.5749 66.9855C79.4568 66.6617 79.3273 66.3418 79.2168 66.018C79.2007 65.9721 79.2034 65.9216 79.2245 65.8776C79.2456 65.8337 79.2832 65.7999 79.3292 65.7838C79.3751 65.7676 79.4256 65.7704 79.4696 65.7914C79.5135 65.8125 79.5473 65.8502 79.5634 65.8961Z" fill="#455A64"/>
<path d="M107.258 130.453C106.599 130.399 105.921 130.418 105.258 130.411C104.595 130.403 103.99 130.411 103.354 130.411C102.04 130.411 100.722 130.441 99.4077 130.464C96.8062 130.514 94.2047 130.571 91.6033 130.651C90.1254 130.696 88.6552 130.784 87.185 130.891C87.1774 130.893 87.1707 130.898 87.166 130.904C87.1613 130.911 87.1588 130.919 87.1588 130.927C87.1588 130.935 87.1613 130.943 87.166 130.949C87.1707 130.956 87.1774 130.961 87.185 130.963C89.8055 131.047 92.4184 131.013 95.0389 130.963C97.6594 130.913 100.242 130.856 102.839 130.78L105.03 130.704C105.768 130.674 106.53 130.662 107.262 130.571C107.272 130.564 107.28 130.555 107.285 130.545C107.291 130.534 107.294 130.523 107.293 130.511C107.293 130.499 107.289 130.487 107.283 130.477C107.277 130.467 107.268 130.458 107.258 130.453Z" fill="#455A64"/>
<path d="M97.3546 121.673C97.1604 119.681 96.9471 117.689 96.7414 115.697C96.33 111.751 95.906 107.808 95.4692 103.867C94.6033 95.9824 93.7146 88.098 92.803 80.2137C92.2964 75.7916 91.8775 71.3542 91.3023 66.9398C91.3023 66.9017 91.2338 66.9017 91.2376 66.9398C91.5804 70.9314 92.0679 74.9079 92.4716 78.892C92.8754 82.876 93.2639 86.7801 93.6753 90.7223C94.4929 98.6117 95.3334 106.497 96.1967 114.379C96.4405 116.592 96.6843 118.805 96.9585 121.018C97.2327 123.231 97.526 125.44 97.8041 127.653C97.8041 127.706 97.8955 127.706 97.8879 127.653C97.6974 125.657 97.5489 123.665 97.3546 121.673Z" fill="#455A64"/>
<path d="M72.7875 60.8799L76.6459 61.1275L87.8934 61.8588L96.7376 62.4339L94.7418 51.8605H74.4672H72.9436L72.7875 60.8799Z" fill="#263238"/>
<path d="M78.1885 10.6257C74.4939 13.7909 75.5223 18.411 73.9797 20.9096C73.0351 22.4332 69.9651 24.0596 69.3519 25.8231C68.3502 28.7254 70.8069 29.7653 70.2584 31.3421C69.4966 33.5741 66.4915 33.4027 65.9506 37.0554C65.4097 40.7081 69.4319 44.5932 78.9731 45.6482C88.5143 46.7033 93.7515 43.2067 94.0943 40.1063C94.4371 37.0059 91.2643 35.9775 91.0472 33.6617C90.9101 32.1839 92.8678 31.1517 92.9516 28.4321C93.0354 25.7126 90.3997 24.8252 90.0188 22.5132C89.6379 20.2012 90.8644 14.5831 87.4669 11.715C84.0694 8.84697 80.0091 9.06407 78.1885 10.6257Z" fill="#263238"/>
<path d="M78.6151 10.7248C77.5821 11.4559 76.7407 12.4253 76.1622 13.5509C75.5642 14.7446 75.1066 16.0036 74.7986 17.3027C74.6395 18.0764 74.3915 18.8292 74.0597 19.5461C73.7301 20.1446 73.2968 20.6799 72.7799 21.1268C71.7477 22.0599 70.5136 22.7722 69.5881 23.8196C68.6625 24.8671 68.0264 26.143 68.3769 27.4952C68.5673 28.2303 69.0548 28.8321 69.3557 29.5177C69.6566 30.2033 69.7366 30.9803 69.1996 31.5212C68.7197 31.982 68.0303 32.1953 67.4894 32.5724C66.9547 32.9448 66.4839 33.4014 66.0954 33.9245C65.7023 34.4415 65.4211 35.0345 65.2696 35.666C65.1182 36.2974 65.0997 36.9535 65.2155 37.5925C65.7792 40.5596 68.5635 42.2469 71.1345 43.3058C71.4925 43.4543 71.8506 43.5991 72.2124 43.74C72.2695 43.7628 72.3152 43.6829 72.2581 43.66C69.6795 42.5173 66.6857 41.15 65.6954 38.2628C65.466 37.6333 65.3851 36.9592 65.4591 36.2932C65.5331 35.6272 65.76 34.9874 66.122 34.4235C66.487 33.8682 66.9489 33.3831 67.4856 32.9914C68.0036 32.6105 68.6054 32.3705 69.131 32.0087C69.3931 31.8424 69.6064 31.6095 69.7489 31.3338C69.8915 31.0581 69.9582 30.7494 69.9423 30.4394C69.8612 29.7572 69.6184 29.1043 69.2339 28.535C68.833 27.9469 68.6204 27.2509 68.6244 26.5392C68.7019 25.8472 68.9651 25.1892 69.3862 24.6347C70.1899 23.4921 71.3783 22.7531 72.4333 21.8923C73.5255 21.0923 74.3383 19.969 74.7567 18.6815C74.9548 17.9997 75.0767 17.2989 75.2481 16.6133C75.4018 15.9684 75.5913 15.3326 75.8156 14.7088C76.2369 13.466 76.9261 12.3309 77.8343 11.3837C78.0728 11.1413 78.3357 10.9244 78.6189 10.7362C78.6913 10.7248 78.6456 10.6867 78.6151 10.7248Z" fill="#263238"/>
<path d="M94.517 37.8363C94.4008 37.3317 94.1759 36.8586 93.8581 36.4498C93.5267 36.0309 93.1268 35.6881 92.7573 35.3072C92.3818 34.958 92.1113 34.5108 91.9765 34.016C91.9095 33.4114 92.0593 32.8026 92.3993 32.2982C92.722 31.7651 93.0071 31.2102 93.2525 30.6375C93.5751 29.7635 93.689 28.8263 93.5852 27.9005C93.4814 26.9747 93.1627 26.0859 92.6545 25.3051C92.3308 24.7719 91.9651 24.2653 91.6337 23.7359C91.271 23.1591 90.9866 22.5366 90.7882 21.8847C90.3578 20.4488 90.2664 18.9329 89.9159 17.4779C89.5457 15.9872 89.0264 14.5376 88.3657 13.151C88.3657 13.1167 88.2972 13.151 88.3162 13.1815C88.9029 14.433 89.3561 15.7429 89.6684 17.0894C89.9731 18.3653 90.0911 19.668 90.3159 20.9554C90.4154 21.5894 90.5775 22.212 90.7996 22.8141C91.0262 23.37 91.3028 23.9042 91.6261 24.41C92.2736 25.4613 92.9364 26.4973 93.1154 27.7466C93.2933 28.9711 93.0786 30.2206 92.5022 31.3155C91.9994 32.2639 91.2986 33.3113 91.7404 34.4197C92.1213 35.3605 93.0049 35.9433 93.6029 36.705C93.9163 37.1343 94.1357 37.6249 94.2466 38.1447C94.3575 38.6645 94.3575 39.2018 94.2466 39.7217C93.7324 42.3879 91.0586 43.7172 88.5524 43.8505C88.5362 43.8505 88.5207 43.8569 88.5093 43.8683C88.4978 43.8797 88.4914 43.8952 88.4914 43.9114C88.4914 43.9276 88.4978 43.9431 88.5093 43.9545C88.5207 43.9659 88.5362 43.9723 88.5524 43.9723C90.731 43.9457 93.104 42.9897 94.1247 40.9481C94.614 39.9882 94.7528 38.8876 94.517 37.8363Z" fill="#263238"/>
<path d="M80.3253 29.6472C79.6473 32.42 71.5915 58.4117 69.9956 58.7735C65.2993 59.8324 59.6546 60.6094 59.7383 56.7549C59.8717 50.7064 71.2411 34.7853 76.6878 29.4948C80.2719 26.0097 80.9956 26.9086 80.3253 29.6472Z" fill="#AD6359"/>
<path d="M80.3253 29.6472C79.6473 32.42 71.5915 58.4117 69.9956 58.7735C65.2993 59.8324 59.6546 60.6094 59.7383 56.7549C59.8717 50.7064 71.2411 34.7853 76.6878 29.4948C80.2719 26.0097 80.9956 26.9086 80.3253 29.6472Z" fill="#AD6359"/>
<path d="M59.7079 58.1413C57.7578 51.2853 74.2387 31.1326 77.4458 28.5655C80.6528 25.9983 81.068 26.802 80.4167 30.0433C79.7654 33.2846 71.9724 57.8213 70.3118 58.7164C68.6511 59.6115 60.5916 61.2493 59.7079 58.1413Z" fill="#EBEBEB"/>
<path d="M73.1759 45.1988L71.3667 57.6461C71.3667 57.6461 91.6527 57.9471 96.688 57.5928C96.688 57.5928 92.5821 34.3207 87.1659 28.4436C84.4578 25.5031 81.2774 25.7202 79.251 27.777C78.7407 28.2988 72.6198 36.3851 71.9761 39.4741C71.4124 42.1974 73.1759 45.1988 73.1759 45.1988Z" fill="#92E3A9"/>
<path d="M84.9225 26.722C84.9225 26.722 82.561 91.6098 83.8141 94.6912C85.0672 97.7725 103.925 100.831 103.925 100.831C103.925 100.831 98.3906 54.3858 93.3706 40.2892C88.7161 27.2171 84.9225 26.722 84.9225 26.722Z" fill="#EBEBEB"/>
<path d="M97.5222 66.616C95.8101 66.8524 94.0854 66.9872 92.3574 67.0198C89.9425 67.0198 87.5468 66.7836 86.8536 66.776C86.7926 66.776 86.7621 66.9779 86.804 66.9817C88.6335 67.2019 90.4731 67.3291 92.3155 67.3626C94.002 67.3506 95.6843 67.1913 97.3432 66.8865C97.3432 67.3968 97.3432 67.7968 97.3432 68.311C95.6406 68.6385 92.3574 69.2061 87.0592 68.5243C87.0402 68.311 87.0592 67.1721 87.025 66.8598C87.025 66.8141 86.8193 66.8027 86.8117 66.8598C86.7698 67.1683 86.6441 69.9069 86.6403 70.463C86.6403 71.8342 86.7241 75.704 87.063 76.4543C87.8248 78.1531 91.1423 78.1569 92.0603 78.1645C92.9782 78.1721 95.9263 78.2635 97.0308 77.1818C97.6212 76.6067 97.7469 73.4682 97.6593 70.7067C97.6022 69.3813 97.5984 66.6427 97.5222 66.616ZM92.304 77.8446C89.3788 77.8446 88.1143 77.2351 87.6572 76.6219C87.1316 75.9135 87.0859 74.6718 87.0478 73.3044C87.0173 72.2303 87.0478 68.8671 87.0478 68.7985C88.7504 69.1413 93.2486 69.6098 97.3317 68.6614C97.3317 70.2535 97.3317 71.5295 97.3317 73.1254C97.3317 74.268 97.2594 76.2182 96.6728 76.8923C96.2119 77.4561 94.418 77.8407 92.304 77.8446Z" fill="#A6A6A6"/>
<path d="M72.4865 94.9768C71.4429 97.445 65.204 99.1209 65.204 99.1209L73.0655 44.9741C72.0705 43.3441 71.682 41.4155 71.9685 39.5274C72.498 36.4803 78.855 27.678 79.8833 27.2248C78.8221 31.7704 78.0851 36.3856 77.678 41.0357C75.9145 60.0686 73.6292 92.284 72.4865 94.9768Z" fill="#EBEBEB"/>
<path d="M73.972 35.4139C74.5396 34.5112 75.1147 33.6161 75.6784 32.7096C75.6784 32.6829 75.6517 32.6524 75.6327 32.6791C75.0652 33.4409 74.5129 34.176 73.9644 34.9339C74.1472 34.5302 74.3225 34.1227 74.4862 33.7075C74.4862 33.6618 74.4405 33.6199 74.4177 33.6694C74.1663 34.2026 73.9378 34.7435 73.713 35.2882C73.2228 35.9659 72.7897 36.6832 72.418 37.4326C71.602 38.9869 71.3579 40.7786 71.7286 42.4945C71.8448 42.973 72.0148 43.4368 72.2352 43.8772C72.3875 44.1781 72.8751 44.8294 72.8713 44.8484C72.5551 46.6233 72.3152 48.4173 72.0638 50.2037C71.8124 51.99 71.5534 53.8145 71.3439 55.6275C71.2258 56.6559 71.1497 57.6881 70.9973 58.7089C70.9973 58.747 71.0506 58.7622 71.0583 58.7089C71.1878 57.8176 71.3782 56.9377 71.5382 56.0427C71.6981 55.1476 71.8467 54.2677 71.9876 53.3765C72.2771 51.5787 72.5361 49.7771 72.7951 47.9755C72.9436 46.9547 73.1036 45.9378 73.2179 44.9284C73.0507 44.5416 72.856 44.1674 72.6351 43.8086C72.4519 43.4316 72.3027 43.039 72.1895 42.6355C71.9552 41.8181 71.8828 40.9629 71.9762 40.1178C72.1743 38.3962 73.0655 36.8612 73.972 35.4139Z" fill="#263238"/>
<path d="M79.8339 27.4228C79.2371 28.3293 78.6303 29.2269 78.0132 30.1157C77.3924 31.0031 76.7868 31.902 76.1545 32.7819V32.5724L77.678 34.1683L77.8037 34.2978L77.6704 34.4273C77.0305 35.0481 76.3792 35.6537 75.7317 36.267L75.785 36.107C76.0212 37.7562 76.2726 39.4055 76.4821 41.0585C76.6915 42.7116 76.9163 44.3684 77.0991 46.01C76.783 44.3722 76.4973 42.7306 76.2231 41.0852C75.9488 39.4398 75.6898 37.7943 75.427 36.1337V36.0423L75.4956 35.9775C76.1393 35.3605 76.7792 34.7396 77.4305 34.134V34.393L75.8993 32.8161L75.8041 32.7133L75.8841 32.6028C76.524 31.7306 77.1905 30.8736 77.838 30.009C78.4855 29.1444 79.1597 28.2722 79.8339 27.4228Z" fill="#A6A6A6"/>
<path d="M86.644 31.3193C88.3771 33.6046 96.1929 42.6811 96.688 43.481C97.0232 44.018 95.1378 46.5509 95.1645 46.909C95.3321 48.3944 98.3906 57.928 99.6551 56.8882C101.32 55.5246 108.983 46.0215 107.871 41.9308C106.759 37.84 89.3102 28.0132 86.6288 27.2171C83.9474 26.4211 84.9301 29.0835 86.644 31.3193Z" fill="#AD6359"/>
<path d="M96.4862 43.6067C96.4862 43.0277 87.345 33.2961 85.6652 30.0433C83.9855 26.7905 84.8387 26.0973 89.1275 28.1846C93.4163 30.2718 106.584 37.9162 108.145 41.7175C109.707 45.5187 101.137 55.9664 101.137 55.9664L95.1417 45.8767C95.1417 45.8767 96.4786 44.0828 96.4862 43.6067Z" fill="#EBEBEB"/>
<path d="M102.306 53.0565C100.238 49.2133 97.4841 45.4883 97.0499 44.8065C97.0271 44.7722 96.9775 44.8065 97.0004 44.8407C97.4613 45.4883 100.15 50.0894 102.253 53.0946C102.264 53.1288 102.306 53.0946 102.306 53.0565Z" fill="#263238"/>
<path d="M93.0924 39.3979C92.7115 38.9256 92.3535 38.4419 91.9498 37.9772C91.546 37.5125 91.1499 37.0402 90.7424 36.5793C89.9222 35.6423 89.0868 34.7206 88.2361 33.8141C88.2361 33.8141 88.2018 33.8141 88.2133 33.8141C88.65 34.3676 89.0931 34.9136 89.5426 35.4519C89.2607 35.2158 88.9598 34.9986 88.6551 34.7892C88.6551 34.7892 88.6284 34.7892 88.6551 34.812C88.9179 35.071 89.1922 35.3262 89.4778 35.5738L89.8968 35.9166C89.9357 35.9504 89.9764 35.9822 90.0187 36.0118C90.2015 36.2289 90.3996 36.446 90.5633 36.6593C90.9442 37.1278 91.3594 37.5963 91.7707 38.0572C92.1821 38.518 92.6316 38.9713 93.0581 39.436C93.0696 39.4588 93.1153 39.4245 93.0924 39.3979Z" fill="#263238"/>
<path d="M94.1894 59.3868C93.2982 58.625 94.7151 58.0042 94.7151 58.0042C94.7151 58.0042 92.464 58.3851 91.8508 57.2424C91.2375 56.0998 92.9934 55.4561 93.1229 55.4065C93.0049 55.4256 90.929 55.7303 90.4301 54.5115C89.9311 53.2926 91.7746 52.866 91.8965 52.8394C91.7784 52.8394 90.2168 52.5728 90.0492 51.5634C89.7635 49.8266 94.2923 50.1617 95.3816 49.2476C95.3816 49.2476 95.2026 46.9623 95.1759 46.9128C95.408 47.4414 95.8102 47.8771 96.3186 48.1507C97.2632 48.5315 98.1202 48.802 98.463 49.3162C98.6191 49.5411 98.6998 49.8098 98.6937 50.0835C98.6875 50.3573 98.5947 50.622 98.4287 50.8397C98.4287 50.8397 99.678 50.8397 100.101 51.7881C100.314 52.2719 99.7199 53.0489 99.7199 53.0489C100.003 53.0647 100.275 53.1581 100.508 53.3186C100.742 53.4792 100.926 53.7008 101.042 53.9592C101.304 54.6448 100.661 55.3189 100.661 55.3189C100.661 55.3189 101.601 55.8065 101.636 56.5949C101.75 58.2061 96.1015 61.0284 94.1894 59.3868Z" fill="#AD6359"/>
<path d="M100.615 55.4598C100.634 55.4598 100.649 55.4598 100.634 55.4865C98.9431 56.9282 96.8533 57.821 94.6427 58.0461C94.5703 58.0461 94.5322 57.9394 94.6084 57.9204C96.7191 57.3952 98.7424 56.5664 100.615 55.4598Z" fill="#263238"/>
<path d="M99.777 53.0679C99.7998 53.0679 99.8189 53.0869 99.7998 53.106C97.9187 54.6761 95.5388 55.523 93.0886 55.4941C93.0048 55.4941 92.9286 55.4027 93.0277 55.3989C94.6883 55.3418 98.0363 54.1458 99.777 53.0679Z" fill="#263238"/>
<path d="M91.7251 52.7784C94.1209 52.7784 96.2767 52.0166 98.3792 50.9235C98.4059 50.9235 98.4211 50.9502 98.4021 50.9654C97.5222 51.7843 96.1168 52.348 94.9741 52.6908C93.9259 53.0306 92.8071 53.0897 91.7289 52.8622C91.6794 52.8508 91.6718 52.7784 91.7251 52.7784Z" fill="#263238"/>
<path d="M100.76 55.338C100.977 55.1613 101.142 54.9281 101.235 54.664C101.328 54.3999 101.347 54.1152 101.289 53.8411C101.209 53.5792 101.037 53.3548 100.806 53.2088C100.521 53.0723 100.207 53.0069 99.8914 53.0184C100.092 52.7948 100.22 52.516 100.259 52.2184C100.299 51.9207 100.247 51.6182 100.112 51.3501C99.9568 51.1142 99.717 50.9466 99.442 50.8816C99.1241 50.815 98.7988 50.7906 98.4745 50.8093C98.6254 50.6699 98.7413 50.4968 98.8127 50.3043C98.8842 50.1117 98.9093 49.905 98.8859 49.7009C98.8518 49.4772 98.765 49.2648 98.6325 49.0813C98.5 48.8978 98.3258 48.7485 98.1241 48.6458C97.6516 48.4096 97.153 48.2293 96.6386 48.1088C96.3734 48.0383 96.1176 47.936 95.8769 47.8041C95.6636 47.6746 95.3627 47.4232 95.3322 47.168C95.3322 47.1147 95.2522 47.1489 95.2789 47.168C95.3826 47.3429 95.4957 47.512 95.6179 47.6746C95.7614 47.8305 95.9254 47.9663 96.1054 48.0783C96.558 48.3103 97.0264 48.5101 97.5071 48.6763C97.9275 48.8376 98.2815 49.1354 98.5126 49.5219C98.6161 49.7239 98.661 49.9508 98.6422 50.177C98.6233 50.4032 98.5415 50.6196 98.406 50.8016C98.4022 50.8063 98.3999 50.812 98.3993 50.818C98.3987 50.824 98.4 50.83 98.4028 50.8353C98.4057 50.8406 98.41 50.8449 98.4153 50.8477C98.4206 50.8506 98.4266 50.8518 98.4326 50.8512C98.7228 50.8822 99.008 50.9488 99.282 51.0492C99.5076 51.1391 99.7013 51.2942 99.8381 51.4949C99.959 51.7409 100.013 52.0146 99.994 52.2881C99.9753 52.5616 99.8847 52.8254 99.7314 53.0527C100.041 53.1144 100.337 53.2291 100.607 53.3917C100.782 53.5254 100.914 53.7065 100.988 53.9135C101.072 54.1501 101.087 54.4051 101.033 54.6501C100.979 54.895 100.858 55.12 100.684 55.2999V55.319C100.684 55.319 100.981 55.4865 100.996 55.4904C101.011 55.4942 100.996 55.4904 100.996 55.4713C100.92 55.4227 100.841 55.3782 100.76 55.338Z" fill="#263238"/>
<path d="M85.2233 27.24C85.6842 28.2189 86.1375 29.2054 86.5755 30.1957C87.0135 31.186 87.4591 32.1725 87.8781 33.1704L87.9314 33.2961L87.8172 33.3723L85.9927 34.6063L86.046 34.3511C86.5412 35.0901 87.0211 35.8404 87.5048 36.5908L87.5505 36.6631L87.5277 36.7431C87.0363 38.2667 86.564 39.7902 86.0536 41.2871C85.5433 42.784 85.0367 44.3075 84.4996 45.8082C84.911 44.2656 85.349 42.7344 85.7985 41.2071C86.2479 39.6797 86.7164 38.16 87.1811 36.6365V36.7888C86.6897 36.027 86.1984 35.3034 85.7185 34.553L85.6156 34.3968L85.768 34.2978L87.6153 33.098L87.5543 33.2999C87.1392 32.2982 86.7583 31.285 86.3545 30.2795C85.9508 29.2739 85.5966 28.2455 85.2233 27.24Z" fill="#A6A6A6"/>
<path d="M87.1659 29.1254C87.0707 26.9086 84.3093 26.3297 82.6372 26.284C80.6528 26.2307 79.373 26.5392 78.6417 28.535C77.8799 30.6413 77.6095 33.0181 77.4647 35.2462C77.4602 35.3321 77.4217 35.4126 77.3578 35.4701C77.2939 35.5276 77.2097 35.5574 77.1238 35.5529C77.038 35.5483 76.9574 35.5098 76.8999 35.4459C76.8424 35.382 76.8127 35.2978 76.8172 35.212C76.9848 32.6448 77.1105 27.8761 79.4644 26.2307C81.6354 24.7071 87.6534 25.4003 87.8134 29.1597C87.8134 29.5748 87.1811 29.5406 87.1659 29.1254Z" fill="#455A64"/>
<path d="M75.5908 36.3775C75.5761 36.6717 75.649 36.9636 75.8002 37.2164C75.9514 37.4692 76.1742 37.6714 76.4404 37.7976C76.7066 37.9237 77.0042 37.9681 77.2956 37.9251C77.587 37.8821 77.8591 37.7537 78.0775 37.5561C78.2959 37.3585 78.4508 37.1005 78.5226 36.8148C78.5944 36.5292 78.5799 36.2286 78.4809 35.9512C78.3818 35.6738 78.2028 35.432 77.9663 35.2563C77.7299 35.0807 77.4467 34.9791 77.1525 34.9644C76.7585 34.9467 76.3735 35.0853 76.0811 35.3498C75.7887 35.6144 75.6125 35.9837 75.5908 36.3775Z" fill="#263238"/>
<path d="M76.1849 36.4079C76.1762 36.5846 76.2199 36.76 76.3107 36.9118C76.4016 37.0637 76.5353 37.1852 76.6952 37.2611C76.855 37.3369 77.0338 37.3637 77.2088 37.338C77.3839 37.3123 77.5474 37.2354 77.6787 37.1168C77.8101 36.9982 77.9033 36.8434 77.9467 36.6719C77.9901 36.5003 77.9816 36.3198 77.9225 36.1531C77.8633 35.9863 77.756 35.8408 77.6142 35.735C77.4724 35.6292 77.3024 35.5678 77.1257 35.5586C77.008 35.5519 76.8902 35.5686 76.779 35.6078C76.6678 35.647 76.5655 35.7079 76.478 35.7869C76.3905 35.8659 76.3196 35.9614 76.2693 36.068C76.219 36.1746 76.1903 36.2902 76.1849 36.4079Z" fill="#EBEBEB"/>
<path d="M85.6919 36.267C84.7473 42.6316 85.1663 44.1133 85.7566 44.7684C86.1997 45.2183 86.7406 45.5598 87.3373 45.7663L87.482 45.3359C86.9578 45.1502 86.4825 44.8481 86.0918 44.4523C85.6652 43.98 85.2043 42.624 86.1375 36.3242L85.6919 36.267Z" fill="#C7C7C7"/>
<path d="M86.7927 45.2408L86.7472 45.3498C86.6573 45.5653 86.759 45.8129 86.9745 45.9028L87.6388 46.1802C87.8543 46.2701 88.1019 46.1684 88.1918 45.9529L88.2373 45.844C88.3273 45.6285 88.2255 45.3809 88.0101 45.2909L87.3458 45.0136C87.1303 44.9236 86.8827 45.0254 86.7927 45.2408Z" fill="#263238"/>
<path d="M89.7368 35.9737C91.4775 40.4987 92.0564 43.0163 91.5575 43.9C91.2627 44.3708 90.8656 44.7692 90.3958 45.0655L90.6281 45.4464C91.1638 45.1077 91.6157 44.6519 91.9498 44.1133C92.5439 43.062 92.0259 40.6548 90.1596 35.8062L89.7368 35.9737Z" fill="#C7C7C7"/>
<path d="M89.7677 45.7037L89.8359 45.8002C89.9707 45.9908 90.2345 46.0361 90.4252 45.9013L91.013 45.4857C91.2036 45.3509 91.2489 45.0871 91.1141 44.8964L91.046 44.8C90.9112 44.6094 90.6473 44.5641 90.4567 44.6989L89.8689 45.1145C89.6782 45.2492 89.6329 45.5131 89.7677 45.7037Z" fill="#263238"/>
<path d="M90.2967 35.6004C89.9774 34.5913 89.5957 33.6029 89.1541 32.6409C88.9093 32.2219 88.5568 31.8761 88.1333 31.6392C88.0457 31.6392 87.9962 30.8508 87.9695 30.2033C87.9505 29.6357 87.9352 28.9692 87.7791 28.8016C87.6913 28.7269 87.5779 28.6891 87.4629 28.6963C87.3478 28.7034 87.24 28.7548 87.162 28.8397C87.0249 29.0225 87.0897 29.6853 87.1316 30.2528C87.1811 30.9003 87.2268 31.6887 87.1316 31.6963C86.7725 31.9991 86.4905 32.3829 86.3089 32.8161C85.9835 33.8496 85.7378 34.9065 85.5737 35.9775C85.5052 36.6555 85.7299 36.7126 85.928 36.7583C86.206 36.8193 86.3584 36.6174 86.4879 35.8632C86.6935 34.6634 86.8992 32.66 87.7067 32.5762C88.518 32.5762 89.0741 34.6025 89.4588 35.7299C89.6987 36.4346 89.8397 36.4917 90.1291 36.3927C90.3044 36.3317 90.4986 36.2441 90.2967 35.6004Z" fill="#263238"/>
<path d="M84.4578 27.1029C84.3092 27.4838 82.8505 30.0395 81.0298 30.0395C79.8872 30.0395 80.1614 26.105 80.1614 26.105V25.8612L79.8948 22.4332L84.1607 20.4907L84.7701 20.2393C84.7701 20.2393 84.7701 21.1839 84.7701 22.357V22.5323C84.7701 22.6008 84.7701 22.6618 84.7701 22.7227C84.7701 22.8979 84.7701 23.0769 84.7701 23.2559C84.7701 23.435 84.7701 23.5264 84.7701 23.6673C84.7701 23.8082 84.7701 23.9492 84.7701 24.0939C84.7341 25.1028 84.6297 26.1081 84.4578 27.1029Z" fill="#AD6359"/>
<path d="M84.7625 22.3571C84.2923 23.2422 83.6352 24.0144 82.8368 24.6201C82.0383 25.2259 81.1176 25.6507 80.1386 25.865L79.8719 22.437L84.1379 20.4945L84.7473 20.2431C84.7473 20.2431 84.7587 21.1839 84.7625 22.3571Z" fill="#263238"/>
<path d="M75.5831 17.3255C75.0194 23.3397 78.5616 24.3567 79.8567 24.4747C81.0336 24.5852 85.0558 24.8023 86.2365 18.8795C87.4173 12.9567 84.7853 10.7933 82.1191 10.4048C79.4529 10.0163 76.143 11.3113 75.5831 17.3255Z" fill="#AD6359"/>
<path d="M77.5485 15.9886C77.6856 15.9722 77.8217 15.9481 77.9561 15.9163C78.1051 15.9122 78.2485 15.8586 78.3636 15.7639C78.393 15.7264 78.4089 15.6801 78.4089 15.6325C78.4089 15.5849 78.393 15.5386 78.3636 15.5011C78.2978 15.4332 78.2152 15.3841 78.1242 15.3586C78.0332 15.3332 77.937 15.3324 77.8456 15.3564C77.6521 15.3786 77.4733 15.4707 77.3428 15.6154C77.3152 15.6512 77.2986 15.6943 77.2951 15.7395C77.2916 15.7846 77.3014 15.8298 77.3233 15.8694C77.3451 15.9091 77.3781 15.9415 77.4181 15.9627C77.4581 15.9838 77.5034 15.9929 77.5485 15.9886Z" fill="#263238"/>
<path d="M81.6697 16.1486C81.5333 16.1219 81.3985 16.0876 81.266 16.0457C81.1232 16.028 80.9899 15.9653 80.8851 15.8667C80.8564 15.8289 80.8408 15.7828 80.8408 15.7353C80.8408 15.6878 80.8564 15.6417 80.8851 15.6039C80.9559 15.5406 81.0422 15.4973 81.1353 15.4786C81.2284 15.4598 81.3248 15.4663 81.4145 15.4972C81.606 15.533 81.7771 15.6389 81.8945 15.7943C81.9195 15.8312 81.9333 15.8746 81.934 15.9192C81.9347 15.9638 81.9223 16.0076 81.8984 16.0453C81.8746 16.0829 81.8402 16.1128 81.7995 16.1311C81.7589 16.1495 81.7138 16.1555 81.6697 16.1486Z" fill="#263238"/>
<path d="M80.7479 17.6417C80.7479 17.6417 80.7784 17.6417 80.7784 17.6798C80.7403 18.0873 80.7784 18.5634 81.1288 18.7234C81.1288 18.7234 81.1288 18.75 81.1288 18.7462C80.6755 18.6548 80.6489 18.0225 80.7479 17.6417Z" fill="#263238"/>
<path d="M81.1404 17.2341C81.8069 17.2341 81.7764 18.5519 81.1632 18.5596C80.55 18.5672 80.5957 17.2417 81.1404 17.2341Z" fill="#263238"/>
<path d="M81.3992 17.3103C81.5135 17.3865 81.624 17.5236 81.7801 17.5388C81.9363 17.554 82.0658 17.4245 82.161 17.2912H82.1839C82.1839 17.5464 82.0772 17.8054 81.803 17.8359C81.5287 17.8664 81.3802 17.6378 81.3231 17.3788C81.3116 17.3484 81.3573 17.2798 81.3992 17.3103Z" fill="#263238"/>
<path d="M78.2684 17.5198C78.2684 17.5198 78.2341 17.5198 78.2341 17.5579C78.2341 17.9692 78.1808 18.4415 77.8075 18.571C77.8075 18.571 77.8075 18.5977 77.8075 18.5939C78.2646 18.5367 78.3407 17.9083 78.2684 17.5198Z" fill="#263238"/>
<path d="M77.9065 17.0855C77.2438 17.0284 77.1752 18.3539 77.7885 18.4072C78.4017 18.4605 78.4588 17.1351 77.9065 17.0855Z" fill="#263238"/>
<path d="M77.6247 17.1579C77.5181 17.2227 77.4076 17.3445 77.2819 17.3483C77.1562 17.3522 77.0343 17.1998 76.9505 17.0589C76.9505 17.0589 76.9315 17.0589 76.9277 17.0589C76.9086 17.3141 76.9772 17.5807 77.2172 17.6416C77.4571 17.7026 77.598 17.4893 77.6857 17.2607C77.7009 17.1998 77.6704 17.1312 77.6247 17.1579Z" fill="#263238"/>
<path d="M80.4128 20.9135C80.3176 21.0125 80.2224 21.1458 80.0738 21.1611C79.9218 21.1613 79.7714 21.1302 79.632 21.0697C79.632 21.0697 79.6053 21.0697 79.6129 21.0697C79.6731 21.1494 79.7537 21.2114 79.8463 21.2489C79.9388 21.2865 80.0399 21.2983 80.1386 21.283C80.2233 21.2583 80.2986 21.2088 80.355 21.1409C80.4113 21.0731 80.4461 20.9899 80.4547 20.9021C80.4623 20.9059 80.428 20.8983 80.4128 20.9135Z" fill="#263238"/>
<path d="M78.7445 19.3671C78.7445 19.3671 78.6416 19.9803 78.6302 20.2698C78.6302 20.2964 78.6988 20.3117 78.7978 20.3193C79.0448 20.3724 79.3017 20.3564 79.5402 20.2731C79.7788 20.1898 79.9897 20.0423 80.15 19.847C80.1728 19.8203 80.15 19.7898 80.1119 19.8051C79.7338 20.0469 79.2872 20.1592 78.8397 20.125C78.8397 20.045 79.0568 19.0852 79.0111 19.0776C78.7856 19.0922 78.5628 19.1357 78.3484 19.2071C78.5312 17.9273 78.9159 16.6894 79.0797 15.3982C79.0797 15.3881 79.0756 15.3784 79.0685 15.3713C79.0614 15.3642 79.0517 15.3601 79.0416 15.3601C79.0315 15.3601 79.0218 15.3642 79.0146 15.3713C79.0075 15.3784 79.0035 15.3881 79.0035 15.3982C78.5494 16.7138 78.2278 18.0714 78.0437 19.4509C78.0246 19.6108 78.6302 19.4128 78.7445 19.3671Z" fill="#263238"/>
<path d="M78.9958 20.1707C79.1357 20.385 79.3286 20.5594 79.5558 20.6773C79.6748 20.7316 79.8072 20.7502 79.9366 20.7306C80.2375 20.6773 80.2642 20.4106 80.2261 20.1745C80.2085 20.0436 80.1739 19.9156 80.1233 19.7936C79.7973 20.0364 79.4023 20.1685 78.9958 20.1707Z" fill="#263238"/>
<path d="M79.5558 20.6773C79.6749 20.7317 79.8072 20.7502 79.9367 20.7307C80.2376 20.6773 80.2642 20.4107 80.2261 20.1746C80.0747 20.1731 79.927 20.2215 79.8058 20.3124C79.6846 20.4033 79.5968 20.5315 79.5558 20.6773Z" fill="#FF9CBD"/>
<path d="M75.9374 15.2002C76.6458 15.4287 79.1711 13.8595 80.1843 11.6008C80.3605 12.9164 80.991 14.129 81.9668 15.0288C83.6122 16.5523 85.1739 16.6666 85.1739 16.6666C85.1739 16.6666 85.6614 19.3861 86.1109 19.4471C86.5603 19.508 89.3903 10.1953 81.4755 10.0887C81.4755 10.0887 79.1597 9.85634 77.7123 11.2085C76.2649 12.5606 75.9374 15.2002 75.9374 15.2002Z" fill="#263238"/>
<path d="M85.2386 18.6586C85.2386 18.6586 86.5679 16.7847 87.4211 17.257C88.2742 17.7293 87.2649 20.4602 86.2555 20.8297C86.1296 20.8855 85.9937 20.9152 85.856 20.9171C85.7183 20.919 85.5817 20.893 85.4543 20.8407C85.3269 20.7884 85.2114 20.7108 85.1148 20.6127C85.0181 20.5146 84.9423 20.3979 84.892 20.2698L85.2386 18.6586Z" fill="#AD6359"/>
<path d="M87.1126 18.0339C87.1126 18.0339 87.1316 18.0339 87.1126 18.0606C86.4079 18.3425 86.0309 18.99 85.768 19.6679C85.8094 19.5975 85.8656 19.537 85.9327 19.4904C85.9997 19.4439 86.0761 19.4125 86.1565 19.3983C86.2369 19.3842 86.3195 19.3877 86.3984 19.4086C86.4773 19.4295 86.5507 19.4673 86.6136 19.5194C86.6327 19.5194 86.6136 19.5613 86.5946 19.5537C86.4707 19.5148 86.3379 19.5147 86.2139 19.5535C86.09 19.5923 85.9809 19.6682 85.9014 19.7708C85.7695 19.9433 85.6571 20.1298 85.5662 20.3269C85.5319 20.3916 85.4176 20.3573 85.4443 20.285C85.4405 19.3708 86.1489 18.1177 87.1126 18.0339Z" fill="#263238"/>
<path d="M80.1271 27.0533C79.8643 27.1905 80.249 32.0887 80.4166 32.3629C80.4775 32.4657 83.6922 29.9252 84.7625 26.6496C84.7625 26.661 82.8809 25.6288 80.1271 27.0533Z" fill="#AD6359"/>
<path d="M74.4905 36.8608L59.8271 41.4252L65.768 60.5108L80.4314 55.9465L74.4905 36.8608Z" fill="#455A64"/>
<path d="M63.974 41.3687L70.9211 39.1969L70.2631 37.0921L63.3159 39.2638L63.974 41.3687Z" fill="#A6A6A6"/>
<path d="M64.8955 38.7694L65.7525 38.5028L65.4478 37.5315L67.5274 36.8802L67.8321 37.8515L68.6853 37.5848L68.133 35.8175L64.3318 37.0059L64.8955 38.7694Z" fill="#A6A6A6"/>
<path d="M77.3314 44.1323C77.5577 44.3639 77.7077 44.6591 77.7615 44.9784C77.8153 45.2976 77.7702 45.6257 77.6323 45.9186C78.1708 46.0301 78.6532 46.3266 78.9959 46.7566C79.5634 47.5412 78.5807 48.7791 78.5807 48.7791C79.1158 49.0106 79.5685 49.3982 79.8796 49.8913C80.348 50.6949 79.5368 52.0852 79.5368 52.0852C79.91 52.5701 80.0965 53.173 80.0624 53.7839C79.9062 55.4103 77.6704 56.5225 76.2535 57.2462C74.8366 57.9699 70.1593 58.6974 69.2795 58.9259L64.5603 49.8951C64.5603 49.8951 69.9765 44.8522 71.7591 44.2389C73.2636 43.7209 76.4325 43.2791 77.3314 44.1323Z" fill="#AD6359"/>
<path d="M65.204 49.3085C63.5891 50.5502 58.7289 55.3303 59.8716 57.7642C61.0143 60.1981 64.9145 59.9543 70.3117 58.7164L65.204 49.3085Z" fill="#AD6359"/>
<path d="M65.204 49.3085C63.589 50.5502 58.4851 55.2161 59.7763 58.3432C60.8047 60.8265 65.3906 61.1274 70.803 59.8667L65.204 49.3085Z" fill="#EBEBEB"/>
<path d="M68.0263 59.9696C66.3352 55.9512 63.9432 51.971 63.5776 51.2587C63.5764 51.2541 63.5742 51.2498 63.571 51.2462C63.5679 51.2426 63.564 51.2397 63.5595 51.2379C63.5551 51.2361 63.5503 51.2354 63.5455 51.2358C63.5408 51.2362 63.5361 51.2377 63.5321 51.2402C63.528 51.2427 63.5246 51.2461 63.5221 51.2502C63.5196 51.2543 63.5181 51.2589 63.5177 51.2637C63.5173 51.2684 63.518 51.2732 63.5198 51.2777C63.5216 51.2821 63.5245 51.286 63.5281 51.2892C63.909 51.9786 66.16 56.812 67.9692 60.0077C67.9844 60.0419 68.0263 60.0115 68.0263 59.9696Z" fill="#263238"/>
<path d="M77.4914 45.8082C75.766 45.972 74.1815 46.6424 72.5627 47.2213C72.5557 47.2238 72.5499 47.2291 72.5467 47.2359C72.5435 47.2426 72.5431 47.2504 72.5456 47.2575C72.5481 47.2646 72.5534 47.2703 72.5601 47.2736C72.5669 47.2768 72.5747 47.2772 72.5818 47.2746C74.1853 46.6843 75.8879 46.4138 77.5104 45.8882C77.5193 45.8842 77.5264 45.8772 77.5307 45.8685C77.535 45.8598 77.5361 45.8498 77.5338 45.8404C77.5316 45.8309 77.5261 45.8226 77.5184 45.8167C77.5106 45.8108 77.5011 45.8078 77.4914 45.8082Z" fill="#263238"/>
<path d="M78.4931 48.6763C78.1035 48.7535 77.7257 48.8815 77.3695 49.0572C76.9886 49.221 76.6077 49.3848 76.2268 49.56C75.465 49.9066 74.7033 50.2684 73.9605 50.6569C73.9263 50.6569 73.9605 50.7293 73.9605 50.7102C74.7223 50.3674 75.4841 50.0361 76.2687 49.7238C76.6496 49.5676 77.0305 49.4152 77.438 49.2667C77.8157 49.1467 78.1795 48.9871 78.5236 48.7906C78.5387 48.7865 78.5516 48.7766 78.5595 48.7631C78.5674 48.7495 78.5695 48.7334 78.5655 48.7182C78.5614 48.7031 78.5515 48.6901 78.538 48.6823C78.5244 48.6744 78.5082 48.6723 78.4931 48.6763Z" fill="#263238"/>
<path d="M79.5025 52.0966C79.1531 52.1662 78.8182 52.295 78.5122 52.4775L77.4724 52.9651C76.7792 53.2888 76.086 53.6088 75.3813 53.9097C75.347 53.9097 75.3813 53.9782 75.4004 53.963C76.1202 53.6659 76.8401 53.3764 77.5562 53.0717L78.6074 52.6147C78.9388 52.5028 79.2482 52.3339 79.5215 52.1157C79.5215 52.1157 79.5215 52.0966 79.5025 52.0966Z" fill="#263238"/>
<path d="M64.9792 49.3924C64.4129 49.8096 63.8759 50.2652 63.3719 50.7559L62.991 51.1368L62.8272 51.2435C62.5987 51.3958 62.3702 51.552 62.1569 51.7234C61.7433 52.0601 61.3515 52.4227 60.9837 52.8089C60.9571 52.8394 60.9837 52.8775 61.0295 52.8508C61.4316 52.4886 61.8607 52.1575 62.313 51.8605L62.4883 51.7424C62.275 51.9748 62.0693 52.2147 61.8788 52.4623C61.3652 53.1198 60.892 53.8079 60.4619 54.5229C60.4429 54.5572 60.4962 54.5838 60.5153 54.5496C61.3037 53.285 64.7393 49.9027 65.1164 49.4952C65.4934 49.0876 65.2763 49.16 64.9792 49.3924Z" fill="#263238"/>
<path d="M117.542 21.5001C115.127 24.7285 112.048 27.4004 108.511 29.3349C104.977 27.399 101.9 24.7272 99.4876 21.5001C96.311 17.3103 96.4671 10.7096 101.011 9.28504C106.054 7.71198 108.522 15.2954 108.522 15.2954C108.522 15.2954 111.032 7.6777 116.026 9.30408C120.558 10.7591 120.73 17.2951 117.542 21.5001Z" fill="#92E3A9"/>
<path d="M104.976 26.0098L103.609 20.3041L102.714 22.3152H97.1755V21.6715H102.295L103.788 18.3082L104.858 22.757L106.37 13.5396L107.703 20.8297L108.758 17.7864L110.419 22.7684L110.788 21.6677H119.88V22.3114H111.249L110.419 24.8024L108.747 19.7861L107.509 23.3588L106.404 17.3103L104.976 26.0098Z" fill="white"/>
<path d="M146.15 118.485V124.32H143.819V120.999H135.74V124.32H133.409V118.485H146.15Z" fill="#92E3A9"/>
<path opacity="0.1" d="M135.74 121.753H133.409V124.32H135.74V121.753Z" fill="black"/>
<path opacity="0.1" d="M146.15 121.753H143.819V124.32H146.15V121.753Z" fill="black"/>
<path d="M157.059 144.648H122.508L124.413 123.037H155.154L157.059 144.648Z" fill="#92E3A9"/>
<path opacity="0.1" d="M139.785 144.648H122.508L124.413 123.037H139.785V144.648Z" fill="black"/>
<path d="M145.102 132.586V135.099H141.042V139.16H138.528V135.099H134.468V132.586H138.528V128.525H141.042V132.586H145.102Z" fill="#FFFFFD"/>
</svg>
