<svg width="16" height="17" viewBox="0 0 16 17" fill="none" xmlns="http://www.w3.org/2000/svg">
<path fill-rule="evenodd" clip-rule="evenodd" d="M7.99995 0.440002C5.88195 0.440002 5.61615 0.449302 4.78395 0.488362C3.95355 0.527422 3.38655 0.663823 2.89035 0.862843C2.36998 1.06536 1.89862 1.38274 1.50915 1.79284C1.11221 2.19548 0.805062 2.68276 0.609151 3.2207C0.416551 3.73282 0.285151 4.31872 0.246751 5.1768C0.208951 6.03674 0.199951 6.3114 0.199951 8.5C0.199951 10.6886 0.208951 10.9633 0.246751 11.8232C0.284551 12.6813 0.416551 13.2672 0.609151 13.7793C0.808951 14.3094 1.07535 14.7589 1.50915 15.2072C1.89862 15.6173 2.36998 15.9346 2.89035 16.1372C3.38655 16.3356 3.95355 16.472 4.78395 16.5116C5.61615 16.5507 5.88195 16.56 7.99995 16.56C10.118 16.56 10.3838 16.5507 11.216 16.5116C12.0464 16.4726 12.6134 16.3362 13.109 16.1372C13.6295 15.9347 14.1011 15.6174 14.4908 15.2072C14.8877 14.8045 15.1948 14.3172 15.3908 13.7793C15.5828 13.2672 15.7148 12.6813 15.7532 11.8232C15.791 10.9633 15.8 10.6886 15.8 8.5C15.8 6.3114 15.791 6.03674 15.7532 5.1768C15.7154 4.31872 15.5834 3.73282 15.3902 3.2207C15.1944 2.68282 14.8875 2.19554 14.4908 1.79284C14.1011 1.38265 13.6295 1.06527 13.109 0.862843C12.6134 0.664443 12.0464 0.528042 11.216 0.488362C10.3838 0.449302 10.118 0.440002 7.99995 0.440002ZM7.99995 1.89204C10.0826 1.89204 10.3292 1.90072 11.1518 1.93916C11.912 1.97512 12.3254 2.10656 12.6002 2.21692C12.9644 2.36324 13.2241 2.53746 13.4971 2.81956C13.7701 3.10166 13.9387 3.37012 14.0803 3.74646C14.1871 4.03042 14.3144 4.45698 14.3492 5.24314C14.3864 6.09254 14.3948 6.34798 14.3948 8.5C14.3948 10.652 14.3864 10.9068 14.3492 11.7569C14.3144 12.543 14.1871 12.9696 14.0803 13.2535C13.9554 13.6037 13.7561 13.9204 13.4971 14.1804C13.2455 14.4481 12.939 14.654 12.6002 14.7831C12.3254 14.8934 11.912 15.0249 11.1518 15.0608C10.3298 15.0993 10.0826 15.108 7.99995 15.108C5.91735 15.108 5.67015 15.0993 4.84815 15.0608C4.08735 15.0249 3.67455 14.8934 3.39975 14.7831C3.06093 14.654 2.75441 14.4481 2.50275 14.1804C2.24381 13.9204 2.04453 13.6036 1.91955 13.2535C1.81275 12.9696 1.68555 12.543 1.65075 11.7569C1.61355 10.9075 1.60515 10.652 1.60515 8.5C1.60515 6.34798 1.61355 6.09316 1.65075 5.24314C1.68555 4.45698 1.81275 4.03042 1.91955 3.74646C2.06115 3.37012 2.22975 3.10166 2.50275 2.81956C2.75443 2.55196 3.06094 2.34603 3.39975 2.21692C3.67455 2.10656 4.08735 1.97512 4.84815 1.93916C5.67015 1.90072 5.91735 1.89204 7.99995 1.89204Z" fill="white"/>
<path fill-rule="evenodd" clip-rule="evenodd" d="M7.99993 4.15998C6.88602 4.15998 5.81773 4.61723 5.03008 5.43114C4.24243 6.24505 3.79993 7.34894 3.79993 8.49998C3.79993 9.65102 4.24243 10.7549 5.03008 11.5688C5.81773 12.3827 6.88602 12.84 7.99993 12.84C9.11384 12.84 10.1821 12.3827 10.9698 11.5688C11.7574 10.7549 12.1999 9.65102 12.1999 8.49998C12.1999 7.34894 11.7574 6.24505 10.9698 5.43114C10.1821 4.61723 9.11384 4.15998 7.99993 4.15998ZM7.99993 11.29C7.28384 11.29 6.59709 10.996 6.09074 10.4728C5.58439 9.94958 5.29993 9.23993 5.29993 8.49998C5.29993 7.76003 5.58439 7.05038 6.09074 6.52715C6.59709 6.00393 7.28384 5.70998 7.99993 5.70998C8.71601 5.70998 9.40277 6.00393 9.90911 6.52715C10.4155 7.05038 10.6999 7.76003 10.6999 8.49998C10.6999 9.23993 10.4155 9.94958 9.90911 10.4728C9.40277 10.996 8.71601 11.29 7.99993 11.29ZM13.2199 4.22198C13.2199 4.35225 13.1951 4.48125 13.1469 4.6016C13.0986 4.72196 13.0279 4.83131 12.9387 4.92343C12.8496 5.01555 12.7438 5.08862 12.6273 5.13847C12.5108 5.18832 12.386 5.21398 12.2599 5.21398C12.1339 5.21398 12.009 5.18832 11.8925 5.13847C11.7761 5.08862 11.6702 5.01555 11.5811 4.92343C11.492 4.83131 11.4212 4.72196 11.373 4.6016C11.3248 4.48125 11.2999 4.35225 11.2999 4.22198C11.2999 3.95889 11.4011 3.70657 11.5811 3.52053C11.7611 3.33449 12.0053 3.22998 12.2599 3.22998C12.5145 3.22998 12.7587 3.33449 12.9387 3.52053C13.1188 3.70657 13.2199 3.95889 13.2199 4.22198Z" fill="white"/>
</svg>
