<svg width="170" height="170" viewBox="0 0 170 170" fill="none" xmlns="http://www.w3.org/2000/svg">
<path d="M2.16724 66.963C2.69676 67.3712 15.602 81.201 15.602 81.201L16.5816 75.3689L29.0217 84.7547L13.8924 67.1613L12.962 73.5999L2.16724 66.963Z" fill="#F5F5F5"/>
<path d="M157.651 102.294C157.333 102.294 148.626 100.186 148.626 100.186L149.723 102.803L142.34 102.368L152.893 105.365L151.625 102.527L157.651 102.294Z" fill="#EBEBEB"/>
<path d="M23.2499 95.0463C22.9322 95.023 14.2253 92.9312 14.2253 92.9312L15.3184 95.5479L7.9353 95.1085L18.488 98.114L17.2247 95.2952L23.2499 95.0463Z" fill="#EBEBEB"/>
<path d="M142.832 157.142C142.453 156.94 132.998 149.611 132.998 149.611L132.96 153.375L124.26 148.771L135.46 158.231L135.414 154.098L142.832 157.142Z" fill="#EBEBEB"/>
<path d="M162.443 71.5781C161.838 71.8852 143.717 77.5112 143.717 77.5112L148.414 81.1194L134.42 88.3356L156.864 82.3752L151.625 78.5416L162.443 71.5781Z" fill="#F5F5F5"/>
<path d="M32.8985 141.687C32.2934 141.994 14.1723 147.617 14.1723 147.617L18.8699 151.225L4.87537 158.441L27.3234 152.492L22.0849 148.659L32.8985 141.687Z" fill="#F5F5F5"/>
<path d="M113.746 40.9092C113.572 41.3213 106.854 51.9163 106.854 51.9163L110.659 51.6869L106.639 61.2981L115.376 48.6775L111.215 49.0274L113.746 40.9092Z" fill="#EBEBEB"/>
<path d="M137.222 58.4287C137.556 58.3127 137.86 58.1214 138.113 57.8688C138.365 57.6162 138.559 57.3088 138.681 56.969C138.803 56.6292 138.849 56.2657 138.816 55.9052C138.783 55.5447 138.673 55.1963 138.492 54.8855C138.311 54.5747 138.065 54.3095 137.772 54.1092C137.478 53.9089 137.145 53.7787 136.796 53.7282C136.447 53.6776 136.092 53.7079 135.756 53.8169C135.42 53.9258 135.112 54.1107 134.855 54.358C134.197 52.7172 133.541 51.0765 132.888 49.4357L130.997 51.1231L131.496 53.0866C131.088 53.153 130.702 53.3249 130.376 53.5861C130.05 53.8473 129.794 54.1894 129.631 54.5802C129.469 54.971 129.405 55.3978 129.447 55.8207C129.489 56.2435 129.634 56.6486 129.87 56.9979C128.5 57.0329 127.006 57.3595 126.159 58.4715C125.773 59.0355 125.566 59.7084 125.566 60.398C125.566 61.0877 125.773 61.7605 126.159 62.3246C126.559 62.8789 127.08 63.3293 127.679 63.6399C128.279 63.9504 128.941 64.1125 129.612 64.1131C130.961 64.0995 132.27 63.6507 133.357 62.83C133.632 63.1242 133.963 63.3571 134.33 63.5143C134.696 63.6714 135.09 63.7494 135.487 63.7435C135.884 63.7376 136.276 63.6478 136.638 63.4798C137 63.3117 137.324 63.069 137.591 62.7667C137.858 62.4644 138.061 62.1089 138.189 61.7224C138.316 61.3359 138.365 60.9265 138.332 60.5197C138.3 60.1129 138.186 59.7174 137.998 59.3577C137.811 58.998 137.553 58.6818 137.241 58.4287H137.222Z" fill="#F5F5F5"/>
<path d="M154.318 5.01092C153.713 3.77841 152.961 2.53812 151.777 1.90048C150.593 1.26285 148.887 1.41837 148.195 2.60422C147.48 0.776839 145.377 -0.187395 143.475 0.0303351C141.572 0.248065 139.889 1.43392 138.558 2.86472C137.918 3.56068 137.321 4.36939 137.203 5.32196C137.144 5.8482 137.266 6.3792 137.548 6.82275C137.113 6.68724 136.65 6.68067 136.211 6.80379C135.773 6.92691 135.378 7.17472 135.07 7.51871C134.208 8.56459 134.314 10.2403 135.07 11.3368C135.483 11.8773 135.997 12.3276 136.582 12.6614C137.166 12.9952 137.81 13.2058 138.474 13.2808C139.102 13.378 139.764 13.3974 140.309 13.7318C140.659 13.9807 140.941 14.3176 141.128 14.7103C141.315 15.103 141.402 15.5384 141.379 15.9752C141.379 16.8461 141.243 19.8205 141.319 20.7419H144.681C144.866 19.4356 145.71 16.3873 145.816 15.2987C146.249 15.6643 146.773 15.9 147.328 15.98C147.883 16.0601 148.449 15.9813 148.964 15.7523C149.479 15.5233 149.922 15.153 150.245 14.6821C150.569 14.2111 150.76 13.6577 150.797 13.0825C150.831 12.5032 150.797 11.7683 151.308 11.5273C151.637 11.3718 152.019 11.5273 152.378 11.5934C153.744 11.8344 155.007 10.5125 155.226 9.10892C155.446 7.70533 154.946 6.28231 154.318 5.01092Z" fill="#F5F5F5"/>
<path d="M141.254 18.0592C141.254 18.0592 139.862 25.5242 140.358 27.8765C140.853 30.2288 141.95 30.2288 141.95 30.2288C141.95 30.2288 142.049 31.5079 142.397 33.3975C142.745 35.2871 143.739 35.9559 143.153 38.452C143.153 38.452 138.773 37.3789 137.185 40.8548C135.596 44.3307 135.74 48.0632 137.778 50.1083C139.817 52.1534 143.047 56.127 150.313 53.8408C156.705 51.8307 159.905 46.924 160.903 40.8664C161.902 34.9216 158.948 22.8065 146.466 25.4154C146.466 25.4154 144.825 25.567 145.124 23.4713C145.422 21.3757 145.517 17.7015 145.517 17.7015L141.254 18.0592Z" fill="#EBEBEB"/>
<path d="M137.767 40.9248C136.626 40.3249 135.405 39.9018 134.144 39.6689C132.933 39.459 129.488 40.2949 129.158 43.973C128.829 47.6511 130.429 52.8222 130.429 52.8222L134.238 51.7491C133.781 49.8867 133.452 47.9938 133.251 46.0842C133.111 43.9613 134.465 44.0196 135.554 44.5057C137.389 45.326 137.158 46.6208 137.158 46.6208L137.767 40.9248Z" fill="#EBEBEB"/>
<path d="M144.121 26.8267C143.957 27.0054 143.783 27.1741 143.599 27.3322C142.779 28.1577 142.253 29.2443 142.109 30.4154C142.101 30.6618 142.075 30.9074 142.034 31.1502C141.966 30.9079 141.945 30.6542 141.973 30.4037C142.006 29.7951 142.159 29.1997 142.423 28.6541C142.687 28.1085 143.055 27.6231 143.505 27.2272C143.683 27.0533 143.892 26.9172 144.121 26.8267Z" fill="#E0E0E0"/>
<path d="M147.62 42.0562C146.395 40.4595 144.76 39.2473 142.9 38.5569C143.192 38.5845 143.478 38.6606 143.747 38.7824C144.412 39.0351 145.041 39.3805 145.615 39.8089C146.189 40.236 146.705 40.7408 147.147 41.3097C147.342 41.5314 147.502 41.7833 147.62 42.0562Z" fill="#E0E0E0"/>
<path d="M136.035 44.7506C135.953 44.5003 135.92 44.2363 135.936 43.973C135.944 42.6648 136.41 41.4033 137.249 40.4193C137.407 40.2053 137.605 40.0256 137.831 39.8905C137.265 40.5646 136.804 41.3254 136.466 42.1456C136.191 42.9855 136.046 43.8645 136.035 44.7506Z" fill="#E0E0E0"/>
<path d="M132.827 17.0755C132.53 16.7072 132.118 16.4555 131.66 16.3628C131.203 16.2701 130.729 16.342 130.318 16.5666C129.906 16.7911 129.582 17.1545 129.401 17.5955C129.219 18.0366 129.191 18.5285 129.321 18.9884C129.017 19.0139 128.724 19.119 128.47 19.2936C128.216 19.4682 128.01 19.7065 127.871 19.986C127.732 20.2656 127.664 20.577 127.675 20.8907C127.686 21.2045 127.775 21.5102 127.933 21.7789C128.091 22.0475 128.313 22.2702 128.578 22.4259C128.843 22.5815 129.143 22.6649 129.448 22.6681C129.754 22.6713 130.055 22.5943 130.323 22.4443C130.592 22.2944 130.818 22.0764 130.982 21.8111C131.032 22.1238 131.154 22.4196 131.338 22.674C131.521 22.9284 131.761 23.1341 132.038 23.2739C132.315 23.4136 132.62 23.4835 132.928 23.4777C133.236 23.4719 133.539 23.3905 133.81 23.2404C134.081 23.0902 134.314 22.8756 134.489 22.6144C134.663 22.3533 134.774 22.053 134.813 21.7387C134.852 21.4244 134.818 21.105 134.712 20.8072C134.607 20.5094 134.434 20.2418 134.208 20.0265C134.455 19.9917 134.691 19.8977 134.896 19.752C135.101 19.6064 135.27 19.4133 135.39 19.1882C135.509 18.9631 135.575 18.7123 135.583 18.4561C135.591 18.1999 135.54 17.9453 135.435 17.713C135.329 17.4807 135.172 17.277 134.976 17.1185C134.78 16.96 134.551 16.851 134.306 16.8003C134.062 16.7496 133.809 16.7587 133.569 16.8267C133.328 16.8948 133.107 17.02 132.922 17.1922" fill="#F5F5F5"/>
<path d="M144.189 58.2266C143.91 58.3303 143.679 58.5396 143.545 58.8119C143.41 59.0842 143.381 59.399 143.464 59.6923C143.547 59.9857 143.736 60.2355 143.992 60.3909C144.247 60.5463 144.551 60.5957 144.841 60.529C145.131 60.4623 145.386 60.2846 145.553 60.0319C145.72 59.7792 145.787 59.4706 145.741 59.1689C145.694 58.8671 145.538 58.5949 145.303 58.4076C145.068 58.2202 144.773 58.1319 144.477 58.1605" fill="#F5F5F5"/>
<path d="M128.973 10.3181C128.694 10.4218 128.463 10.6311 128.328 10.9034C128.194 11.1757 128.165 11.4906 128.248 11.7839C128.331 12.0772 128.52 12.327 128.775 12.4824C129.031 12.6379 129.335 12.6873 129.625 12.6206C129.915 12.5539 130.17 12.3761 130.337 12.1235C130.504 11.8708 130.571 11.5622 130.524 11.2604C130.478 10.9587 130.321 10.6864 130.087 10.4991C129.852 10.3118 129.557 10.2234 129.261 10.252" fill="#F5F5F5"/>
<path d="M137.88 47.5111C137.88 47.5111 137.794 47.4178 137.68 47.2156C137.524 46.9321 137.397 46.6324 137.302 46.3214C136.966 45.2843 136.945 44.167 137.241 43.1173C137.537 42.0675 138.136 41.1349 138.958 40.4427C139.202 40.2313 139.467 40.0475 139.749 39.8944C139.847 39.8294 139.956 39.7833 140.07 39.7584C140.089 39.7895 139.635 40.0072 139.049 40.536C138.278 41.2347 137.717 42.1449 137.431 43.1599C137.144 44.1749 137.146 45.2527 137.434 46.2669C137.642 47.0601 137.915 47.4917 137.88 47.5111Z" fill="white"/>
<path d="M144.095 33.6425C143.899 33.4623 143.743 33.2409 143.637 32.9932C143.35 32.4099 143.196 31.7667 143.188 31.1129C143.18 30.4591 143.318 29.8121 143.592 29.2218C143.691 28.9722 143.841 28.747 144.031 28.5608C143.938 28.806 143.833 29.046 143.717 29.2801C143.489 29.8615 143.376 30.4835 143.384 31.1102C143.392 31.7368 143.52 32.3557 143.762 32.931C143.951 33.3742 144.121 33.623 144.095 33.6425Z" fill="white"/>
<path d="M141.262 24.976C141.134 24.2981 141.145 23.6001 141.296 22.927C141.384 22.2386 141.611 21.5766 141.962 20.983C142.018 21.0063 141.682 21.8539 141.493 22.9503C141.304 24.0468 141.322 24.9721 141.262 24.976Z" fill="white"/>
<path d="M129.979 45.8393C129.825 45.2018 129.831 44.5343 129.998 43.9002C130.165 43.266 130.487 42.6862 130.932 42.2156C130.628 42.7696 130.375 43.3514 130.176 43.9535C130.052 44.5743 129.987 45.2057 129.979 45.8393Z" fill="white"/>
<path d="M170 169.798C170 169.911 131.942 170 85.0038 170C38.0652 170 0 169.911 0 169.798C0 169.685 38.0501 169.596 85.0038 169.596C131.957 169.596 170 169.685 170 169.798Z" fill="#263238"/>
<path d="M30.8221 13.238L22.7468 4.64157L20.7384 18.2381L9.91722 17.8609L16.6876 27.0017L9.87561 36.193L21.1583 33.9069L22.7884 45.5749L31.9114 38.4714L43.4134 44.6651L40.8944 32.721L53.9434 30.6059L43.7954 24.4511L49.711 13.9612L39.5668 18.0359L38.3338 5.09647L30.8221 13.238Z" fill="white"/>
<path d="M30.8221 13.2575C30.8221 13.2575 30.9885 13.0669 31.3138 12.7092L32.7624 11.1268L38.2997 5.08479L38.3716 5.01092V5.11201C38.712 8.61125 39.1281 12.997 39.6235 18.0514L39.5365 17.9931L49.6769 13.9068L49.8774 13.8251L49.7677 14.0195C47.9446 17.2621 45.9551 20.7925 43.8597 24.5172L43.8295 24.4006C47.0596 26.3446 50.4599 28.413 53.9812 30.5515L54.2006 30.6837L53.951 30.7225L40.902 32.8415L40.9814 32.721C41.7832 36.5274 42.6343 40.5554 43.5004 44.6651L43.5458 44.875L43.3605 44.7778L33.3941 39.4123L31.8584 38.5881H31.9606L22.849 45.6565L22.7166 45.7576L22.6939 45.5904C22.1392 41.6142 21.5958 37.7262 21.0637 33.9263L21.1772 34.0079L9.89454 36.2902L9.65625 36.3369L9.80376 36.1425L16.6119 26.955V27.06L9.85671 17.9231L9.75837 17.7909H9.92101L20.7384 18.1797L20.6704 18.238C21.4571 12.8687 22.1492 8.32353 22.6977 4.63378V4.54047L22.762 4.61045L28.7569 11.0102L30.2964 12.6665C30.6443 13.0553 30.8221 13.238 30.8221 13.238C30.8221 13.238 30.6443 13.0592 30.2964 12.6937L28.7456 11.0607L22.6939 4.67655L22.7733 4.64933C22.2325 8.33908 21.5668 12.8959 20.7838 18.2575V18.3158H20.7233L9.90588 17.9503L9.9664 17.822L16.7443 26.9589L16.7859 27.0095L16.7443 27.0639L9.93614 36.2591L9.84537 36.1114L21.128 33.8174H21.2264V33.9224C21.7559 37.7171 22.3005 41.6052 22.8603 45.5865L22.7052 45.5204L31.8244 38.417L31.8736 38.3781L31.9303 38.4053L33.4659 39.2335L43.4323 44.599L43.2886 44.7078C42.4262 40.5982 41.5752 36.5702 40.7734 32.7638V32.6627H40.8717L53.9207 30.5554L53.8904 30.7264L43.7501 24.5328L43.6782 24.49L43.7198 24.4161L49.6467 13.9184L49.7375 14.0273L39.6122 18.0981L39.529 18.1292V18.0436C39.0562 12.9892 38.6439 8.61513 38.3149 5.10034L38.3943 5.13145L32.7965 11.154L31.3441 12.7092C30.9885 13.0669 30.8221 13.2575 30.8221 13.2575Z" fill="#263238"/>
<path d="M54.3632 38.4403C56.3262 41.092 53.41 44.0896 50.8305 42.0718C48.8448 39.4162 51.7609 36.4185 54.3632 38.4403Z" fill="white"/>
<path d="M54.3632 38.4403C54.1821 38.3559 54.0075 38.2571 53.8413 38.1448C53.3594 37.9065 52.8217 37.8135 52.2905 37.8765L52.0371 37.9193L51.7875 38.0126C51.6111 38.0821 51.4425 38.1707 51.2844 38.277C50.9481 38.5303 50.6768 38.8639 50.4939 39.249C50.3109 39.6818 50.2481 40.1582 50.3124 40.6254C50.4064 41.1257 50.6094 41.5975 50.9062 42.0056C51.3003 42.3028 51.7538 42.506 52.2338 42.6005C52.688 42.666 53.1509 42.6028 53.5727 42.4178C53.9473 42.2297 54.2718 41.9508 54.5183 41.6052C54.624 41.4441 54.7104 41.2705 54.7755 41.0881C54.8058 40.9986 54.8398 40.9131 54.8663 40.8276C54.8928 40.742 54.8928 40.6526 54.9079 40.5671C54.9697 40.0223 54.8792 39.4706 54.6469 38.9769C54.5406 38.8049 54.4458 38.6256 54.3632 38.4403C54.3632 38.4403 54.4011 38.4753 54.4616 38.5608C54.5221 38.6464 54.6129 38.7708 54.715 38.9496C54.9845 39.4523 55.1005 40.0268 55.0478 40.5982C55.0478 40.6876 55.0214 40.7809 55.0062 40.8742C54.9911 40.9675 54.9495 41.057 54.9192 41.1542C54.8518 41.3492 54.763 41.5358 54.6545 41.7102C54.3969 42.0863 54.0525 42.3909 53.6522 42.5966C53.198 42.8051 52.696 42.8778 52.2035 42.8066L51.8253 42.721C51.6961 42.6808 51.5697 42.6314 51.4471 42.5733L51.2655 42.4955L51.0953 42.3867L50.9289 42.2739L50.8419 42.2195L50.8003 42.1884H50.7776C50.4593 41.7529 50.2443 41.2469 50.1497 40.7109C50.074 40.2297 50.1347 39.7362 50.3245 39.2894C50.5143 38.8426 50.8252 38.4615 51.2201 38.1915C51.3898 38.0799 51.5712 37.9886 51.761 37.9193C51.8518 37.8882 51.9426 37.8532 52.0295 37.8299L52.2981 37.791C52.8536 37.735 53.4126 37.8529 53.9018 38.1293C54.0682 38.2381 54.1892 38.3314 54.28 38.3937C54.3708 38.4559 54.3632 38.4325 54.3632 38.4403Z" fill="#263238"/>
<path d="M32.8041 18.4908L32.2935 27.2777C32.2729 27.6249 32.1298 27.9524 31.8909 28.1987C31.652 28.445 31.3338 28.5931 30.9961 28.6152C30.6411 28.6375 30.2913 28.5188 30.019 28.2837C29.7466 28.0485 29.5724 27.7149 29.5324 27.3516L28.5527 18.5258C28.535 18.3682 28.5501 18.2085 28.5971 18.0574C28.6442 17.9063 28.722 17.7672 28.8254 17.6494C28.9289 17.5317 29.0556 17.438 29.197 17.3746C29.3385 17.3111 29.4915 17.2794 29.6458 17.2816L31.7299 17.3049C31.8776 17.3056 32.0235 17.3374 32.1588 17.3984C32.2941 17.4593 32.4158 17.548 32.5164 17.6591C32.617 17.7702 32.6945 17.9013 32.7439 18.0443C32.7934 18.1874 32.8139 18.3393 32.8041 18.4908Z" fill="#92E3A9"/>
<path d="M28.7381 33.5647C28.8706 33.9654 29.1157 34.3167 29.4423 34.5744C29.7689 34.8321 30.1625 34.9845 30.5733 35.0125C30.9841 35.0405 31.3938 34.9428 31.7506 34.7317C32.1075 34.5206 32.3955 34.2056 32.5784 33.8264C32.7612 33.4472 32.8307 33.0208 32.7781 32.6011C32.7255 32.1813 32.5531 31.787 32.2827 31.4679C32.0122 31.1487 31.6559 30.9191 31.2587 30.8079C30.8614 30.6967 30.441 30.7089 30.0505 30.8431C29.7901 30.9326 29.5494 31.0741 29.3423 31.2595C29.1353 31.4449 28.9659 31.6705 28.8439 31.9234C28.7219 32.1763 28.6498 32.4515 28.6316 32.7332C28.6135 33.0149 28.6496 33.2975 28.7381 33.5647Z" fill="#92E3A9"/>
<path d="M89.1227 4.14778C88.7403 3.33295 88.1211 2.66036 87.3507 2.22296C86.5803 1.78555 85.6968 1.60494 84.8222 1.70609C83.8261 0.85367 82.5812 0.368384 81.2857 0.327517C79.9902 0.28665 78.7187 0.692553 77.6736 1.48058C76.9291 0.973692 76.0694 0.673978 75.1785 0.610715C74.2877 0.547451 73.3961 0.722802 72.5908 1.11964C71.7856 1.51647 71.0942 2.12122 70.5843 2.87481C70.0744 3.6284 69.7634 4.50507 69.6816 5.41917C68.7943 5.22715 67.8707 5.32731 67.0419 5.70543C66.2131 6.08354 65.5212 6.7204 65.0644 7.52561C64.6077 8.33081 64.4093 9.26346 64.4973 10.1912C64.5854 11.1188 64.9555 11.9945 65.5551 12.6937C64.5856 12.9922 63.7552 13.6438 63.2194 14.5263C62.6835 15.4089 62.479 16.462 62.6441 17.4884C62.8092 18.5148 63.3326 19.4441 64.1163 20.1024C64.9 20.7607 65.8902 21.1028 66.9016 21.0647L88.109 9.08948C88.7547 8.47491 89.199 7.66951 89.3806 6.78439C89.5622 5.89926 89.472 4.97803 89.1227 4.14778Z" fill="#263238"/>
<path d="M66.27 21.6323C66.8426 17.1234 69.0463 13.0017 72.4423 10.0879C75.8383 7.17414 80.1773 5.68215 84.5953 5.90906L85.5068 5.95571C95.2917 7.04437 99.8796 16.2007 98.5293 26.2241L95.9271 64.2258L101.525 66.9474L84.5839 79.6574L65.1391 65.5361L72.7529 62.9622L72.889 56.3292C72.889 56.3292 63.524 54.3385 63.8758 44.634C64.046 39.9489 65.1617 30.326 66.27 21.6323Z" fill="#FFBF9D"/>
<path d="M72.8966 56.3292C72.8966 56.3292 78.8273 56.9902 85.3782 53.2188C85.3782 53.2188 82.2313 60.3572 72.8625 59.0042L72.8966 56.3292Z" fill="#FF9A6C"/>
<path d="M70.1506 31.2513C70.1296 31.6121 70.2462 31.967 70.4758 32.2408C70.7053 32.5145 71.0297 32.6854 71.3799 32.7171C71.5497 32.7399 71.7223 32.7277 71.8875 32.6812C72.0527 32.6347 72.2073 32.5548 72.3421 32.4462C72.477 32.3376 72.5895 32.2025 72.673 32.0488C72.7565 31.895 72.8093 31.7257 72.8285 31.5507C72.8505 31.1897 72.7342 30.8342 72.5045 30.5603C72.2748 30.2863 71.9498 30.1157 71.5992 30.0849C71.4294 30.0621 71.2568 30.0743 71.0916 30.1209C70.9264 30.1674 70.7718 30.2473 70.637 30.3558C70.5021 30.4644 70.3897 30.5995 70.3062 30.7533C70.2226 30.907 70.1698 31.0763 70.1506 31.2513Z" fill="#263238"/>
<path d="M68.0665 26.4768C68.2254 26.6634 69.2844 25.9403 70.733 26.018C72.1817 26.0958 73.2105 26.8967 73.3807 26.7218C73.4601 26.644 73.305 26.3096 72.8587 25.9442C72.2527 25.4678 71.518 25.1962 70.7557 25.1665C70.0018 25.127 69.255 25.3339 68.6225 25.7575C68.1573 26.088 67.9795 26.3952 68.0665 26.4768Z" fill="#263238"/>
<path d="M82.8894 31.9201C82.8694 32.2802 82.9865 32.6341 83.2159 32.907C83.4454 33.1799 83.7692 33.3502 84.1187 33.382C84.2887 33.4048 84.4615 33.3926 84.627 33.3461C84.7924 33.2997 84.9472 33.2198 85.0824 33.1113C85.2175 33.0027 85.3304 32.8677 85.4142 32.7139C85.4981 32.5601 85.5515 32.3907 85.5711 32.2156C85.5911 31.8544 85.4736 31.4995 85.2434 31.2259C85.0133 30.9523 84.6886 30.7815 84.338 30.7498C84.1679 30.727 83.995 30.7394 83.8296 30.7861C83.6642 30.8329 83.5094 30.9131 83.3745 31.0221C83.2396 31.1311 83.1272 31.2666 83.0439 31.4208C82.9606 31.575 82.9081 31.7447 82.8894 31.9201Z" fill="#263238"/>
<path d="M82.307 27.4838C82.4621 27.6743 83.5249 26.9511 84.9735 27.0289C86.4221 27.1067 87.4471 27.9037 87.6211 27.7326C87.7043 27.6549 87.5493 27.3205 87.103 26.955C86.4944 26.4809 85.7592 26.2095 84.9962 26.1774C84.2423 26.1379 83.4955 26.3448 82.863 26.7684C82.394 27.0794 82.2275 27.3983 82.307 27.4838Z" fill="#263238"/>
<path d="M76.5086 38.2692C76.5086 38.1837 75.6274 37.9776 74.175 37.7132C73.7967 37.6549 73.4601 37.5616 73.4185 37.2972C73.3769 37.0328 73.5206 36.6168 73.7211 36.1814C74.1094 35.2793 74.5204 34.332 74.9541 33.3392C76.6751 29.2918 77.9384 25.9519 77.7795 25.8858C77.6206 25.8197 76.0964 29.039 74.3754 33.0904C73.9594 34.0857 73.5622 35.0396 73.184 35.952C73.0251 36.3758 72.7604 36.854 72.9192 37.4333C72.9663 37.5704 73.0433 37.6945 73.1442 37.7963C73.2452 37.8981 73.3675 37.9747 73.5017 38.0204C73.7038 38.0886 73.9135 38.1304 74.1258 38.1448C75.5895 38.3003 76.5011 38.3548 76.5086 38.2692Z" fill="#263238"/>
<path d="M88.457 24.7816C88.3851 24.3617 87.0764 24.3695 85.6013 23.9457C84.1262 23.5219 82.9537 22.8726 82.723 23.207C82.6133 23.3664 82.7721 23.7746 83.2109 24.2334C83.7828 24.7983 84.488 25.2003 85.2571 25.3998C86.0163 25.6109 86.8165 25.6109 87.5757 25.3998C88.1657 25.256 88.4834 24.9799 88.457 24.7816Z" fill="#263238"/>
<path d="M73.653 23.4014C73.3694 23.0437 72.1401 23.3158 70.7142 23.2381C69.2882 23.1603 68.0665 22.8493 67.7677 23.172C67.6354 23.3353 67.8056 23.6891 68.32 24.0429C69.0323 24.4772 69.8389 24.7217 70.6666 24.7543C71.4942 24.7869 72.3166 24.6065 73.0592 24.2295C73.6039 23.9146 73.793 23.5763 73.653 23.4014Z" fill="#263238"/>
<path d="M67.3894 17.231C67.3894 17.231 70.1732 11.2823 73.0894 10.011C76.6221 8.45574 77.9194 12.4371 81.2516 11.6634C84.5839 10.8897 87.9577 9.40831 91.1878 12.1921C94.728 15.2365 92.9087 17.1533 92.9276 21.469C93.0033 38.9652 95.8665 44.0547 97.1449 35.882C97.2849 34.9877 99.7509 34.3968 100.292 30.6098C100.999 25.7031 101.472 19.7233 100.572 16.1657C99.8152 13.1719 98.2721 11.0491 95.4467 8.65014C90.9873 4.86707 84.6217 4.4666 80.2834 4.70377C75.945 4.94094 67.3668 9.60271 67.3894 17.231Z" fill="#263238"/>
<path d="M96.555 35.5865C96.5843 35.2312 96.6833 34.8856 96.8461 34.5708C97.0088 34.2559 97.232 33.9781 97.502 33.7543C97.7721 33.5305 98.0834 33.3652 98.4173 33.2685C98.7512 33.1717 99.1007 33.1455 99.4447 33.1915C101.196 33.452 103.102 34.5795 102.807 38.312C102.281 44.9217 95.9233 43.0243 95.9271 42.8338C95.9309 42.7016 96.3129 38.3548 96.555 35.5865Z" fill="#FFBF9D"/>
<path d="M97.527 40.4738C97.5573 40.4738 97.6329 40.5671 97.8145 40.6721C98.0722 40.8094 98.3713 40.8401 98.6504 40.7576C99.3539 40.5593 100.012 39.4979 100.141 38.3081C100.201 37.741 100.138 37.1672 99.9553 36.6285C99.9133 36.4183 99.8227 36.2215 99.691 36.055C99.5593 35.8885 99.3904 35.7571 99.1988 35.672C99.0724 35.627 98.9348 35.6283 98.8093 35.6758C98.6838 35.7233 98.5782 35.814 98.5104 35.9325C98.4121 36.1114 98.4423 36.2475 98.4045 36.2552C98.3667 36.263 98.2759 36.1347 98.3515 35.8664C98.4007 35.7077 98.5007 35.5706 98.6352 35.4776C98.8239 35.3545 99.0522 35.3126 99.2707 35.361C99.5306 35.438 99.7671 35.582 99.9577 35.7794C100.148 35.9767 100.287 36.2208 100.36 36.4885C100.589 37.0846 100.672 37.7295 100.602 38.3664C100.455 39.6962 99.6905 40.8859 98.7374 41.0881C98.5608 41.1264 98.3781 41.1228 98.2032 41.0777C98.0282 41.0325 97.8655 40.947 97.7275 40.8276C97.5232 40.6215 97.5043 40.4738 97.527 40.4738Z" fill="#FF9A6C"/>
<path d="M97.0504 22.7365C96.1842 23.2808 95.2689 23.8407 94.2552 23.9029C93.2416 23.9651 92.1145 23.3003 91.9859 22.2622C91.9291 21.7995 92.0653 21.2668 91.7892 20.8975C91.4563 20.4542 90.7982 20.5514 90.2573 20.5864C88.3662 20.6914 86.2821 18.4519 85.8963 16.5506C85.6334 16.8957 85.2529 17.1253 84.8317 17.1932C84.4105 17.261 83.9799 17.162 83.6269 16.9161C83.0517 16.5068 82.5489 15.9992 82.1405 15.4153C81.6072 14.7194 80.8432 14.0856 79.9846 14.1673C79.5042 14.21 79.0428 14.4783 78.5662 14.4122C77.7227 14.2917 77.3559 13.2458 77.2689 12.3788C77.1819 11.5117 77.1327 10.4969 76.4368 9.98761C75.7408 9.47827 74.9238 9.72711 74.1371 9.80487C73.3504 9.88263 72.3519 9.64546 72.1892 8.84841C72.1667 8.63685 72.1859 8.42279 72.2456 8.21903C72.3054 8.01527 72.4046 7.82601 72.5372 7.66256C73.1001 6.88709 73.9013 6.32968 74.8108 6.08059C75.7204 5.83149 76.6851 5.90531 77.5488 6.29008C77.917 5.19791 78.5926 4.24285 79.4899 3.54617C80.3872 2.84949 81.4657 2.44262 82.5883 2.37721C83.711 2.3118 84.8273 2.5908 85.7954 3.17879C86.7635 3.76679 87.5398 4.63725 88.0258 5.67965C88.7417 5.07663 89.5885 4.66006 90.4945 4.4653C91.4004 4.27055 92.3387 4.30336 93.2297 4.56095C94.1206 4.81854 94.938 5.29331 95.6124 5.94495C96.2867 6.59659 96.7982 7.40587 97.1033 8.30408C97.9046 8.1262 98.7391 8.19558 99.5021 8.50351C100.265 8.81144 100.923 9.3442 101.392 10.0349C101.862 10.7256 102.122 11.5435 102.141 12.3859C102.16 13.2283 101.936 14.0577 101.498 14.7699C102.633 15.5086 103.564 16.745 103.518 18.1175C103.473 19.49 102.111 20.7925 100.84 20.3687C101.119 20.9296 101.169 21.5813 100.98 22.1803C100.791 22.7793 100.378 23.2766 99.8323 23.5627C99.2866 23.8489 98.6526 23.9004 98.0699 23.7061C97.4872 23.5118 97.0035 23.0875 96.7251 22.5265" fill="#263238"/>
<path d="M76.9814 8.203C76.9749 8.2429 76.9749 8.28363 76.9814 8.32353C76.9814 8.40518 76.9814 8.52571 77.0041 8.68123C77.0704 9.13536 77.2084 9.57531 77.4126 9.98373C77.7359 10.63 78.1991 11.1913 78.7667 11.6245C79.5148 12.2104 80.4284 12.5298 81.3689 12.5343L81.2668 12.3788C81.044 12.9734 81.059 13.6345 81.3084 14.2178C81.569 14.8282 81.9143 15.3966 82.3334 15.9052C82.5348 16.1881 82.7642 16.4487 83.018 16.6828C83.3096 16.9201 83.6541 17.0791 84.0203 17.1455C84.3985 17.2217 84.789 17.2013 85.1577 17.0861C85.5263 16.9708 85.8618 16.7643 86.1346 16.4845L85.8963 16.4029C85.9535 17.0968 86.1513 17.7708 86.477 18.3815C86.8027 18.9922 87.2491 19.526 87.7875 19.9488C88.3772 20.4475 89.1087 20.7355 89.8716 20.7692C90.5901 20.7709 91.3037 20.6473 91.9821 20.4037L91.8119 20.3181C92.1071 21.1382 92.5988 21.8684 93.2416 22.441C93.5338 22.7271 93.8843 22.9426 94.2678 23.0717C94.6512 23.2009 95.0578 23.2404 95.458 23.1875C96.1427 23.0714 96.7794 22.7518 97.2895 22.2682C97.7996 21.7845 98.1609 21.158 98.3288 20.4659L98.1813 20.5281C98.843 20.9336 99.6207 21.0916 100.383 20.9752C100.95 20.8979 101.491 20.6819 101.96 20.3454C102.254 20.1336 102.51 19.8704 102.716 19.5678C102.79 19.4642 102.851 19.3519 102.898 19.2334C102.628 19.6358 102.286 19.9826 101.892 20.2559C101.428 20.5646 100.901 20.7576 100.352 20.8197C99.6308 20.914 98.8995 20.7521 98.2796 20.3609L98.1624 20.2832L98.1284 20.4231C97.9612 21.0677 97.6157 21.6485 97.1336 22.0951C96.6515 22.5416 96.0537 22.8347 95.4127 22.9387C95.0483 22.9838 94.6787 22.9443 94.3311 22.8232C93.9836 22.7021 93.6668 22.5024 93.4042 22.2388C92.801 21.6924 92.3396 21.0003 92.0615 20.2248L92.0161 20.0965L91.8913 20.1354C91.2431 20.3669 90.5615 20.4839 89.8754 20.4814C89.1683 20.445 88.4922 20.172 87.9501 19.7038C87.4427 19.3051 87.022 18.8017 86.7152 18.2258C86.4083 17.6499 86.2222 17.0144 86.1687 16.3601L86.1422 16.0452L85.9304 16.2785C85.688 16.5237 85.3914 16.7049 85.066 16.8065C84.7406 16.9081 84.396 16.927 84.0619 16.8617C83.7397 16.8067 83.435 16.6734 83.1731 16.4729C82.9336 16.2456 82.7169 15.9942 82.5263 15.7225C82.1181 15.2372 81.7805 14.6937 81.524 14.1089C81.2901 13.5844 81.2683 12.9859 81.4635 12.4449L81.524 12.2893H81.3614C80.4637 12.2961 79.588 12.0042 78.865 11.4573C78.3081 11.0485 77.8468 10.5172 77.5147 9.90208C77.2403 9.37274 77.0597 8.7974 76.9814 8.203Z" fill="#455A64"/>
<path d="M79.8749 41.8307C79.6923 41.4963 79.4421 41.2059 79.1412 40.9792C78.8466 40.7933 78.5177 40.6721 78.1753 40.6232C77.8329 40.5744 77.4844 40.599 77.1517 40.6954C76.5518 40.878 76.0015 41.2014 75.5442 41.6402C74.7348 42.3944 74.9201 43.2382 75.0789 45.1394C76.9096 44.8983 78.7289 45.4038 80.4725 44.7856C80.6075 43.7594 80.3966 42.7166 79.8749 41.8307Z" fill="#FF9A6C"/>
<path d="M75.0601 45.1394C75.0601 45.0889 75.8506 44.9372 77.1441 44.9061C77.7909 44.8828 78.5549 44.875 79.4135 44.8011L79.7047 44.7506C79.804 44.7446 79.9027 44.7303 79.9998 44.7078C80.0794 44.6927 80.1528 44.6535 80.2107 44.5954C80.2686 44.5372 80.3084 44.4627 80.325 44.3812C80.3642 44.1693 80.3642 43.9517 80.325 43.7397C80.2872 43.4986 80.2456 43.2537 80.1964 43.0165C80.1172 42.5559 79.9529 42.115 79.7123 41.7179C79.4878 41.3685 79.1479 41.1144 78.7554 41.0025C78.3858 40.9008 78.002 40.8653 77.6207 40.8976C77.2812 40.9143 76.9449 40.9717 76.6184 41.0686C76.1463 41.1953 75.7229 41.4665 75.4043 41.8462C75.1849 42.1223 75.1017 42.3128 75.0676 42.2972C75.0885 42.0993 75.1617 41.911 75.2794 41.7529C75.5802 41.295 76.0207 40.9531 76.5314 40.7809C76.8745 40.6568 77.2317 40.5784 77.5942 40.5476C78.0167 40.497 78.4445 40.5246 78.8575 40.6293C79.3347 40.7579 79.7509 41.0588 80.03 41.4769C80.3054 41.9138 80.4931 42.4029 80.5822 42.9154C80.6352 43.1682 80.6768 43.417 80.7108 43.6619C80.7639 43.9261 80.7639 44.1987 80.7108 44.4629C80.6755 44.6123 80.5978 44.7476 80.4877 44.8517C80.3794 44.9496 80.2496 45.019 80.1095 45.0539C79.9914 45.0818 79.8711 45.0987 79.7501 45.1044L79.4249 45.1277C78.5663 45.1822 77.7909 45.1588 77.1555 45.1472C75.8619 45.1394 75.0676 45.1861 75.0601 45.1394Z" fill="#263238"/>
<path d="M86.3578 34.7583C86.2935 34.8594 85.4803 34.3501 84.357 34.2179C83.2336 34.0857 82.3259 34.3618 82.2881 34.249C82.2691 34.1985 82.4772 34.0585 82.8592 33.938C83.3635 33.7938 83.8906 33.7539 84.41 33.8207C84.9294 33.8874 85.4308 34.0594 85.885 34.3268C86.2179 34.5251 86.3843 34.7156 86.3578 34.7583Z" fill="#FF9A6C"/>
<path d="M71.8866 33.7358C71.8299 33.8408 71.047 33.4325 69.9955 33.347C68.944 33.2614 68.1043 33.5336 68.0816 33.4247C68.0589 33.3159 68.2518 33.2381 68.5998 33.1137C69.0596 32.961 69.5441 32.9029 70.0257 32.9426C70.5073 32.9791 70.9774 33.1111 71.4101 33.3314C71.7618 33.5258 71.9131 33.693 71.8866 33.7358Z" fill="#FF9A6C"/>
<path d="M76.4027 25.0771C76.3763 25.0188 76.5389 24.906 76.7356 24.6883C76.9868 24.4047 77.1593 24.0569 77.2349 23.6813C77.2956 23.3024 77.2537 22.9137 77.1138 22.5577C77.0117 22.2777 76.8982 22.1105 76.9398 22.0678C76.9814 22.025 77.1668 22.1339 77.3597 22.4255C77.6099 22.8176 77.7035 23.2937 77.6211 23.7549C77.5386 24.2162 77.2865 24.627 76.9171 24.9021C76.6372 25.0966 76.4179 25.1238 76.4027 25.0771Z" fill="#FF9A6C"/>
<path d="M79.3794 25.3765C79.3378 25.4076 79.179 25.2793 79.0012 24.9877C78.7948 24.614 78.6757 24.196 78.6534 23.7669C78.6311 23.3377 78.7061 22.9091 78.8726 22.5149C79.0088 22.2155 79.1525 22.0717 79.1941 22.095C79.2962 22.1494 78.9899 22.8454 79.0466 23.7435C79.1033 24.6417 79.474 25.3104 79.3794 25.3765Z" fill="#FF9A6C"/>
<path d="M94.8869 9.42385C94.9612 9.8824 94.979 10.3488 94.9398 10.8119C94.9462 11.1914 94.8349 11.5631 94.6221 11.8733C94.491 11.9974 94.3373 12.0936 94.1698 12.1564C94.0023 12.2191 93.8244 12.2471 93.6463 12.2388C93.2088 12.2297 92.7746 12.1577 92.3565 12.025C92.2982 12.0146 92.2381 12.027 92.1882 12.0598C92.1382 12.0925 92.1019 12.1432 92.0863 12.2019C92.0707 12.2607 92.077 12.3233 92.1038 12.3775C92.1307 12.4318 92.1763 12.4738 92.2317 12.4954C93.0827 12.717 94.2666 12.9814 94.955 12.2194C95.2372 11.8494 95.394 11.3947 95.4013 10.9246C95.4549 10.3775 95.4346 9.8253 95.3408 9.28388C95.2916 8.97673 94.834 9.10892 94.8869 9.41608V9.42385Z" fill="#455A64"/>
<path d="M96.4149 9.29166C96.3193 9.83018 96.2964 10.3797 96.3469 10.9246C96.3542 11.3923 96.511 11.8446 96.7932 12.2116C97.4815 12.9892 98.6843 12.7092 99.5164 12.4876C99.5718 12.466 99.6174 12.424 99.6443 12.3698C99.6712 12.3155 99.6775 12.2529 99.6619 12.1941C99.6463 12.1354 99.61 12.0847 99.56 12.052C99.51 12.0193 99.45 12.0069 99.3916 12.0172C98.9723 12.1503 98.5369 12.2223 98.0981 12.231C97.9206 12.2388 97.7434 12.2105 97.5766 12.1478C97.4098 12.0851 97.2567 11.9892 97.126 11.8655C96.9127 11.5556 96.8014 11.1837 96.8083 10.8041C96.7673 10.341 96.7851 9.87443 96.8612 9.41608C96.9104 9.10892 96.4565 8.97673 96.4036 9.28388L96.4149 9.29166Z" fill="#455A64"/>
<path d="M96.9672 16.8539C96.891 16.3942 96.8732 15.9264 96.9142 15.462C96.9079 15.0825 97.0191 14.7107 97.2319 14.4005C97.4979 14.1517 97.8484 14.0204 98.2078 14.0351C98.645 14.048 99.0786 14.1199 99.4975 14.2489C99.5559 14.2592 99.616 14.2468 99.6659 14.2141C99.7159 14.1814 99.7522 14.1307 99.7678 14.072C99.7834 14.0132 99.7771 13.9506 99.7502 13.8963C99.7233 13.8421 99.6778 13.8 99.6224 13.7785C98.7713 13.5568 97.5875 13.2963 96.8991 14.0584C96.6184 14.4248 96.4617 14.8752 96.4528 15.3415C96.3991 15.8886 96.4195 16.4408 96.5133 16.9822C96.5625 17.2894 97.0201 17.1611 96.9672 16.8539Z" fill="#455A64"/>
<path d="M95.4354 16.9822C95.5311 16.441 95.5515 15.8886 95.4959 15.3415C95.4886 14.8749 95.3317 14.4239 95.0496 14.0584C94.3612 13.2808 93.1773 13.5568 92.3263 13.7785C92.2709 13.8 92.2253 13.8421 92.1984 13.8963C92.1716 13.9506 92.1653 14.0132 92.1809 14.072C92.1965 14.1307 92.2328 14.1814 92.2828 14.2141C92.3327 14.2468 92.3928 14.2592 92.4511 14.2489C92.8713 14.1196 93.3062 14.0477 93.7447 14.0351C94.1026 14.0227 94.4511 14.1537 94.7167 14.4005C94.9295 14.7107 95.0408 15.0825 95.0345 15.462C95.0755 15.9264 95.0577 16.3942 94.9815 16.8539C94.9286 17.1572 95.3862 17.2894 95.4354 16.9822Z" fill="#455A64"/>
<path d="M78.8008 48.8058C78.763 48.8525 78.536 48.7086 78.1502 48.5376C77.1551 48.085 76.0394 47.9958 74.9882 48.2848C74.5835 48.3937 74.3339 48.4987 74.3036 48.4481C74.2734 48.3976 74.4852 48.2032 74.8937 48.0166C75.4406 47.7782 76.0352 47.6781 76.6275 47.7248C77.2198 47.7715 77.7926 47.9636 78.2978 48.2848C78.6609 48.5376 78.8348 48.7708 78.8008 48.8058Z" fill="#FF9A6C"/>
<path d="M116.223 69.3269C116.223 69.3269 122.025 71.2943 126.28 80.2873C129.567 87.243 136.443 102.142 136.443 102.142L116.079 109.809L114.01 101.061L116.223 69.3269Z" fill="#455A64"/>
<path d="M116.223 69.3269L95.9271 64.2258C85.5484 69.914 80.0414 70.0384 72.855 62.5423L50.7435 67.8262L51.1823 102.62L51.5605 131.746L46.7834 169.798H117.664L115.591 109.001L116.223 69.3269Z" fill="#455A64"/>
<path d="M117.656 169.798C117.636 169.724 117.626 169.649 117.626 169.572C117.626 169.413 117.592 169.184 117.569 168.904C117.528 168.309 117.467 167.442 117.392 166.334C117.256 164.09 117.059 160.859 116.817 156.87C116.575 152.881 116.317 148.118 116.015 142.838C115.939 141.516 115.864 140.163 115.788 138.779C115.727 137.387 115.727 135.98 115.693 134.537C115.644 131.66 115.595 128.682 115.546 125.63C115.349 113.413 115.221 102.356 115.168 94.3542C115.168 90.3535 115.145 87.1147 115.168 84.8752C115.168 83.7555 115.194 82.8884 115.213 82.2974C115.213 82.0097 115.232 81.7842 115.236 81.6287C115.234 81.5515 115.241 81.4744 115.258 81.3993C115.277 82.5152 115.561 101.275 115.935 125.622C115.985 128.674 116.03 131.652 116.075 134.533C116.106 135.968 116.106 137.391 116.159 138.763C116.212 140.136 116.302 141.485 116.374 142.823C116.643 148.103 116.885 152.862 117.093 156.858C117.301 160.855 117.433 164.082 117.543 166.322C117.585 167.438 117.619 168.301 117.645 168.9C117.645 169.187 117.645 169.409 117.645 169.568C117.66 169.644 117.664 169.721 117.656 169.798Z" fill="#263238"/>
<path d="M50.8532 67.7912C50.8532 67.7912 46.4695 68.8876 43.0427 74.3464C39.616 79.8052 31.1738 95.233 31.1738 95.233L51.5038 106.66L50.8532 67.7912Z" fill="#455A64"/>
<path d="M46.7759 169.798C46.7759 169.798 46.7759 169.743 46.7759 169.635C46.7759 169.526 46.8061 169.358 46.8288 169.152C46.8818 168.721 46.9612 168.095 47.0633 167.29C47.2865 165.661 47.608 163.301 48.0089 160.35C48.8486 154.432 50.0249 146.135 51.3752 136.586V136.621C51.3109 133.196 51.2428 129.545 51.1709 125.785C50.9705 113.53 50.7927 102.437 50.6528 94.4009C50.6074 90.3885 50.5695 87.1419 50.5431 84.8869C50.5431 83.771 50.5431 82.9001 50.5431 82.3013C50.5431 82.0097 50.5431 81.7881 50.5431 81.6287C50.534 81.5525 50.534 81.4755 50.5431 81.3993C50.5608 81.4744 50.5697 81.5514 50.5695 81.6287C50.5695 81.7881 50.5695 82.0175 50.5998 82.3013C50.5998 82.9001 50.649 83.7671 50.683 84.8869C50.7397 87.138 50.823 90.3846 50.9213 94.3931C51.0839 102.43 51.2995 113.522 51.5529 125.777C51.621 129.537 51.6853 133.188 51.7458 136.613V136.644C50.3388 146.182 49.0982 154.471 48.2434 160.385C47.7933 163.332 47.434 165.684 47.1844 167.309C47.0558 168.11 46.9574 168.733 46.8856 169.16C46.8477 169.366 46.8213 169.522 46.7986 169.638C46.7969 169.692 46.7893 169.746 46.7759 169.798Z" fill="#263238"/>
<path d="M87.2353 94.4748C86.9304 94.7557 86.6027 95.0094 86.2557 95.233C85.6127 95.7034 84.6709 96.3644 83.4984 97.177C81.1571 98.7827 77.8816 100.952 74.2052 103.25C70.5288 105.548 67.1512 107.527 64.6851 108.938C63.4521 109.642 62.446 110.198 61.7463 110.567C61.3929 110.779 61.0236 110.961 60.6418 111.112C60.9653 110.855 61.3095 110.628 61.6706 110.431L64.5452 108.689C66.9772 107.228 70.3284 105.19 74.001 102.904C77.6736 100.618 80.968 98.4795 83.3471 96.9359L86.1725 95.1085C86.5091 94.8674 86.8646 94.6554 87.2353 94.4748Z" fill="#263238"/>
<path d="M83.8085 159.11C78.9175 159.11 74.136 157.62 70.0689 154.827C66.0018 152.035 62.8316 148.065 60.9594 143.42C59.0871 138.775 58.5969 133.664 59.5506 128.733C60.5044 123.802 62.8593 119.272 66.3175 115.716C69.7757 112.161 74.182 109.739 78.979 108.758C83.776 107.777 88.7483 108.28 93.2671 110.204C97.786 112.128 101.648 115.386 104.366 119.567C107.083 123.747 108.534 128.662 108.534 133.69C108.526 140.429 105.919 146.889 101.284 151.655C96.649 156.42 90.3642 159.101 83.8085 159.11ZM83.8085 108.662C78.9921 108.661 74.2836 110.129 70.2786 112.879C66.2736 115.629 63.152 119.539 61.3085 124.113C59.465 128.687 58.9824 133.72 59.9219 138.576C60.8613 143.432 63.1806 147.892 66.5863 151.393C69.992 154.894 74.3312 157.278 79.0551 158.244C83.779 159.21 88.6754 158.714 93.125 156.819C97.5747 154.924 101.378 151.715 104.053 147.598C106.728 143.481 108.156 138.641 108.155 133.69C108.147 127.054 105.58 120.693 101.015 116.002C96.4513 111.31 90.2632 108.67 83.8085 108.662Z" fill="#92E3A9"/>
<path d="M83.8086 156.415C96.0183 156.415 105.916 146.241 105.916 133.69C105.916 121.139 96.0183 110.964 83.8086 110.964C71.5989 110.964 61.7009 121.139 61.7009 133.69C61.7009 146.241 71.5989 156.415 83.8086 156.415Z" fill="#92E3A9"/>
<g opacity="0.4">
<path d="M83.8086 156.415C96.0183 156.415 105.916 146.241 105.916 133.69C105.916 121.139 96.0183 110.964 83.8086 110.964C71.5989 110.964 61.7009 121.139 61.7009 133.69C61.7009 146.241 71.5989 156.415 83.8086 156.415Z" fill="white"/>
</g>
<path d="M97.1977 147.454C104.592 139.853 104.592 127.529 97.1976 119.928C89.8034 112.327 77.8148 112.327 70.4205 119.928C63.0262 127.529 63.0262 139.853 70.4205 147.454C77.8148 155.055 89.8034 155.055 97.1977 147.454Z" fill="#92E3A9"/>
<g opacity="0.3">
<path d="M97.1977 147.454C104.592 139.853 104.592 127.529 97.1977 119.928C89.8034 112.327 77.8148 112.327 70.4205 119.928C63.0262 127.529 63.0262 139.853 70.4205 147.454C77.8148 155.055 89.8034 155.055 97.1977 147.454Z" fill="white"/>
</g>
<path d="M94.6516 144.836C100.64 138.681 100.64 128.701 94.6516 122.545C88.6635 116.39 78.9548 116.39 72.9667 122.545C66.9786 128.701 66.9786 138.681 72.9667 144.836C78.9548 150.992 88.6635 150.992 94.6516 144.836Z" fill="#92E3A9"/>
<path d="M94.6516 144.836C100.64 138.681 100.64 128.701 94.6516 122.545C88.6635 116.39 78.9548 116.39 72.9667 122.545C66.9786 128.701 66.9786 138.681 72.9667 144.836C78.9548 150.992 88.6635 150.992 94.6516 144.836Z" fill="#92E3A9"/>
<path d="M88.6385 103.596C88.6385 103.596 90.0304 93.7088 89.8602 93.2773C89.69 92.8457 94.2099 102.822 94.2137 103.238C94.2175 103.654 102.947 89.6808 102.947 89.6808L101.854 105.462L109.661 103.46L104.94 108.748L112.611 109.864C112.611 109.864 105.167 114.004 104.71 114.28L108.624 111.065L102.433 109.899L105.663 105.855L100.481 107.725L100.628 96.9281L94.1986 105.136L90.6734 99.2493L88.6385 103.596Z" fill="#92E3A9"/>
<path d="M50.4447 149.728L42.3392 154.393L52.8503 155.509L49.6013 164.479L58.3611 157.869C58.3611 157.869 60.2901 164.191 60.3695 164.059C60.449 163.927 64.8856 159.032 64.8856 159.032L61.039 161.781L58.5805 156.645L53.0318 159.397L54.6582 154.568L47.0028 153.581L50.4447 149.728Z" fill="#92E3A9"/>
<path d="M99.8531 158.993L105.969 162.068L105.784 156.734L120.323 158.577L111.631 146.104L116.563 144.934L108.927 145.284L115.069 155.626L104.01 154.631L104.101 159.261L99.8531 158.993Z" fill="#92E3A9"/>
<path d="M96.3734 126.302C96.3734 126.302 92.5911 126.808 90.5638 124.864C88.5364 122.92 85.8775 119.98 83.9182 119.51C81.959 119.039 76.5011 118.966 76.1532 119.039C75.8808 119.094 73.4185 120.661 72.3217 121.372C72.2495 121.418 72.1875 121.479 72.14 121.551C72.0924 121.624 72.0602 121.705 72.0455 121.791C72.0309 121.877 72.0341 121.966 72.055 122.05C72.0758 122.135 72.1139 122.214 72.1666 122.282C72.6394 122.908 73.5585 123.791 74.8936 123.651C76.921 123.433 77.7644 122.62 77.7644 122.62L80.117 123.13C79.6235 123.941 78.8982 124.575 78.0405 124.945C76.7129 125.447 71.8829 126.501 70.4759 126.368C69.0689 126.236 62.0111 126.24 61.1033 127.605C60.1956 128.97 60.6116 129.763 62.238 130.05C63.8644 130.338 71.9623 130.338 72.3822 130.482C72.802 130.626 61.1865 131.131 58.7394 131.994C56.2922 132.858 57.7598 134.222 58.3876 134.868C59.0155 135.513 72.5902 134.51 72.5902 134.51C72.5902 134.51 59.3521 137.387 58.9474 138.25C58.5427 139.113 58.8075 140.552 60.4868 140.552C62.1661 140.552 74.2015 138.608 74.2015 138.608C74.2015 138.608 63.0058 142.134 62.6578 142.854C62.3099 143.573 62.7259 144.58 63.2857 144.798C63.8455 145.015 78.0367 142.714 78.0367 142.714C78.0367 142.714 88.8126 141.547 90.7718 140.05C92.731 138.554 96.9294 138.973 96.9294 138.973L96.3734 126.302Z" fill="#FFBF9D"/>
<path d="M96.3734 126.302C96.3734 126.302 121.284 124.91 123.557 123.192L118.023 109.086L134.73 102.795C134.73 102.795 139.885 118.511 140.282 124.716C140.679 130.921 140.248 135.373 137.707 137.547C134.84 139.988 131.825 139.813 127.562 140.657C122.693 141.619 117.706 141.775 112.789 141.12L96.3734 138.946V126.742" fill="#FFBF9D"/>
<path d="M133.97 125.809C133.924 125.859 133.406 125.42 132.457 124.844C132.201 124.688 131.937 124.547 131.666 124.42C131.382 124.269 131.065 124.144 130.732 124.004C129.271 123.439 127.716 123.175 126.155 123.227C125.796 123.25 125.456 123.258 125.138 123.309C124.843 123.338 124.55 123.384 124.26 123.445C123.19 123.662 122.551 123.919 122.528 123.853C122.505 123.787 123.114 123.464 124.196 123.165C124.491 123.085 124.791 123.021 125.092 122.974C125.439 122.914 125.789 122.874 126.14 122.854C126.944 122.813 127.75 122.857 128.546 122.986C129.339 123.13 130.116 123.357 130.864 123.662C131.189 123.797 131.506 123.952 131.814 124.125C132.086 124.267 132.348 124.427 132.6 124.603C133.538 125.233 134 125.777 133.97 125.809Z" fill="#FF9A6C"/>
<path d="M82.1783 133.977C82.3356 133.733 82.4178 133.445 82.4144 133.152C82.411 132.858 82.322 132.573 82.1591 132.332C81.9962 132.091 81.7667 131.906 81.5004 131.801C81.2341 131.696 80.9432 131.675 80.6654 131.742C79.3739 132.071 78.056 132.279 76.728 132.364C74.1522 132.511 71.0545 132.006 70.3661 132.2C68.9326 132.609 63.7622 135.389 61.3793 136.042C59.8871 136.431 58.33 136.478 56.8179 136.182L50.8531 147.006C50.8531 147.006 75.9942 160.883 77.2651 161.291C78.5359 161.699 82.9158 163.091 83.3168 162.026C83.5497 161.365 83.5497 160.641 83.3168 159.981L74.7271 155.241C74.7271 155.241 86.4977 158.592 87.7686 158.511C89.0394 158.429 90.3141 157.201 88.9638 155.976C87.6135 154.751 77.3483 151.232 77.3483 151.232C77.3483 151.232 90.3746 153.324 91.827 153.114C93.4458 152.881 93.5744 150.661 91.827 150.004C90.0795 149.347 77.5903 146.734 77.8324 146.081C78.0745 145.428 90.0001 145.377 90.8511 144.526C91.7022 143.674 91.9102 142.146 89.1264 141.493C86.3426 140.84 76.0812 141.656 74.4888 140.595C72.8965 139.533 73.218 136.994 73.218 136.994C73.218 136.994 77.6698 137.434 79.3416 136.668C80.7675 136.042 81.4483 135.062 82.1783 133.977Z" fill="#FFBF9D"/>
<path d="M38.9314 121.026L48.1602 104.782L32.1383 95.7773C32.1383 95.7773 27.7244 105.886 24.8838 111.998C22.0433 118.11 19.4789 122.418 22.5918 127.838C25.7046 133.258 53.9509 148.538 53.9509 148.538L59.8967 137.702L38.9314 121.026Z" fill="#FFBF9D"/>
<path d="M82.1027 162.632C80.499 162.632 78.0405 161.855 77.1857 161.485C75.9527 160.972 51.7799 147.757 50.7511 147.193L50.9289 146.851C51.1823 146.987 76.1153 160.618 77.3257 161.127C79.1185 161.874 82.7192 162.722 83.1353 161.948C83.2926 161.715 83.3819 161.441 83.3926 161.158C83.4034 160.875 83.3351 160.594 83.1958 160.35C83.0608 160.145 82.8773 159.979 82.6625 159.868L73.1311 154.603L74.7612 155.07C78.7629 156.209 86.5356 158.332 87.6968 158.332H87.7422C88.4532 158.285 89.1227 157.862 89.2929 157.344C89.4253 156.956 89.2626 156.536 88.8239 156.139C87.5152 154.949 77.3786 151.473 77.2765 151.435L77.3597 151.046C77.3597 151.046 91.1992 152.846 91.8346 152.924C92.0769 152.964 92.3248 152.904 92.5254 152.759C92.726 152.614 92.8636 152.394 92.9088 152.146C93.0639 151.489 92.7688 150.591 91.7438 150.202C91.1008 149.949 88.8542 149.405 86.4789 148.834C80.4612 147.395 77.8968 146.695 77.6623 146.229C77.6473 146.195 77.6396 146.158 77.6396 146.122C77.6396 146.085 77.6473 146.048 77.6623 146.015C77.8136 145.599 79.3227 145.451 84.4402 145.148C87.016 144.992 89.6787 144.837 90.4692 144.599C90.6861 144.531 90.8742 144.389 91.0032 144.197C91.1322 144.006 91.1945 143.775 91.1803 143.542C91.1614 142.881 90.6016 142.049 89.0924 141.695C87.8897 141.411 85.2761 141.407 82.5074 141.403C78.8197 141.403 75.321 141.403 74.3944 140.766C72.7226 139.65 73.0252 137.092 73.0365 136.983L73.063 136.796H73.2445C73.2861 136.796 77.6661 137.224 79.2735 136.485C80.6881 135.84 81.3425 134.864 82.0384 133.833C82.1809 133.627 82.2574 133.379 82.2574 133.126C82.2574 132.872 82.1809 132.625 82.0384 132.418C81.8975 132.201 81.6944 132.034 81.4572 131.941C81.2201 131.848 80.9606 131.832 80.7146 131.897C79.4116 132.228 78.0826 132.439 76.7432 132.527C75.3426 132.573 73.9407 132.533 72.5448 132.407C71.8396 132.318 71.1276 132.301 70.4191 132.356C69.2738 132.784 68.1514 133.275 67.0567 133.826C65.0672 134.759 62.8091 135.82 61.4324 136.197C59.9114 136.601 58.3219 136.65 56.7801 136.341L56.8671 135.952C58.3486 136.236 59.8721 136.188 61.334 135.812C62.6805 135.443 64.9234 134.389 66.8978 133.46C68.0057 132.9 69.142 132.402 70.3019 131.967C70.6423 131.87 71.4366 131.928 72.5713 132.006C73.9544 132.134 75.3439 132.175 76.7318 132.127C78.0484 132.041 79.3547 131.834 80.6352 131.508C80.9555 131.426 81.2927 131.447 81.6011 131.568C81.9096 131.689 82.1745 131.904 82.3599 132.185C82.5479 132.456 82.6489 132.781 82.6489 133.114C82.6489 133.447 82.5479 133.772 82.3599 134.043C81.6678 135.074 80.9529 136.139 79.44 136.831C77.927 137.523 74.2922 137.267 73.411 137.189C73.3769 137.776 73.3807 139.592 74.6137 140.416C75.4572 140.98 79.2092 140.984 82.5188 140.987C85.3101 140.987 87.9426 140.987 89.187 141.287C90.908 141.676 91.5472 142.694 91.5699 143.503C91.5873 143.822 91.4998 144.138 91.3214 144.399C91.143 144.661 90.8841 144.853 90.5865 144.945C89.7543 145.194 87.1824 145.334 84.4742 145.509C82.0762 145.649 78.8613 145.84 78.1313 146.092C78.971 146.571 83.5249 147.671 86.6037 148.425C89.0962 149.028 91.2484 149.549 91.9178 149.809C92.3984 149.961 92.8069 150.291 93.0641 150.735C93.3213 151.179 93.4088 151.706 93.3097 152.212C93.2435 152.553 93.053 152.855 92.7774 153.056C92.5017 153.257 92.1617 153.342 91.8271 153.293L79.1714 151.672C82.1973 152.741 88.0561 154.903 89.0849 155.836C89.8413 156.512 89.7695 157.142 89.6636 157.461C89.4404 158.126 88.6461 158.651 87.7724 158.709C86.7739 158.783 79.5648 156.804 76.278 155.886L82.8516 159.514C83.0739 159.628 83.2693 159.791 83.4243 159.991C83.5793 160.191 83.6901 160.423 83.7492 160.671C83.8082 160.919 83.814 161.177 83.7661 161.428C83.7182 161.679 83.6178 161.916 83.4719 162.123C83.2828 162.496 82.7684 162.632 82.1027 162.632Z" fill="#FF9A6C"/>
<path d="M39.128 120.956C39.128 121.081 37.0818 120.882 34.6346 121.345C32.1874 121.808 30.3379 122.706 30.2849 122.589C30.232 122.473 32.0475 121.423 34.5627 120.956C37.078 120.49 39.1545 120.878 39.128 120.956Z" fill="#FF9A6C"/>
</svg>
