<svg width="150" height="150" viewBox="0 0 150 150" fill="none" xmlns="http://www.w3.org/2000/svg">
<path d="M75 146.14C116.421 146.14 150 126.734 150 102.795C150 78.8566 116.421 59.4505 75 59.4505C33.5786 59.4505 0 78.8566 0 102.795C0 126.734 33.5786 146.14 75 146.14Z" fill="#F5F5F5"/>
<path d="M107.175 2.97184L106.257 3.48683V39.2608L107.175 38.7491V2.97184Z" fill="#FAFAFA"/>
<path d="M107.175 38.7491L107.178 4.01824L144.045 25.3265L144.039 60.0508L107.175 38.7491Z" fill="white"/>
<path d="M145.75 64.056V24.3392L104.553 0.531401V40.2449L145.75 64.056ZM106.257 39.2609V3.48687L144.045 25.3265V61.1005L106.257 39.2609Z" fill="#F0F0F0"/>
<path d="M106.257 39.2608L107.175 38.7491L144.039 60.0508L144.045 61.1005L106.257 39.2608Z" fill="#E0E0E0"/>
<path d="M116.547 9.43388L115.63 8.90249V44.6765L116.547 44.1648V9.43388Z" fill="#FAFAFA"/>
<path d="M137.259 21.4034L136.341 20.872V56.646L137.259 56.1343V21.4034Z" fill="#FAFAFA"/>
<path d="M145.75 64.0559L146.664 63.5213V23.8078L145.75 24.3392V64.0559Z" fill="#E0E0E0"/>
<path d="M146.664 23.8078L145.75 24.3392L104.553 0.531379L105.464 -1.52588e-05L146.664 23.8078Z" fill="#FAFAFA"/>
<path d="M144.045 41.4324V42.4919L106.254 20.6522L107.168 20.1208L144.045 41.4324Z" fill="#E0E0E0"/>
<path d="M144.042 44.46L144.045 42.4918L106.254 20.6522L106.257 22.6236L144.042 44.46Z" fill="#F0F0F0"/>
<path d="M136.341 58.6174L134.637 57.6333L134.64 17.9198L136.341 18.9038V58.6174Z" fill="#F0F0F0"/>
<path d="M115.633 46.6511L113.932 45.6671V5.95357L115.633 6.93435V46.6511Z" fill="#F0F0F0"/>
<path d="M136.341 38.0406L137.259 37.5092V21.4034L136.341 20.872V38.0406Z" fill="#FAFAFA"/>
<path d="M115.639 26.0744L116.557 25.5463V9.44043L115.639 8.90904V26.0744Z" fill="#FAFAFA"/>
<path d="M25.5089 26.6255L26.2364 27.0584L41.1014 18.4676L40.3772 18.0346L25.5089 26.6255Z" fill="#FAFAFA"/>
<path d="M40.3773 18.0346L26.2366 26.2056V11.3823L40.3773 3.2179V18.0346Z" fill="white"/>
<path d="M42.468 0.41984L24.8601 10.5918V29.4267L42.4582 19.2581L42.468 0.41984ZM41.1015 18.461L26.2365 27.0584V11.3823L41.1015 2.79143V18.461Z" fill="#F0F0F0"/>
<path d="M41.1014 18.4676L40.3772 18.0346V3.21789L41.1014 2.79146V18.4676Z" fill="#E0E0E0"/>
<path d="M42.468 0.419852L41.7339 -1.52588e-05L24.1326 10.1719L24.8699 10.5918L42.468 0.419852Z" fill="#FAFAFA"/>
<path d="M24.1326 10.1719L24.8699 10.5918V29.4268L24.1326 29.0069V10.1719Z" fill="#E0E0E0"/>
<path d="M39.8233 17.5918L26.787 25.1264V21.3574L30.0477 13.8261L32.0795 15.7089L31.3487 18.8645L35.8482 9.2305L39.8233 13.8261V17.5918Z" fill="#F0F0F0"/>
<path d="M31.955 10.1818C31.6741 10.3649 31.4404 10.6119 31.2729 10.9026C31.1055 11.1933 31.0091 11.5196 30.9916 11.8547C30.9916 12.4714 31.4242 12.7207 31.955 12.4123C32.2355 12.2286 32.4688 11.9815 32.6361 11.6909C32.8035 11.4003 32.9002 11.0743 32.9185 10.7394C32.9185 10.1293 32.4859 9.87999 31.955 10.1818Z" fill="#F0F0F0"/>
<path d="M4.26672 46.8545L4.99097 47.2875L19.856 38.6966L19.1317 38.2637L4.26672 46.8545Z" fill="#FAFAFA"/>
<path d="M19.1317 38.2637L4.99097 46.4347V31.6114L19.1317 23.447V38.2637Z" fill="white"/>
<path d="M21.2225 20.6489L3.62439 30.8176V49.6525L21.2225 39.4839V20.6489ZM19.8559 38.6901L4.99095 47.2875V31.6114L19.8559 23.0205V38.6901Z" fill="#F0F0F0"/>
<path d="M19.8558 38.6966L19.1316 38.2636V23.4469L19.8558 23.0205V38.6966Z" fill="#E0E0E0"/>
<path d="M21.2225 20.6489L20.4885 20.229L2.88708 30.401L3.62444 30.8208L21.2225 20.6489Z" fill="#FAFAFA"/>
<path d="M2.88708 30.401L3.62444 30.8209V49.6558L2.88708 49.236V30.401Z" fill="#E0E0E0"/>
<path d="M18.5779 37.8208L5.5415 45.3555V41.5865L8.80223 34.0519L10.834 35.9347L10.1032 39.0935L14.6027 29.4563L18.5779 34.0519V37.8208Z" fill="#F0F0F0"/>
<path d="M10.7096 30.4141C10.4292 30.5978 10.1958 30.8449 10.0285 31.1355C9.8611 31.4261 9.76437 31.7521 9.74609 32.087C9.74609 32.7037 10.1787 32.953 10.7096 32.6446C10.9905 32.4615 11.2243 32.2146 11.3917 31.9238C11.5591 31.6331 11.6555 31.3069 11.673 30.9717C11.673 30.3551 11.2437 30.1058 10.7096 30.4141Z" fill="#F0F0F0"/>
<path d="M77.589 133.249C103.072 133.249 123.731 121.31 123.731 106.584C123.731 91.8573 103.072 79.919 77.589 79.919C52.1056 79.919 31.4473 91.8573 31.4473 106.584C31.4473 121.31 52.1056 133.249 77.589 133.249Z" fill="#E0E0E0"/>
<path d="M20.423 123.438C11.7255 128.463 11.7255 136.614 20.423 141.639C29.1205 146.665 43.2219 146.665 51.9193 141.639C60.6168 136.614 60.6168 128.463 51.9193 123.438C43.2219 118.412 29.1205 118.429 20.423 123.438Z" fill="#E0E0E0"/>
<path d="M58.7454 57.571C55.9927 56.9904 53.371 59.9393 48.4979 61.6811C39.4334 64.9613 35.1404 68.3596 30.6213 72.5944C26.1021 76.8291 24.6766 75.8746 23.1331 78.6562C21.5895 81.4378 24.8404 83.055 26.0038 87.3652C27.9701 94.6276 30.831 99.6758 34.036 102.966C39.689 108.769 38.3487 112.232 41.1801 112.511C44.1983 112.803 44.2606 110.192 49.1959 108.87C60.869 105.741 65.8896 102.366 71.9031 95.2672C74.2495 92.4954 76.7958 93.0301 77.602 90.1927C78.005 88.7724 75.9863 87.7654 74.587 83.0222C72.2603 75.1497 68.0033 67.5166 63.5038 63.3048C61.5375 61.481 61.5343 58.1614 58.7454 57.571Z" fill="#92E3A9"/>
<path opacity="0.3" d="M58.7454 57.571C55.9927 56.9904 53.371 59.9393 48.4979 61.6811C39.4334 64.9613 35.1404 68.3596 30.6213 72.5944C26.1021 76.8291 24.6766 75.8746 23.1331 78.6562C21.5895 81.4378 24.8404 83.055 26.0038 87.3652C27.9701 94.6276 30.831 99.6758 34.036 102.966C39.689 108.769 38.3487 112.232 41.1801 112.511C44.1983 112.803 44.2606 110.192 49.1959 108.87C60.869 105.741 65.8896 102.366 71.9031 95.2672C74.2495 92.4954 76.7958 93.0301 77.602 90.1927C78.005 88.7724 75.9863 87.7654 74.587 83.0222C72.2603 75.1497 68.0033 67.5166 63.5038 63.3048C61.5375 61.481 61.5343 58.1614 58.7454 57.571Z" fill="black"/>
<path opacity="0.2" d="M25.6499 83.8553C27.6489 87.4636 26.9607 90.7864 31.162 97.4879C35.1895 103.924 38.3716 105.957 39.4989 108.772C40.4231 111.107 41.8978 112.314 42.5598 109.772C43.2217 107.23 41.9994 99.6036 37.9718 92.7742C33.3445 84.9017 30.1887 81.733 27.9635 80.4078C24.4865 78.3282 24.0768 81.0147 25.6499 83.8553Z" fill="black"/>
<path opacity="0.2" d="M49.6941 106.056C46.4891 106.784 46.0565 109.513 44.2705 111.462C45.3192 110.661 46.5645 109.589 49.1862 108.883C54.5049 107.46 58.4407 105.98 61.7179 104.124C57.5461 105.777 52.0209 105.528 49.6941 106.056ZM70.5923 93.9617C68.4851 95.5198 68.3311 98.6819 65.6963 101.46C67.9667 99.6134 70.0461 97.5431 71.9031 95.2803C74.0464 92.748 76.3502 92.9678 77.3497 90.8651C75.4195 92.8431 73.1288 92.0887 70.5923 93.9617Z" fill="black"/>
<path opacity="0.3" d="M54.1608 63.8263C47.4329 64.3381 40.4658 67.018 35.3797 71.6005C34.8773 72.0787 34.474 72.6513 34.1929 73.2856C33.9117 73.9199 33.7582 74.6035 33.7412 75.2972C33.7026 76.1677 33.8846 77.0337 34.2702 77.8148C34.6558 78.596 35.2325 79.2668 35.9467 79.7649C37.4017 80.8113 39.6695 81.077 41.3113 81.0311C44.7719 80.9654 46.8824 80.293 51.3032 80.703C52.9239 80.8963 54.4747 81.4756 55.8256 82.3923C57.8705 83.8422 59.3485 85.3905 61.1411 86.6205C63.6153 88.3164 68.3507 88.1819 70.1433 86.7386C72.0637 85.1936 72.7355 82.6351 71.5427 79.1941C68.9079 71.5808 63.2647 63.8198 54.1608 63.8263Z" fill="#92E3A9"/>
<path d="M36.6807 125.547C36.4626 125.435 36.2211 125.377 35.9761 125.377C35.7312 125.377 35.4897 125.435 35.2716 125.547C35.1908 125.582 35.1211 125.638 35.0698 125.71C35.0184 125.782 34.9874 125.866 34.9799 125.954L35.2716 142.151C35.2789 142.212 35.3018 142.269 35.338 142.318C35.3742 142.367 35.4224 142.405 35.478 142.43C35.6305 142.507 35.7988 142.547 35.9696 142.547C36.1403 142.547 36.3087 142.507 36.4612 142.43C36.5168 142.405 36.565 142.367 36.6012 142.318C36.6374 142.269 36.6603 142.212 36.6676 142.151L36.9593 125.954C36.953 125.867 36.924 125.784 36.875 125.712C36.8261 125.641 36.759 125.584 36.6807 125.547ZM20.8785 123.762C20.6594 123.652 20.4175 123.595 20.1723 123.595C19.927 123.595 19.6852 123.652 19.4661 123.762C19.3904 123.799 19.3275 123.858 19.2855 123.931C19.2434 124.004 19.2241 124.088 19.2301 124.172L18.5911 136.388C18.6083 136.45 18.6394 136.508 18.6819 136.557C18.7245 136.606 18.7774 136.644 18.8368 136.67C18.9897 136.746 19.1579 136.785 19.3284 136.785C19.4989 136.785 19.6671 136.746 19.82 136.67C19.872 136.644 19.9155 136.604 19.9452 136.554C19.9748 136.504 19.9894 136.446 19.9871 136.388L21.2128 124.172C21.192 124.083 21.1511 124 21.0932 123.929C21.0353 123.857 20.9618 123.801 20.8785 123.762ZM52.4174 124.172C52.4234 124.088 52.4041 124.004 52.3621 123.931C52.32 123.858 52.2571 123.799 52.1815 123.762C51.9629 123.652 51.7216 123.595 51.4769 123.595C51.2322 123.595 50.9909 123.652 50.7723 123.762C50.6858 123.798 50.609 123.854 50.5481 123.925C50.4871 123.997 50.4438 124.081 50.4217 124.172L51.6473 136.388C51.645 136.446 51.6596 136.504 51.6892 136.554C51.7189 136.604 51.7624 136.644 51.8144 136.67C51.9673 136.746 52.1355 136.785 52.306 136.785C52.4765 136.785 52.6447 136.746 52.7976 136.67C52.8574 136.645 52.9107 136.607 52.9533 136.558C52.9959 136.509 53.0267 136.451 53.0434 136.388L52.4174 124.172Z" fill="#455A64"/>
<path d="M58.326 116.29H58.3031C58.3031 112.987 56.1435 109.681 51.7784 107.158C43.0514 102.116 28.9008 102.116 20.1739 107.158C15.8088 109.681 13.6459 112.987 13.6492 116.29H13.6262V118.065C13.6787 121.329 15.8678 124.579 20.1804 127.069C28.9074 132.114 43.058 132.114 51.7849 127.069C56.0943 124.579 58.2802 121.329 58.3391 118.065L58.326 116.29Z" fill="#92E3A9"/>
<path opacity="0.6" d="M58.326 116.29H58.3031C58.3031 112.987 56.1435 109.681 51.7784 107.158C43.0514 102.116 28.9008 102.116 20.1739 107.158C15.8088 109.681 13.6459 112.987 13.6492 116.29H13.6262V118.065C13.6787 121.329 15.8678 124.579 20.1804 127.069C28.9074 132.114 43.058 132.114 51.7849 127.069C56.0943 124.579 58.2802 121.329 58.3391 118.065L58.326 116.29Z" fill="white"/>
<path d="M20.174 107.158C11.447 112.196 11.447 120.397 20.174 125.425C28.901 130.454 43.0515 130.467 51.7785 125.425C60.5054 120.384 60.5054 112.203 51.7785 107.158C43.0515 102.113 28.901 102.116 20.174 107.158Z" fill="#92E3A9"/>
<path opacity="0.8" d="M20.174 107.158C11.447 112.196 11.447 120.397 20.174 125.425C28.901 130.454 43.0515 130.467 51.7785 125.425C60.5054 120.384 60.5054 112.203 51.7785 107.158C43.0515 102.113 28.901 102.116 20.174 107.158Z" fill="white"/>
<g opacity="0.2">
<path d="M27.3637 112.731C29.5135 113.974 29.5135 115.988 27.3637 117.231C25.2139 118.475 21.7238 118.475 19.574 117.231C17.4242 115.988 17.4242 113.974 19.574 112.731C21.7238 111.488 25.2139 111.488 27.3637 112.731Z" fill="#92E3A9"/>
</g>
<path d="M20.0427 115.26C18.1715 113.348 17.0704 108.568 18.8957 107.06H28.1929C30.0215 108.575 28.9204 113.351 27.0492 115.26L26.9967 115.313L26.9345 115.378L26.7641 115.529L26.7182 115.562L26.5773 115.67C26.4992 115.726 26.4182 115.777 26.3348 115.824C24.7945 116.716 22.2974 116.716 20.7637 115.824C20.6799 115.776 20.599 115.724 20.5212 115.667C20.4753 115.637 20.4327 115.601 20.3901 115.568L20.3344 115.526L20.1705 115.381L20.0951 115.306L20.0427 115.26Z" fill="#F0F0F0"/>
<path d="M27.3867 106.44C29.507 107.666 29.507 109.654 27.3867 110.881C25.2664 112.108 21.8156 112.104 19.7052 110.881C17.5947 109.657 17.5849 107.666 19.7052 106.44C21.8255 105.213 25.2664 105.216 27.3867 106.44Z" fill="#FAFAFA"/>
<path d="M25.8825 107.309C27.1737 108.057 27.1737 109.277 25.8825 110.012C25.1583 110.379 24.3578 110.57 23.5459 110.57C22.7341 110.57 21.9336 110.379 21.2094 110.012C19.9182 109.264 19.9182 108.044 21.2094 107.309C21.9336 106.942 22.7341 106.75 23.5459 106.75C24.3578 106.75 25.1583 106.942 25.8825 107.309Z" fill="#E0E0E0"/>
<path d="M21.2094 108.588C21.9337 108.221 22.7342 108.03 23.546 108.03C24.3579 108.03 25.1583 108.221 25.8826 108.588C26.1947 108.757 26.4604 109 26.656 109.297C26.4596 109.593 26.1942 109.837 25.8826 110.008C25.1583 110.376 24.3579 110.567 23.546 110.567C22.7342 110.567 21.9337 110.376 21.2094 110.008C20.8971 109.838 20.6315 109.594 20.436 109.297C20.6308 109 20.8967 108.756 21.2094 108.588Z" fill="#455A64"/>
<path d="M25.5974 109.3C26.2589 108.63 26.8276 107.874 27.2884 107.053C28.0684 105.669 28.7369 103.914 28.3306 103.684C27.9242 103.455 25.7646 105.209 25.7646 105.209C25.9134 104.433 25.9706 103.641 25.935 102.851C25.8662 101.621 25.5679 100.502 25.214 100.276C24.8601 100.05 24.0769 101.588 23.736 102.726C23.3952 103.865 23.2641 104.55 23.2641 104.55C23.2641 104.55 22.9659 103.258 22.6087 102.188C22.1991 101.021 21.8288 100.755 21.5404 100.876C21.252 100.998 21.0619 101.532 20.9767 103.09C20.9462 103.834 20.9692 104.578 21.0455 105.318C21.0455 105.318 20.4655 104.681 19.8232 104.061C19.1186 103.382 18.6205 103.382 18.4173 103.514C18.2141 103.645 18.355 104.606 19.4496 106.584C19.9929 107.592 20.6894 108.509 21.5142 109.303C21.5142 109.303 23.0118 110.277 25.5974 109.3Z" fill="#92E3A9"/>
<g opacity="0.2">
<path d="M25.5974 109.3C26.2589 108.63 26.8276 107.874 27.2884 107.053C28.0684 105.669 28.7369 103.914 28.3306 103.684C27.9242 103.455 25.7646 105.209 25.7646 105.209C25.9134 104.433 25.9706 103.641 25.935 102.851C25.8662 101.621 25.5679 100.502 25.214 100.276C24.8601 100.05 24.0769 101.588 23.736 102.726C23.3952 103.865 23.2641 104.55 23.2641 104.55C23.2641 104.55 22.9659 103.258 22.6087 102.188C22.1991 101.021 21.8288 100.755 21.5404 100.876C21.252 100.998 21.0619 101.532 20.9767 103.09C20.9462 103.834 20.9692 104.578 21.0455 105.318C21.0455 105.318 20.4655 104.681 19.8232 104.061C19.1186 103.382 18.6205 103.382 18.4173 103.514C18.2141 103.645 18.355 104.606 19.4496 106.584C19.9929 107.592 20.6894 108.509 21.5142 109.303C21.5142 109.303 23.0118 110.277 25.5974 109.3Z" fill="black"/>
</g>
<path opacity="0.2" d="M23.7361 102.726C23.4084 103.851 23.2642 104.55 23.2642 104.55L23.4706 105.534C23.4706 105.534 23.6804 103.415 23.9786 102.051C23.877 102.274 23.8049 102.51 23.7361 102.726Z" fill="black"/>
<path opacity="0.2" d="M21.3994 104.425C21.2127 103.537 21.1128 102.633 21.1012 101.726C21.0261 102.176 20.979 102.631 20.9603 103.087C20.9298 103.83 20.9528 104.575 21.0291 105.314L22.5235 106.879C22.0668 106.101 21.6901 105.279 21.3994 104.425Z" fill="black"/>
<path opacity="0.2" d="M24.8208 106.128L25.7646 105.21C25.9132 104.433 25.9704 103.641 25.935 102.851C25.9118 102.382 25.8482 101.915 25.7449 101.457C25.8399 102.211 25.8034 102.976 25.6368 103.717C25.4141 104.537 25.1416 105.342 24.8208 106.128Z" fill="black"/>
<path opacity="0.2" d="M51.0378 114.374C46.8234 111.937 39.9906 111.937 35.7763 114.374C31.5619 116.812 31.5619 120.758 35.7763 123.192C39.9906 125.626 46.8234 125.629 51.0378 123.192C55.2521 120.754 55.2521 116.808 51.0378 114.374Z" fill="#92E3A9"/>
<path d="M50.7494 113.544C46.6989 111.202 40.1348 111.202 36.0843 113.544C34.0361 114.712 33.053 116.247 33.053 117.773V118.209C33.053 119.741 34.0656 121.276 36.0909 122.447C40.1414 124.786 46.7054 124.786 50.7559 122.447C52.7812 121.276 53.7938 119.741 53.7938 118.209V117.773C53.7774 116.251 52.7648 114.716 50.7494 113.544Z" fill="#F0F0F0"/>
<path opacity="0.1" d="M39.9644 123.434V112.127C38.5998 112.387 37.2862 112.865 36.0745 113.545C34.0361 114.712 33.053 116.247 33.053 117.773V118.209C33.053 119.741 34.0656 121.276 36.0909 122.447C37.5651 123.26 39.1775 123.792 40.846 124.015C40.0103 123.877 39.9644 123.434 39.9644 123.434Z" fill="black"/>
<path d="M50.7494 113.544C46.6988 111.202 40.1348 111.202 36.0843 113.544C32.0338 115.887 32.0338 119.678 36.0843 122.017C40.1348 124.356 46.6988 124.359 50.7494 122.017C54.7999 119.675 54.79 115.883 50.7494 113.544Z" fill="white"/>
<path d="M48.7832 114.896C45.8338 113.18 41.0098 113.18 38.0441 114.896C35.0783 116.612 35.075 119.387 38.0441 121.102C41.0131 122.818 45.8174 122.814 48.7832 121.102C51.7489 119.39 51.7326 116.608 48.7832 114.896Z" fill="#F0F0F0"/>
<path d="M48.1278 115.575C45.529 114.073 41.3147 114.073 38.7159 115.575C36.1172 117.077 36.1172 119.511 38.7159 121.014C41.3147 122.516 45.529 122.516 48.1278 121.014C50.7265 119.511 50.7101 117.077 48.1278 115.575Z" fill="white"/>
<path d="M36.0023 121.673C36.8665 122.122 37.7805 122.468 38.7256 122.703C39.6658 122.942 40.6254 123.097 41.5931 123.165C42.5594 123.241 43.5302 123.241 44.4966 123.165C45.4614 123.089 46.4183 122.933 47.3575 122.7C48.2948 122.47 49.203 122.134 50.0644 121.699C50.9294 121.276 51.7023 120.687 52.3387 119.964C52.6486 119.601 52.8956 119.188 53.0695 118.744C53.2414 118.297 53.3141 117.818 53.2825 117.34C53.2479 116.859 53.1151 116.39 52.8926 115.962C52.7835 115.745 52.6564 115.538 52.5124 115.342C52.3701 115.145 52.2146 114.957 52.0471 114.781C52.2248 114.948 52.3912 115.127 52.5452 115.316C52.6984 115.508 52.8365 115.712 52.9581 115.926C53.2054 116.358 53.3616 116.835 53.4169 117.33C53.4652 117.828 53.4048 118.33 53.2399 118.803C53.0733 119.279 52.8249 119.723 52.5059 120.115C52.1912 120.499 51.8326 120.844 51.4375 121.145C51.0434 121.445 50.6247 121.712 50.1857 121.942C49.3076 122.392 48.3806 122.738 47.4231 122.975C45.5093 123.436 43.5319 123.571 41.5734 123.375C40.5961 123.285 39.6295 123.102 38.6863 122.831C38.2178 122.691 37.7572 122.525 37.3066 122.335C36.8565 122.146 36.4207 121.925 36.0023 121.673Z" fill="white"/>
<path d="M47.1445 115.693C45.0799 114.502 41.7373 114.502 39.676 115.693C37.6147 116.884 37.6147 118.816 39.676 120.01C41.7373 121.204 45.0799 121.201 47.1445 120.01C49.2091 118.819 49.2026 116.884 47.1445 115.693Z" fill="#F0F0F0"/>
<path opacity="0.1" d="M47.1446 119.265L40.3478 115.496L33.053 117.792C33.053 119.321 34.0722 120.85 36.0909 122.014C37.3032 122.692 38.6166 123.171 39.9808 123.431L47.1446 119.265Z" fill="black"/>
<path d="M32.6892 113.371C32.6892 114.965 34.2196 115.788 35.396 116.283C36.2809 116.654 36.9527 116.779 37.4115 117.156C37.3689 116.936 36.3562 111.537 36.3562 111.537C35.9297 111.274 35.4344 111.145 34.934 111.166C34.631 111.174 34.3348 111.258 34.0721 111.409L33.5248 111.737C33.2485 111.906 33.0241 112.147 32.8767 112.436C32.7292 112.724 32.6643 113.048 32.6892 113.371ZM34.2523 113.043C34.256 112.815 34.3382 112.596 34.485 112.423C34.5456 112.412 34.607 112.407 34.6685 112.406C34.8809 112.401 35.0922 112.438 35.2902 112.515C35.4882 112.593 35.669 112.708 35.8221 112.856C36.0921 113.604 36.3047 114.371 36.4578 115.152L36.3038 115.089C34.8291 114.492 34.2523 113.836 34.2523 113.056V113.043Z" fill="#FAFAFA"/>
<path d="M32.6892 113.371C32.6892 114.965 34.2196 115.788 35.3961 116.283C36.2809 116.654 36.9527 116.779 37.4115 117.156C37.0292 115.351 36.4931 113.582 35.809 111.868C35.3837 111.605 34.8894 111.476 34.39 111.498C33.7412 111.498 32.6892 111.908 32.6892 113.371ZM33.7051 113.371C33.706 113.245 33.7316 113.12 33.7805 113.005C33.8293 112.889 33.9005 112.784 33.99 112.695C34.0795 112.607 34.1855 112.537 34.3019 112.49C34.4183 112.442 34.5429 112.419 34.6686 112.419C34.881 112.414 35.0923 112.451 35.2903 112.529C35.4882 112.606 35.669 112.721 35.8221 112.869C36.1611 113.786 36.3985 114.737 36.53 115.706C36.2809 115.618 36.0384 115.532 35.7599 115.417C34.2852 114.794 33.7084 114.164 33.7084 113.371H33.7051Z" fill="#E0E0E0"/>
<path opacity="0.1" d="M35.6747 115.378C35.8638 115.819 36.0931 116.242 36.3596 116.641C36.7377 116.752 37.0944 116.926 37.4148 117.156C37.0315 115.351 36.4942 113.582 35.8091 111.868C35.5772 111.726 35.3237 111.622 35.0586 111.56V112.475C35.3453 112.541 35.609 112.682 35.8222 112.885C36.1611 113.802 36.3985 114.754 36.53 115.723C36.281 115.634 36.0385 115.549 35.7599 115.434L35.6747 115.378Z" fill="black"/>
<path d="M51.2213 110.776C51.2213 109.638 50.4676 108.496 48.9634 107.627C45.955 105.888 41.0754 105.888 38.067 107.627C36.5628 108.496 35.8091 109.638 35.8091 110.776V112.449C35.8091 113.462 36.0084 114.465 36.3958 115.401C36.7831 116.337 37.3509 117.188 38.0666 117.904C38.7824 118.621 39.6321 119.189 40.5672 119.577C41.5024 119.964 42.5046 120.164 43.5168 120.164C45.5605 120.163 47.5202 119.35 48.9649 117.903C50.4097 116.456 51.2213 114.495 51.2213 112.449V110.776Z" fill="#FAFAFA"/>
<path d="M43.5168 106.39C45.4026 106.35 47.267 106.797 48.9306 107.686C50.366 108.516 51.1558 109.612 51.1558 110.776V112.449C51.1558 114.477 50.351 116.422 48.9184 117.856C47.4858 119.29 45.5428 120.095 43.5168 120.095C41.4909 120.095 39.5479 119.29 38.1153 117.856C36.6827 116.422 35.8779 114.477 35.8779 112.449V110.776C35.8779 109.612 36.6677 108.516 38.0998 107.686C39.7645 106.796 41.63 106.35 43.5168 106.39ZM43.5168 106.325C41.5506 106.325 39.5843 106.758 38.067 107.637C36.5497 108.516 35.8091 109.648 35.8091 110.786V112.459C35.8091 114.505 36.6211 116.467 38.0666 117.914C39.5121 119.361 41.4726 120.174 43.5168 120.174C45.5605 120.173 47.5202 119.36 48.9649 117.913C50.4097 116.466 51.2213 114.504 51.2213 112.459V110.786C51.2213 109.648 50.4676 108.506 48.9634 107.637C47.4592 106.768 45.4864 106.325 43.5168 106.325Z" fill="#E0E0E0"/>
<path d="M41.1114 118.98C37.8933 117.602 38.0211 115.044 39.0895 115.165C40.1578 115.286 42.1372 115.667 44.749 115.165L44.772 108.057L37.0675 108.332C36.2286 109.07 35.8091 109.92 35.8091 110.769V112.442C35.8091 114.489 36.6211 116.451 38.0666 117.898C39.5121 119.345 41.4726 120.157 43.5168 120.157C45.3229 120.161 47.072 119.525 48.4555 118.363C47.3803 119.072 46.1448 119.5 44.8619 119.607C43.579 119.715 42.2896 119.499 41.1114 118.98Z" fill="#E0E0E0"/>
<path d="M48.9632 107.627C45.9549 105.888 41.0752 105.888 38.0668 107.627C35.0584 109.366 35.0584 112.187 38.0668 113.925C41.0752 115.664 45.9549 115.664 48.9632 113.925C51.9716 112.187 51.9749 109.369 48.9632 107.627ZM48.7306 113.531C47.1112 114.346 45.3231 114.769 43.5107 114.765C41.6982 114.761 39.912 114.33 38.2962 113.508C36.9854 112.754 36.2743 111.783 36.2743 110.766C36.2743 109.749 36.9919 108.778 38.2962 108.024C39.9136 107.209 41.6993 106.784 43.5101 106.784C45.321 106.784 47.1067 107.209 48.724 108.024C50.0349 108.778 50.746 109.753 50.746 110.766C50.746 111.78 50.0349 112.764 48.7306 113.508V113.531Z" fill="white"/>
<path d="M48.7306 108.034C47.1133 107.218 45.3276 106.794 43.5167 106.794C41.7059 106.794 39.9202 107.218 38.3029 108.034C36.992 108.788 36.2809 109.762 36.2809 110.776C36.2812 111.067 36.338 111.356 36.448 111.626C36.8409 110.806 37.4929 110.14 38.3029 109.73C39.9202 108.914 41.7059 108.49 43.5167 108.49C45.3276 108.49 47.1133 108.914 48.7306 109.73C49.5389 110.141 50.1896 110.807 50.5822 111.626C50.6933 111.356 50.7512 111.068 50.7526 110.776C50.7493 109.762 50.0349 108.788 48.7306 108.034Z" fill="#EBEBEB"/>
<path d="M43.5168 106.794C41.6992 106.752 39.9014 107.179 38.2964 108.034C36.9855 108.788 36.2744 109.762 36.2744 110.776C36.2747 111.067 36.3315 111.356 36.4415 111.626C36.8344 110.806 37.4864 110.14 38.2964 109.73C39.8995 108.876 41.6949 108.449 43.5103 108.49H43.8773C43.4021 108.49 42.3993 108.244 42.7369 107.591C43.0744 106.938 43.9822 106.794 44.6409 106.836C44.2771 106.81 43.897 106.794 43.5168 106.794Z" fill="#E0E0E0"/>
<path opacity="0.1" d="M43.5168 106.794C41.6992 106.752 39.9014 107.179 38.2964 108.034C36.9855 108.788 36.2744 109.762 36.2744 110.776C36.2747 111.067 36.3315 111.356 36.4415 111.626C36.8344 110.806 37.4864 110.14 38.2964 109.73C39.8995 108.876 41.6949 108.449 43.5103 108.49H43.8773C43.4021 108.49 42.3993 108.244 42.7369 107.591C43.0744 106.938 43.9822 106.794 44.6409 106.836C44.2771 106.81 43.897 106.794 43.5168 106.794Z" fill="black"/>
<path d="M50.7494 110.776C50.7494 109.881 50.189 109.018 49.1567 108.306C49.6417 108.867 49.3697 109.871 48.3243 109.516C48.462 109.585 48.5996 109.657 48.734 109.733C49.5423 110.144 50.1929 110.811 50.5855 111.629C50.6948 111.358 50.7505 111.068 50.7494 110.776Z" fill="#E0E0E0"/>
<path opacity="0.1" d="M50.7494 110.776C50.7494 109.881 50.189 109.018 49.1567 108.306C49.6417 108.867 49.3697 109.871 48.3243 109.516C48.462 109.585 48.5996 109.657 48.734 109.733C49.5423 110.144 50.1929 110.811 50.5855 111.629C50.6948 111.358 50.7505 111.068 50.7494 110.776Z" fill="black"/>
<path d="M48.7307 109.73C47.1134 108.914 45.3277 108.49 43.5168 108.49C41.706 108.49 39.9203 108.914 38.303 109.73C37.493 110.14 36.841 110.806 36.4481 111.626C36.8414 112.439 37.4908 113.1 38.2964 113.508C39.9131 114.326 41.6991 114.752 43.5103 114.752C45.3215 114.752 47.1075 114.326 48.7242 113.508C49.5323 113.098 50.1829 112.433 50.5758 111.616C50.1831 110.802 49.535 110.14 48.7307 109.73Z" fill="#92E3A9"/>
<path opacity="0.4" d="M48.7307 109.73C47.1134 108.914 45.3277 108.49 43.5168 108.49C41.706 108.49 39.9203 108.914 38.303 109.73C37.493 110.14 36.841 110.806 36.4481 111.626C36.8414 112.439 37.4908 113.1 38.2964 113.508C39.9131 114.326 41.6991 114.752 43.5103 114.752C45.3215 114.752 47.1075 114.326 48.7242 113.508C49.5323 113.098 50.1829 112.433 50.5758 111.616C50.1831 110.802 49.535 110.14 48.7307 109.73Z" fill="black"/>
<path opacity="0.3" d="M38.2963 109.73C37.4863 110.14 36.8343 110.806 36.4414 111.626C36.8364 112.44 37.4882 113.102 38.2963 113.508C39.4339 114.134 40.6852 114.526 41.9765 114.66C41.5603 114.437 41.013 114.004 40.5542 113.895C40.3936 113.863 40.2429 113.813 40.0856 113.771C39.8313 113.721 39.6007 113.589 39.4301 113.394C39.3515 113.306 39.2978 113.199 39.2748 113.084C39.2517 112.968 39.2601 112.849 39.2991 112.738C39.3634 112.604 39.4631 112.49 39.5874 112.41C40.0135 112.082 40.5706 111.977 40.9966 111.691C41.1179 111.627 41.213 111.523 41.2653 111.396C41.2791 111.323 41.2769 111.247 41.2588 111.175C41.2407 111.102 41.2071 111.034 41.1605 110.976C41.072 110.855 40.9573 110.756 40.8655 110.648C40.8173 110.591 40.7817 110.524 40.7608 110.453C40.7399 110.381 40.7343 110.306 40.7443 110.231C40.7634 110.139 40.813 110.056 40.8852 109.995C41.1695 109.798 41.4982 109.674 41.8421 109.634C41.937 109.614 42.0268 109.575 42.1057 109.518C42.1846 109.462 42.2511 109.39 42.3009 109.306C42.3992 109.139 42.3009 108.929 42.3894 108.759C42.4463 108.664 42.5264 108.585 42.622 108.529C41.1084 108.6 39.63 109.01 38.2963 109.73ZM38.2143 112C38.1963 112.008 38.1767 112.012 38.157 112.012C38.1372 112.012 38.1177 112.008 38.0996 112C38.0669 111.98 38.0669 111.95 38.0996 111.931C38.1177 111.923 38.1372 111.918 38.157 111.918C38.1767 111.918 38.1963 111.923 38.2143 111.931C38.2537 111.95 38.2537 111.98 38.2209 112H38.2143ZM38.9386 113.046C38.883 113.073 38.8219 113.088 38.76 113.088C38.698 113.088 38.6369 113.073 38.5814 113.046C38.483 112.987 38.483 112.895 38.5814 112.839C38.6364 112.81 38.6977 112.795 38.76 112.795C38.8222 112.795 38.8835 112.81 38.9386 112.839C39.0434 112.895 39.0434 112.987 38.9517 113.046H38.9386ZM39.0926 112.58C39.0745 112.588 39.055 112.592 39.0352 112.592C39.0155 112.592 38.9959 112.588 38.9779 112.58C38.9717 112.577 38.9666 112.572 38.9631 112.566C38.9595 112.56 38.9576 112.553 38.9576 112.546C38.9576 112.539 38.9595 112.532 38.9631 112.526C38.9666 112.52 38.9717 112.515 38.9779 112.511C38.9959 112.503 39.0155 112.499 39.0352 112.499C39.055 112.499 39.0745 112.503 39.0926 112.511C39.1319 112.524 39.1319 112.56 39.0991 112.58H39.0926ZM39.168 111.819C39.0795 111.862 38.9826 111.884 38.8845 111.884C38.7864 111.884 38.6895 111.862 38.601 111.819C38.5671 111.807 38.5377 111.785 38.5169 111.756C38.4961 111.726 38.4849 111.691 38.4849 111.655C38.4849 111.619 38.4961 111.584 38.5169 111.555C38.5377 111.525 38.5671 111.503 38.601 111.491C38.6887 111.446 38.7859 111.422 38.8845 111.422C38.9831 111.422 39.0803 111.446 39.168 111.491C39.2022 111.502 39.232 111.524 39.2534 111.553C39.2748 111.582 39.2867 111.617 39.2874 111.653C39.2881 111.689 39.2776 111.724 39.2574 111.754C39.2372 111.784 39.2082 111.806 39.1745 111.819H39.168ZM40.3641 109.962C40.3925 109.948 40.4239 109.94 40.4559 109.94C40.4878 109.94 40.5193 109.948 40.5476 109.962C40.5968 109.992 40.5968 110.041 40.5476 110.067C40.5193 110.082 40.4878 110.09 40.4559 110.09C40.4239 110.09 40.3925 110.082 40.3641 110.067C40.3215 110.041 40.3215 109.992 40.3707 109.962H40.3641ZM39.535 110.619C39.5011 110.607 39.4717 110.584 39.4509 110.555C39.4301 110.526 39.4189 110.491 39.4189 110.455C39.4189 110.419 39.4301 110.383 39.4509 110.354C39.4717 110.325 39.5011 110.302 39.535 110.291C39.6235 110.248 39.7203 110.226 39.8185 110.226C39.9166 110.226 40.0135 110.248 40.1019 110.291C40.1359 110.302 40.1653 110.325 40.1861 110.354C40.2069 110.383 40.218 110.419 40.218 110.455C40.218 110.491 40.2069 110.526 40.1861 110.555C40.1653 110.584 40.1359 110.607 40.1019 110.619C40.0143 110.66 39.9187 110.681 39.8218 110.681C39.7249 110.681 39.6292 110.66 39.5416 110.619H39.535ZM39.9086 111.855C39.8808 111.87 39.8499 111.877 39.8185 111.877C39.7871 111.877 39.7561 111.87 39.7284 111.855C39.6759 111.826 39.6759 111.776 39.7284 111.75C39.7561 111.736 39.7871 111.728 39.8185 111.728C39.8499 111.728 39.8808 111.736 39.9086 111.75C39.9676 111.776 39.9676 111.826 39.9151 111.868L39.9086 111.855ZM40.7279 111.045C40.7672 111.058 40.8015 111.083 40.8257 111.117C40.85 111.15 40.8631 111.19 40.8631 111.232C40.8631 111.273 40.85 111.314 40.8257 111.347C40.8015 111.381 40.7672 111.406 40.7279 111.419C40.6264 111.471 40.5141 111.498 40.4002 111.498C40.2862 111.498 40.1739 111.471 40.0724 111.419C39.8922 111.314 39.8922 111.15 40.0724 111.045C40.1748 110.992 40.2883 110.964 40.4034 110.964C40.5186 110.964 40.6321 110.992 40.7344 111.045H40.7279ZM41.321 109.51C41.3029 109.52 41.2826 109.525 41.262 109.525C41.2415 109.525 41.2212 109.52 41.2031 109.51C41.1736 109.493 41.1736 109.464 41.2031 109.444C41.2212 109.434 41.2415 109.429 41.262 109.429C41.2826 109.429 41.3029 109.434 41.321 109.444C41.3571 109.464 41.3571 109.493 41.3276 109.51H41.321Z" fill="#92E3A9"/>
<path opacity="0.3" d="M48.7306 109.73C48.4023 109.544 48.0618 109.381 47.7114 109.241C47.6156 109.264 47.5214 109.294 47.4296 109.329C47.3271 109.364 47.2378 109.429 47.174 109.516C47.0364 109.733 47.2035 110.012 47.387 110.195C47.6682 110.46 47.9782 110.692 48.3112 110.888C48.492 110.984 48.6559 111.109 48.7962 111.258C48.866 111.334 48.9134 111.428 48.9331 111.529C48.9528 111.631 48.9439 111.736 48.9076 111.832C48.8275 111.961 48.7229 112.072 48.5995 112.16C48.5383 112.205 48.4891 112.263 48.4565 112.332C48.4239 112.4 48.4088 112.475 48.4128 112.551C48.4484 112.66 48.513 112.757 48.5995 112.833C48.6434 112.874 48.6751 112.926 48.6913 112.984C48.7075 113.042 48.7075 113.103 48.6913 113.161C48.6609 113.209 48.6183 113.249 48.5677 113.276C48.5171 113.303 48.4603 113.317 48.4029 113.315C47.9772 113.335 47.5534 113.386 47.1347 113.466C46.9763 113.502 46.8331 113.587 46.725 113.709C46.6366 113.82 46.6005 113.968 46.5087 114.076C46.299 114.319 45.9189 114.266 45.5977 114.283C45.1837 114.33 44.7835 114.46 44.4212 114.666L44.2443 114.758C45.8161 114.694 47.3517 114.266 48.7306 113.508C49.5387 113.098 50.1894 112.433 50.5822 111.616C50.1878 110.801 49.5374 110.139 48.7306 109.73ZM48.144 109.972C48.0556 110.015 47.9587 110.037 47.8606 110.037C47.7624 110.037 47.6656 110.015 47.5771 109.972C47.5432 109.96 47.5138 109.938 47.493 109.909C47.4722 109.879 47.461 109.844 47.461 109.808C47.461 109.772 47.4722 109.737 47.493 109.708C47.5138 109.678 47.5432 109.656 47.5771 109.644C47.6648 109.599 47.7619 109.576 47.8606 109.576C47.9592 109.576 48.0564 109.599 48.144 109.644C48.178 109.656 48.2074 109.678 48.2281 109.708C48.2489 109.737 48.2601 109.772 48.2601 109.808C48.2601 109.844 48.2489 109.879 48.2281 109.909C48.2074 109.938 48.178 109.96 48.144 109.972ZM48.6159 110.435C48.5685 110.46 48.5156 110.473 48.4619 110.473C48.4082 110.473 48.3553 110.46 48.3079 110.435C48.2885 110.43 48.2714 110.418 48.2592 110.402C48.247 110.386 48.2404 110.366 48.2404 110.346C48.2404 110.326 48.247 110.307 48.2592 110.291C48.2714 110.275 48.2885 110.263 48.3079 110.258C48.3553 110.232 48.4082 110.219 48.4619 110.219C48.5156 110.219 48.5685 110.232 48.6159 110.258C48.6353 110.263 48.6524 110.275 48.6646 110.291C48.6768 110.307 48.6834 110.326 48.6834 110.346C48.6834 110.366 48.6768 110.386 48.6646 110.402C48.6524 110.418 48.6353 110.43 48.6159 110.435ZM47.4722 113.892C47.4178 113.92 47.3578 113.934 47.2969 113.934C47.236 113.934 47.176 113.92 47.1216 113.892C47.1003 113.885 47.0818 113.872 47.0687 113.854C47.0555 113.836 47.0484 113.814 47.0484 113.792C47.0484 113.77 47.0555 113.748 47.0687 113.73C47.0818 113.712 47.1003 113.699 47.1216 113.692C47.176 113.665 47.236 113.65 47.2969 113.65C47.3578 113.65 47.4178 113.665 47.4722 113.692C47.4934 113.699 47.512 113.712 47.5251 113.73C47.5383 113.748 47.5454 113.77 47.5454 113.792C47.5454 113.814 47.5383 113.836 47.5251 113.854C47.512 113.872 47.4934 113.885 47.4722 113.892ZM47.895 113.709C47.8631 113.723 47.8284 113.731 47.7934 113.731C47.7583 113.731 47.7237 113.723 47.6918 113.709C47.6794 113.704 47.6687 113.696 47.6611 113.686C47.6535 113.675 47.6495 113.663 47.6495 113.649C47.6495 113.636 47.6535 113.624 47.6611 113.613C47.6687 113.603 47.6794 113.595 47.6918 113.59C47.7232 113.574 47.758 113.566 47.7934 113.566C47.8287 113.566 47.8635 113.574 47.895 113.59C47.9071 113.596 47.9171 113.605 47.9234 113.617C47.9298 113.629 47.9323 113.642 47.9304 113.656C47.9286 113.669 47.9226 113.681 47.9132 113.691C47.9039 113.7 47.8918 113.706 47.8786 113.709H47.895ZM49.3533 111.78C49.3787 111.767 49.4067 111.76 49.4352 111.76C49.4637 111.76 49.4918 111.767 49.5171 111.78C49.5276 111.783 49.5369 111.789 49.5435 111.797C49.5501 111.806 49.5537 111.816 49.5537 111.827C49.5537 111.838 49.5501 111.849 49.5435 111.857C49.5369 111.866 49.5276 111.872 49.5171 111.875C49.4918 111.888 49.4637 111.895 49.4352 111.895C49.4067 111.895 49.3787 111.888 49.3533 111.875C49.3419 111.875 49.331 111.87 49.3224 111.863C49.3138 111.855 49.308 111.845 49.3061 111.834C49.3041 111.823 49.3061 111.811 49.3118 111.801C49.3174 111.791 49.3263 111.784 49.3369 111.78H49.3533ZM49.5958 112.711C49.481 112.77 49.3542 112.8 49.2255 112.8C49.0968 112.8 48.9699 112.77 48.8552 112.711C48.8112 112.696 48.7732 112.667 48.7463 112.629C48.7194 112.59 48.7049 112.545 48.7049 112.498C48.7049 112.451 48.7194 112.406 48.7463 112.368C48.7732 112.329 48.8112 112.301 48.8552 112.285C48.9699 112.227 49.0968 112.196 49.2255 112.196C49.3542 112.196 49.481 112.227 49.5958 112.285C49.6392 112.302 49.6762 112.333 49.7017 112.372C49.7272 112.411 49.74 112.457 49.7382 112.504C49.7364 112.551 49.7202 112.596 49.6917 112.633C49.6633 112.67 49.624 112.697 49.5794 112.711H49.5958ZM49.858 111.347C49.7946 111.378 49.7252 111.394 49.6548 111.394C49.5844 111.394 49.5149 111.378 49.4516 111.347C49.4269 111.338 49.4055 111.323 49.3903 111.301C49.3751 111.28 49.3669 111.255 49.3669 111.229C49.3669 111.203 49.3751 111.177 49.3903 111.156C49.4055 111.135 49.4269 111.119 49.4516 111.111C49.5145 111.078 49.5841 111.062 49.6548 111.062C49.7254 111.062 49.7951 111.078 49.858 111.111C49.8822 111.121 49.9027 111.138 49.9166 111.16C49.9304 111.182 49.9369 111.208 49.9351 111.235C49.9333 111.261 49.9232 111.286 49.9065 111.306C49.8897 111.326 49.867 111.34 49.8416 111.347H49.858ZM50.2807 111.465C50.2553 111.478 50.2273 111.485 50.1988 111.485C50.1703 111.485 50.1422 111.478 50.1169 111.465C50.1064 111.462 50.0971 111.456 50.0905 111.447C50.0839 111.439 50.0803 111.428 50.0803 111.417C50.0803 111.406 50.0839 111.396 50.0905 111.387C50.0971 111.379 50.1064 111.373 50.1169 111.37C50.1422 111.357 50.1703 111.35 50.1988 111.35C50.2273 111.35 50.2553 111.357 50.2807 111.37C50.2913 111.374 50.3002 111.381 50.3058 111.391C50.3115 111.401 50.3135 111.413 50.3115 111.424C50.3096 111.435 50.3038 111.445 50.2952 111.453C50.2866 111.46 50.2757 111.465 50.2643 111.465H50.2807Z" fill="#92E3A9"/>
<path opacity="0.4" d="M42.4977 108.529C41.0286 108.618 39.5968 109.027 38.303 109.73C37.493 110.14 36.841 110.806 36.4481 111.626C36.8414 112.439 37.4908 113.1 38.2964 113.508C38.6535 113.714 39.026 113.892 39.4106 114.04C38.6471 113.6 37.8737 112.938 37.8737 112.072C37.8737 110.313 39.9907 108.805 42.4977 108.529Z" fill="black"/>
<path opacity="0.1" d="M44.4443 124.389C44.4427 124.382 44.4427 124.376 44.4443 124.369L44.4279 124.353L44.3984 124.333L34.8522 119.052C34.9955 118.849 35.0815 118.611 35.1012 118.363V118.294C35.1012 117.986 34.8653 117.638 34.3639 117.31C33.3185 116.589 30.9098 115.955 29.8841 116.549C29.7318 116.623 29.6104 116.749 29.541 116.903C29.4715 117.058 29.4584 117.232 29.5039 117.395C29.6398 117.907 29.9155 118.371 30.3003 118.734L30.3986 118.835L30.5165 118.95C30.7884 119.215 31.0989 119.436 31.4374 119.606C31.5349 119.656 31.6357 119.698 31.7389 119.734C31.9023 119.792 32.0699 119.837 32.2403 119.869C32.4977 119.915 32.7587 119.938 33.0203 119.938C33.4599 119.939 33.8911 119.817 34.2656 119.587L43.353 125.074C43.6414 125.238 44.4476 124.815 44.4476 124.576C44.4476 124.553 44.4476 124.454 44.4476 124.432L44.4443 124.389Z" fill="black"/>
<path d="M33.0137 119.541C34.1508 119.541 35.0815 118.757 35.0815 117.901L29.481 116.995C29.6549 117.612 30.0141 118.161 30.51 118.567C30.8388 118.891 31.2306 119.145 31.6612 119.313C32.0917 119.48 32.552 119.558 33.0137 119.541Z" fill="#EBEBEB"/>
<path opacity="0.15" d="M33.0137 119.541C34.1508 119.541 35.0815 118.757 35.0815 117.901L29.481 116.995C29.6549 117.612 30.0141 118.161 30.51 118.567C30.8388 118.891 31.2306 119.145 31.6612 119.313C32.0917 119.48 32.552 119.558 33.0137 119.541Z" fill="black"/>
<path opacity="0.15" d="M34.7997 118.029C34.7997 118.642 34.082 119.4 32.9449 119.396C32.4061 119.387 31.8747 119.269 31.3826 119.049C30.8904 118.829 30.4477 118.512 30.0807 118.117C30.2133 118.277 30.3567 118.427 30.51 118.567C30.838 118.893 31.2294 119.149 31.66 119.318C32.0906 119.487 32.5513 119.566 33.0137 119.551C34.1509 119.551 35.0816 118.767 35.0816 117.91L34.7965 117.865C34.7965 117.917 34.7965 117.976 34.7997 118.029Z" fill="black"/>
<path d="M34.3441 116.913C33.2987 116.192 30.89 115.559 29.8643 116.152C28.8385 116.746 29.9331 118.12 31.1751 118.74C32.4171 119.36 33.5641 119.265 34.4063 118.78C35.2486 118.294 35.3796 117.625 34.3441 116.913Z" fill="#E6E6E6"/>
<path d="M30.9787 115.975C32.1564 116.007 33.3052 116.346 34.3116 116.959C34.7966 117.287 35.0358 117.615 35.0227 117.943C35.0096 118.271 34.79 118.494 34.3836 118.731C33.9384 118.984 33.4342 119.115 32.9221 119.111C32.3259 119.103 31.7396 118.958 31.2081 118.688C30.284 118.238 29.5401 117.422 29.5204 116.825C29.515 116.696 29.5476 116.569 29.614 116.458C29.6805 116.348 29.7778 116.26 29.894 116.205C30.2302 116.037 30.6037 115.959 30.9787 115.978M30.9787 115.919C30.5932 115.901 30.2094 115.982 29.8645 116.156C28.8388 116.746 29.9333 118.124 31.1754 118.744C31.7157 119.016 32.3107 119.162 32.9155 119.17C33.4379 119.175 33.9522 119.041 34.4066 118.783C35.2488 118.294 35.3733 117.628 34.3378 116.917C33.3204 116.301 32.1604 115.962 30.9722 115.932L30.9787 115.919Z" fill="#E0E0E0"/>
<path d="M33.7543 117.061C32.7319 116.382 30.5985 115.749 29.8644 116.238C29.1303 116.726 30.333 118.025 31.5029 118.606C32.6729 119.186 33.6036 119.154 34.2033 118.74C34.803 118.327 34.7637 117.737 33.7543 117.061Z" fill="#F0F0F0"/>
<path d="M32.6073 116.815C31.8863 116.333 30.3723 115.877 29.8512 116.231C29.3302 116.585 30.1789 117.497 31.008 117.91C31.8372 118.324 32.4959 118.298 32.9219 118.006C33.3479 117.714 33.325 117.29 32.6073 116.815Z" fill="#FAFAFA"/>
<path d="M44.3787 123.94L34.6915 118.586C34.5009 118.728 34.2941 118.847 34.0754 118.94V119.085L43.3398 124.678C43.6282 124.845 44.4344 124.422 44.4344 124.182C44.4344 124.156 44.4344 124.061 44.4344 124.038C44.4347 124.018 44.4297 123.998 44.4199 123.981C44.4101 123.964 44.3959 123.949 44.3787 123.94Z" fill="#E0E0E0"/>
<path opacity="0.25" d="M44.3787 123.94L34.6915 118.586C34.5018 118.73 34.2948 118.849 34.0754 118.94V119.085L43.3398 124.678C43.6282 124.845 44.4344 124.422 44.4344 124.182C44.4344 124.156 44.4344 124.061 44.4344 124.038C44.4347 124.018 44.4297 123.998 44.4199 123.981C44.4101 123.964 44.3959 123.949 44.3787 123.94Z" fill="black"/>
<path d="M43.3464 124.537C43.6741 124.727 44.7097 124.13 44.3787 123.94L34.6915 118.586C34.5016 118.729 34.2947 118.848 34.0754 118.94L43.3464 124.537Z" fill="#F0F0F0"/>
<path d="M34.7571 118.737C34.7571 118.737 42.8384 123.185 43.4414 123.513C44.0968 123.877 44.5032 124.041 44.0968 124.284C43.6053 124.569 43.484 124.441 43.484 124.441C43.6483 124.426 43.8065 124.372 43.9461 124.284C44.1919 124.126 43.9789 123.913 43.4939 123.68C43.0088 123.447 34.7571 118.737 34.7571 118.737Z" fill="#FAFAFA"/>
<path d="M98.9229 139.055C96.406 140.573 93.1289 138.871 91.6182 136.686C90.1074 134.502 89.4684 132.678 89.4913 129.444C89.5208 125.714 91.0578 124.012 91.1725 122.201C91.3789 118.977 91.3953 116.556 93.8564 116.208C96.3175 115.86 98.9229 139.055 98.9229 139.055Z" fill="#263238"/>
<path d="M88.1773 83.0024C96.6977 81.4575 114.394 79.158 119.136 80.5324C123.878 81.9069 126.041 85.0526 125.425 89.1102C124.809 93.1678 122.803 96.9237 117.953 102.818C113.103 108.713 104.091 119.692 102.675 122.568C101.259 125.445 100.942 130.592 101.381 134.42C101.82 138.248 100.44 139.055 98.2314 139.101C96.0227 139.147 91.3266 136.093 90.7531 130.831C90.1796 125.57 92.0639 125.799 92.4965 121.847C92.9291 117.894 92.1327 117.599 93.8696 116.208C95.6065 114.817 97.6121 115.431 99.48 112.164C101.348 108.896 103.396 101.667 103.396 101.667L85.372 104.068C85.372 104.068 79.6764 101.631 81.0626 96.5727C82.4489 91.5146 88.1773 83.0024 88.1773 83.0024Z" fill="#FFBDA7"/>
<path d="M90.6777 129.995C92.29 128.725 100.725 131.103 101.332 133.967L101.243 129.319C101.243 129.319 98.002 124.176 91.2643 125.822C89.6454 128.181 90.6777 129.995 90.6777 129.995Z" fill="#263238"/>
<path d="M87.984 87.1814C89.2096 90.0254 88.3772 95.008 87.1155 97.3239C87.1155 97.3239 92.2671 99.7742 95.6164 100.506C98.9656 101.237 100.627 100.447 102.334 97.7798C104.042 95.113 105.412 91.1571 111.183 89.5497C106.267 92.1936 104.628 97.7503 103.396 101.687L85.3721 104.088C85.3721 104.088 80.712 103.602 82.3244 96.8253C83.9367 90.0483 87.984 87.1814 87.984 87.1814Z" fill="#F0997A"/>
<path d="M96.3012 120.275C94.833 120.121 93.6304 119.987 92.6472 119.872C92.716 117.737 92.4932 117.32 93.8827 116.208C95.6228 114.817 97.6284 115.431 99.4931 112.164C100.755 109.953 102.098 105.931 102.839 103.566C103.468 103.648 106.323 104.137 108.155 106.387C109.098 107.545 110.216 109.451 111.153 111.179C107.283 115.995 103.557 120.804 102.688 122.568C102.007 123.956 101.584 125.875 101.377 127.918C100.25 127.144 97.1172 123.552 96.3012 120.275Z" fill="#F0997A"/>
<path d="M141.853 143.03C142.548 144.041 142.508 145.943 140.185 147.557C137.862 149.171 133.49 150.404 130.242 149.876C126.995 149.348 125.53 147.875 123.501 146.639C121.61 145.481 120.938 145.792 119.569 145.235C118.199 144.677 118.258 142.45 118.258 142.45L141.853 143.03Z" fill="#263238"/>
<path d="M54.5115 93.9485C54.5115 97.7634 56.4777 110.871 70.802 114.342C79.3764 116.413 88.0528 118.034 96.7961 119.2C96.7961 119.2 98.6411 122.975 103.724 127.216C108.807 131.458 114.024 135.158 115.731 137.126C117.956 139.648 117.117 141.131 118.153 142.64C118.7 143.434 119.12 143.926 120.198 144.28C121.181 144.608 122.905 144.733 124.75 145.92C128.948 148.636 132.51 149.004 136.446 147.803C138.193 147.272 141.994 144.851 141.886 143.339C141.699 140.8 140.054 141.21 137.367 140.662C134.289 139.99 131.303 138.947 128.476 137.556C125.615 136.135 122.577 131.92 119.893 127.764C117.209 123.608 112.467 115.706 109.806 111.675C107.145 107.643 106.149 106.686 101.568 104.881C96.0128 102.697 83.7826 97.993 83.7826 97.993C83.7826 97.993 85.9455 91.4818 88.1773 83.0189C72.1882 81.1951 55.2095 79.3385 54.5115 93.9485Z" fill="#FFBDA7"/>
<path d="M131.396 148.997C131.048 146.963 133.182 140.659 138.117 140.796C138.117 140.796 135.912 139.77 134.122 139.812C130.013 140.468 127.929 144.513 127.814 147.849C128.512 148.607 131.396 148.997 131.396 148.997Z" fill="#263238"/>
<path d="M88.1771 83.0024L96.5862 81.5592C96.5862 81.5592 92.87 83.9734 93.2141 90.7044C93.4614 94.861 94.6123 98.9134 96.5862 102.579L96.0193 102.71L90.4023 100.535C90.4023 100.535 88.01 101.267 84.7198 105.416C81.4296 109.566 81.4427 116.936 81.4427 116.936C81.4427 116.936 70.1366 115.014 65.4471 112.715C60.7576 110.415 53.2562 106.59 54.2197 91.3243L88.1771 83.0024Z" fill="#455A64"/>
<path d="M95.6163 100.506C93.3223 99.8988 87.1154 97.3239 87.1154 97.3239C87.1154 97.3239 89.4094 93.7812 88.5442 87.7424C88.1772 92.3839 86.5124 96.3988 83.7826 97.9766L96.0193 102.71L96.5863 102.579L95.6163 100.506Z" fill="#37474F"/>
<path d="M65.2013 56.8034L65.0211 56.8756C62.9925 57.6431 60.7608 57.5611 58.6766 57.0986C58.4079 57.0396 58.1359 56.9805 57.877 56.9018C57.7033 56.846 57.5493 56.7411 57.392 56.6787C56.9922 56.5377 56.5694 56.4819 56.1696 56.3212C55.3915 56.0055 54.6824 55.5408 54.0821 54.9534C52.857 53.7899 52.1419 52.1884 52.0929 50.4988C52.0929 50.0002 52.2076 49.4098 52.6664 49.2163C51.8589 49.0982 51.0371 49.2968 50.3724 49.7706C50.3385 49.1224 50.5032 48.4792 50.8443 47.9271C51.0186 47.6549 51.2624 47.4341 51.5505 47.2877C51.8385 47.1412 52.1604 47.0744 52.4828 47.094C51.9388 45.6441 51.7947 43.9482 52.5386 42.5902C53.2825 41.2322 55.0849 40.4122 56.4711 41.1174C56.4416 39.9989 56.4252 38.8213 56.9168 37.8208C57.7295 36.1512 59.7974 35.3771 61.6358 35.6264C63.4743 35.8756 65.0932 36.9384 66.4827 38.1784C67.6493 39.2083 68.8356 40.4253 69.5009 41.8522C69.9782 42.847 70.3601 43.8849 70.6413 44.952L70.6708 45.0832C71.068 46.8154 71.0263 48.6195 70.5496 50.3315C70.0841 52.0578 69.203 53.6435 67.9836 54.9501C67.201 55.762 66.2518 56.3944 65.2013 56.8034Z" fill="#37474F"/>
<path d="M87.4203 78.4791C87.5284 78.2855 86.7419 74.0737 86.5223 72.7026C86.1619 70.4065 85.8669 69.1895 85.8669 69.1895L79.6404 53.5396L78.5164 48.0157C78.5164 48.0157 81.977 47.7861 83.7597 48.5406C86.0537 49.5246 86.8304 50.9286 88.6328 54.6188C90.1763 57.7776 94.1416 68.0677 94.5316 69.8062C94.9216 71.5447 94.8036 72.5911 94.2793 75.271C93.8762 77.3408 93.4829 79.3778 92.8996 81.6379L87.4203 78.4791Z" fill="#FFBDA7"/>
<path d="M86.2831 71.256C87.4038 69.4913 90.8415 68.9369 93.2043 69.7832C90.173 67.3624 86.601 69.2223 85.9619 69.5765C86.034 69.9177 86.1421 70.4819 86.2831 71.256Z" fill="#F0997A"/>
<path d="M54.6065 64.2593C54.6065 58.1122 56.8775 53.9037 58.1097 50.4628L64.8409 49.0556C64.8409 49.0556 70.199 48.3273 73.4237 48.1732C76.6484 48.019 78.5393 48.0157 78.5393 48.0157C80.7185 50.3316 87.3875 56.3409 89.1014 60.8873C90.2582 63.928 89.96 68.0545 86.7779 70.8624C86.6665 74.0409 86.7255 76.7668 86.7255 76.7668C86.7255 76.7668 88.4394 80.1454 88.6295 82.8483C88.0986 86.4565 75.4358 98.5933 53.7217 92.7447C53.7217 89.3858 53.7217 85.4265 55.3602 78.1084C55.7895 76.2387 54.6065 70.4032 54.6065 64.2593Z" fill="#37474F"/>
<path d="M78.5425 72.1187C78.5425 72.1187 75.8455 75.3989 70.5431 74.7429C65.0736 74.0869 64.0479 69.5339 64.0479 69.5339C64.0479 69.5339 63.7627 75.4809 70.2973 76.2715C76.3108 77.0095 78.5425 72.1187 78.5425 72.1187Z" fill="#263238"/>
<path d="M64.0282 22.9221C60.9215 23.7323 59.2404 27.3701 59.9843 32.2346C60.7282 37.0992 65.0179 42.6559 65.0179 42.6559L84.2349 33.4713C85.1191 32.528 85.7574 31.3812 86.0935 30.1323C86.4296 28.8833 86.4531 27.5707 86.1618 26.3106C85.218 21.8528 81.7771 18.6775 76.5796 17.9329C71.3821 17.1883 65.5783 17.992 64.0282 22.9221Z" fill="#37474F"/>
<path d="M81.7607 24.572C83.4255 25.5791 84.7494 30.2271 84.0383 38.0865C83.6287 42.6263 82.4456 44.7125 80.4073 45.7852C79.4241 46.3002 77.6086 46.7692 75.0787 46.3494L75.0164 49.3672C75.0164 49.3672 82.8979 57.6005 75.9996 58.0925C68.7899 58.6042 64.8213 49.892 64.8213 49.892L65.1163 38.8311C64.7132 39.4872 62.4389 40.4286 60.8888 38.4408C59.0667 36.1053 59.4763 33.3204 61.1018 32.2969C62.783 31.2374 64.7066 32.2477 65.4472 34.1503C67.1939 34.8818 69.5174 33.0678 69.4126 26.2974C71.5591 24.5097 74.3839 26.9535 77.0351 26.6255C79.0374 26.3827 79.6994 23.4666 81.7607 24.572Z" fill="#FFBDA7"/>
<path d="M77.0776 32.5823L77.3824 38.0275L80.653 36.7646L77.0776 32.5823Z" fill="#F0997A"/>
<path d="M74.4396 34.9441C74.2914 35.0485 74.1292 35.1314 73.9578 35.1901C73.7684 35.2599 73.5695 35.3009 73.3679 35.3115C73.1747 35.3114 72.9822 35.2883 72.7944 35.2426C72.6827 35.2248 72.573 35.1962 72.4667 35.1573C72.3762 35.1151 72.2922 35.0598 72.2177 34.9933C72.1751 34.9605 72.1718 35.0523 72.1849 35.0753C72.3267 35.2428 72.5051 35.3755 72.7062 35.463C72.9073 35.5506 73.1259 35.5908 73.345 35.5804C73.584 35.5965 73.8231 35.5513 74.0397 35.4492C74.2207 35.3359 74.3599 35.1666 74.4363 34.967C74.4363 34.967 74.4527 34.9342 74.4396 34.9441Z" fill="#F0997A"/>
<path d="M82.3931 34.6062C82.3528 34.6335 82.3086 34.6545 82.262 34.6685C82.2162 34.6915 82.1768 34.721 82.1342 34.744C82.063 34.7917 81.9885 34.8344 81.9114 34.8719C81.7433 34.9455 81.5636 34.9888 81.3805 34.9998C81.1615 35.0225 80.9403 35.0103 80.7251 34.9638C80.5435 34.9107 80.3652 34.8472 80.1909 34.7735C80.1614 34.7735 80.1614 34.8161 80.1745 34.8325C80.3446 35.0008 80.552 35.1265 80.7798 35.1994C81.0075 35.2724 81.2493 35.2905 81.4854 35.2524C81.691 35.2365 81.892 35.1831 82.0785 35.095C82.1641 35.0559 82.241 35.0002 82.3046 34.931C82.3588 34.8449 82.3955 34.7491 82.4128 34.6489C82.4128 34.6489 82.4161 34.5833 82.3931 34.6062Z" fill="#F0997A"/>
<path d="M75.0885 29.4694C74.9842 29.3364 74.8371 29.2437 74.6723 29.207C74.5875 29.1873 74.5002 29.1806 74.4134 29.1873C74.3713 29.1915 74.3296 29.1992 74.2888 29.2103C74.2462 29.2103 74.2233 29.2299 74.2102 29.2791C74.2068 29.2945 74.2082 29.3106 74.214 29.3252C74.2198 29.3398 74.2299 29.3523 74.243 29.3612C74.2697 29.3771 74.3004 29.385 74.3314 29.3841H74.4658C74.5369 29.3917 74.6071 29.406 74.6755 29.4268C74.7016 29.4379 74.7268 29.4511 74.7509 29.4661L74.787 29.4891L74.8165 29.5153C74.8328 29.5345 74.8451 29.5568 74.8525 29.5809C74.854 29.5929 74.854 29.605 74.8525 29.617C74.8525 29.617 74.8525 29.6433 74.8525 29.6465C74.854 29.6618 74.854 29.6772 74.8525 29.6925C74.8541 29.7055 74.8541 29.7187 74.8525 29.7318L74.8328 29.8269C74.8132 29.8925 74.8033 29.9221 74.7804 29.9877C74.7788 30.0051 74.7788 30.0227 74.7804 30.0402C74.7785 30.0565 74.7785 30.073 74.7804 30.0894C74.7804 30.1287 74.764 30.1615 74.7607 30.2042C74.7575 30.2468 74.8099 30.3354 74.8689 30.3091C74.9091 30.2902 74.9465 30.2659 74.9803 30.237C75.012 30.2145 75.0416 30.1892 75.0688 30.1615L75.1147 30.0992C75.1347 30.0642 75.1501 30.0267 75.1605 29.9877C75.1976 29.889 75.2083 29.7823 75.1917 29.6782C75.175 29.5741 75.1315 29.4761 75.0655 29.394L75.0885 29.4694Z" fill="#F0997A"/>
<path d="M76.9073 41.2618C76.3732 41.5898 76.1176 40.96 75.2098 40.5795C74.302 40.199 73.6401 40.5795 73.604 39.9234C73.5745 39.3789 74.4233 38.4277 75.9537 38.9394C77.258 39.4019 77.3825 40.9567 76.9073 41.2618Z" fill="#B16668"/>
<path d="M74.3446 38.9558C74.1429 39.0317 73.9663 39.1625 73.8349 39.3335C73.7034 39.5045 73.6223 39.7088 73.6007 39.9234C73.6368 40.5795 74.3217 40.2088 75.2065 40.5795C75.5354 40.729 75.8447 40.9185 76.1274 41.1437C76.0726 40.6458 75.8751 40.1743 75.5588 39.7862C75.2425 39.398 74.8209 39.1096 74.3446 38.9558Z" fill="#F0997A"/>
<path d="M61.8654 37.5584C61.838 37.7396 61.865 37.9248 61.943 38.0906C62.021 38.2564 62.1464 38.3952 62.3033 38.4896C62.4602 38.5839 62.6416 38.6295 62.8244 38.6205C63.0073 38.6115 63.1833 38.5484 63.3303 38.4391C63.4772 38.3298 63.5884 38.1794 63.6498 38.0067C63.7112 37.8341 63.7199 37.6471 63.675 37.4695C63.6301 37.2919 63.5334 37.1316 63.3974 37.009C63.2613 36.8865 63.0919 36.8071 62.9108 36.781C62.7911 36.7633 62.6692 36.7694 62.5519 36.7989C62.4346 36.8285 62.3243 36.8808 62.2272 36.953C62.1301 37.0252 62.0482 37.1158 61.9861 37.2197C61.924 37.3236 61.883 37.4387 61.8654 37.5584Z" fill="#92E3A9"/>
<path d="M75.0786 46.3494C69.6681 45.1751 66.6334 42.974 66.0829 40.773C66.0829 40.773 66.4106 43.6399 67.941 44.9094C70.0679 46.684 75.0458 47.8386 75.0458 47.8386L75.0786 46.3494Z" fill="#F0997A"/>
<path d="M74.7837 33.2646C74.6264 32.7168 74.2266 33.7042 73.5449 33.901C72.8633 34.0978 72.1521 33.4319 72.3094 33.9797C72.4667 34.5275 73.1484 34.8096 73.83 34.6128C74.5117 34.416 74.941 33.7993 74.7837 33.2646Z" fill="#263238"/>
<path d="M82.2587 33.6287C82.3439 33.0645 81.6295 33.8026 80.9905 33.7041C80.3514 33.6057 80.0336 32.7201 79.9484 33.2777C79.9523 33.5563 80.0549 33.8244 80.2377 34.0344C80.4205 34.2445 80.6718 34.3828 80.947 34.4249C81.2221 34.467 81.5032 34.4101 81.7404 34.2644C81.9775 34.1186 82.1554 33.8933 82.2423 33.6287H82.2587Z" fill="#263238"/>
<path d="M80.0073 29.2562L81.9736 30.8274C81.8772 30.96 81.7548 31.0716 81.614 31.1554C81.4732 31.2392 81.3168 31.2935 81.1544 31.315C80.9919 31.3364 80.8268 31.3246 80.6691 31.2803C80.5113 31.236 80.3643 31.16 80.2367 31.057C79.974 30.8443 79.8034 30.5383 79.7607 30.2027C79.7179 29.8672 79.8063 29.5281 80.0073 29.2562Z" fill="#263238"/>
<path d="M73.5942 29.8138L71.3002 30.9455C71.3673 31.098 71.4647 31.2352 71.5865 31.3487C71.7083 31.4622 71.8519 31.5498 72.0086 31.6059C72.1653 31.6621 72.3317 31.6857 72.4979 31.6754C72.664 31.665 72.8262 31.621 72.9748 31.5458C73.2808 31.3923 73.5159 31.1266 73.6312 30.8041C73.7466 30.4815 73.7333 30.1269 73.5942 29.8138Z" fill="#263238"/>
<path d="M69.7731 82.1135C72.1916 82.9106 74.0628 83.2977 75.1115 82.4415C75.9427 81.7947 76.8389 81.2363 77.7856 80.7752C78.6003 80.3597 79.4786 80.0836 80.3844 79.9584C81.5215 79.7419 82.2425 79.6009 82.4719 79.6534C82.7013 79.7058 83.668 80.211 84.9789 80.6637C85.6081 80.8802 85.6998 82.2349 84.3857 82.599C83.5445 82.819 82.6684 82.8725 81.8066 82.7564C81.8066 82.7564 82.5079 83.957 83.2223 84.0095C83.9367 84.062 85.595 83.6519 87.2663 83.1337C88.9376 82.6154 89.7471 82.4317 90.2648 83.2485C90.409 83.4518 88.8033 84.9083 88.8033 84.9083C88.9619 85.7254 88.9054 86.5699 88.6394 87.3586C88.2035 88.7822 85.3164 91.3178 83.3764 92.233C81.9349 92.9314 80.357 93.3021 78.7556 93.3187C77.4153 93.3876 75.1869 92.5019 73.4762 91.8754C71.6806 91.2823 69.8452 90.8175 67.9838 90.4846L69.7731 82.1135Z" fill="#FFBDA7"/>
<path d="M88.8458 85.7578C88.7802 85.4891 88.6614 85.2363 88.4965 85.0143C88.3315 84.7923 88.1238 84.6057 87.8856 84.4654L85.395 84.3801C84.697 85.2789 83.6352 85.8169 82.5767 86.2302C81.5182 86.6435 80.4105 86.9682 79.4438 87.5718C79.1421 87.7227 78.8936 87.9622 78.7314 88.2581C78.5693 88.5541 78.5011 88.8925 78.536 89.2283C78.5202 89.4104 78.5554 89.5932 78.6376 89.7564C78.7408 89.8791 78.8714 89.9757 79.0189 90.0384C79.1664 90.1011 79.3265 90.1281 79.4864 90.1172C80.2897 90.1728 81.0969 90.1176 81.8852 89.9532C81.2298 90.9012 79.7485 91.098 79.2799 92.151C79.1391 92.5197 79.0984 92.9193 79.162 93.3089C80.6253 93.2522 82.0608 92.8902 83.3763 92.2461C85.3164 91.3309 88.2035 88.7953 88.6394 87.3717C88.7849 86.9014 88.8675 86.4139 88.8851 85.9218C88.872 85.8661 88.8622 85.8136 88.8458 85.7578Z" fill="#F0997A"/>
<path d="M93.2043 77.6327L86.7189 73.785C86.7189 73.785 86.7189 76.5863 86.5256 77.4589C86.3322 78.3314 85.8964 78.8398 85.3524 79.0268C84.9775 79.1616 84.6317 79.3664 84.3332 79.6304C83.652 80.2531 82.9318 80.8316 82.1768 81.3623C81.4788 81.8576 80.866 82.3857 81.5444 83.0024C82.2227 83.6191 82.734 83.5404 83.3271 83.419C83.8444 83.2816 84.3462 83.0914 84.8248 82.8515C84.9907 83.264 85.2112 83.6523 85.4802 84.0062L84.9034 84.7278C84.4713 85.1703 83.9996 85.5721 83.4942 85.9284C82.7856 86.3794 82.0464 86.7805 81.2822 87.1289C80.5055 87.4996 79.1586 87.9785 79.1816 88.9232C79.2045 89.8679 79.6174 89.6613 80.4924 89.553C81.3674 89.4448 84.3037 88.5493 84.3037 88.5493C83.9854 88.9472 83.6358 89.319 83.2583 89.6612C82.8487 89.9893 81.8229 90.9504 80.9414 91.6294C80.0598 92.3084 79.4699 93.2695 79.837 94.0108C80.204 94.7521 80.984 94.0469 81.7213 93.6467C82.4587 93.2465 83.0748 92.9579 83.0748 92.9579L82.0195 93.9911C81.6918 94.3191 81.3641 94.9555 81.6099 95.4377C81.8557 95.9199 82.1015 96.0675 82.675 95.7165C83.2485 95.3655 83.8416 94.8407 84.4479 94.4864C84.7634 94.3105 85.0608 94.1039 85.336 93.8698C85.336 93.8698 84.5528 94.7817 84.6806 95.2573C84.8084 95.7329 85.1754 96.0019 85.5326 95.8379C85.8898 95.6739 86.7189 94.8243 87.3645 94.4996C87.9039 94.1906 88.413 93.8315 88.8851 93.4269C89.2947 93.1219 89.3668 92.8135 89.5995 91.9869C89.8322 91.1603 90.0812 90.4091 90.3762 89.5366C90.7039 88.5066 91.0677 87.5324 91.4314 86.4138C91.8443 85.1313 92.3031 84.3768 92.7128 82.5662C93.1847 80.5652 93.1322 80.0502 93.2043 77.6327Z" fill="#FFBDA7"/>
<path d="M86.6502 76.3502C86.635 76.7222 86.5934 77.0927 86.5257 77.4589C86.447 77.872 86.2642 78.2581 85.9948 78.5807C87.0729 77.8328 87.8988 77.7147 88.8098 77.8525C88.5706 77.5639 87.689 77.5704 87.263 77.5704C86.837 77.5704 86.6207 76.9898 86.6502 76.3502Z" fill="#F0997A"/>
<path d="M85.9651 80.1323C85.7549 79.8431 85.4537 79.6328 85.1098 79.5353C85.0537 79.5212 84.9968 79.5103 84.9394 79.5025C84.8903 79.5025 84.828 79.4763 84.7887 79.5025C84.7718 79.5202 84.7625 79.5437 84.7625 79.5681C84.7625 79.5925 84.7718 79.616 84.7887 79.6337C84.8394 79.6564 84.8938 79.6697 84.9492 79.6731L85.0934 79.7059C85.2065 79.7337 85.3163 79.7733 85.4211 79.824C85.6064 79.9158 85.7697 80.0467 85.8996 80.2077C85.9619 80.2865 86.0045 80.1848 85.9651 80.1323Z" fill="#F0997A"/>
<path d="M85.3557 80.3783C85.2428 80.2791 85.1158 80.1973 84.9788 80.1355C84.9134 80.1092 84.8467 80.0862 84.7789 80.0667C84.7265 80.0667 84.6151 80.0175 84.5856 80.0863C84.5784 80.0988 84.5746 80.1129 84.5746 80.1273C84.5746 80.1417 84.5784 80.1559 84.5856 80.1683C84.6468 80.213 84.7196 80.2392 84.7953 80.2438C84.8579 80.2574 84.9193 80.276 84.9788 80.2996C85.0955 80.3451 85.2056 80.4058 85.3065 80.48C85.3786 80.5292 85.3983 80.4176 85.3557 80.3783Z" fill="#F0997A"/>
<path d="M84.3201 87.1486C84.2742 87.1158 84.2611 87.2175 84.2873 87.2405C84.615 87.5324 84.5724 87.9785 84.5495 88.3656C84.5468 88.3898 84.5509 88.4143 84.5613 88.4363C84.5717 88.4583 84.588 88.477 84.6084 88.4902C84.6166 88.4962 84.6262 88.4998 84.6362 88.5007C84.6463 88.5016 84.6564 88.4998 84.6654 88.4954C84.6745 88.491 84.6822 88.4843 84.6878 88.4759C84.6933 88.4674 84.6965 88.4577 84.6969 88.4476C84.7264 87.9949 84.7231 87.4504 84.3201 87.1486Z" fill="#F0997A"/>
<path d="M84.3856 88.3623C84.3863 88.2819 84.3786 88.2017 84.3627 88.1228C84.3387 87.9567 84.2603 87.8033 84.1398 87.6866C84.1169 87.6669 84.0808 87.6505 84.0546 87.6866C84.045 87.7018 84.0399 87.7194 84.0399 87.7374C84.0399 87.7554 84.045 87.7731 84.0546 87.7883C84.0743 87.8309 84.0874 87.8539 84.1005 87.89L84.1202 87.9326C84.1212 87.9402 84.1212 87.9479 84.1202 87.9556C84.1344 88.0124 84.1421 88.0708 84.1431 88.1294C84.1431 88.1917 84.1431 88.2573 84.1431 88.3197C84.1431 88.382 84.1431 88.3886 84.1431 88.4181C84.1496 88.4857 84.1784 88.5491 84.225 88.5985C84.2339 88.6084 84.2454 88.6155 84.2582 88.619C84.271 88.6225 84.2845 88.6222 84.2971 88.6182C84.3954 88.5788 84.3856 88.4476 84.3856 88.3623Z" fill="#F0997A"/>
<path d="M83.5467 91.9673C83.465 91.7832 83.3289 91.6286 83.1567 91.5245C83.1337 91.5245 83.1305 91.5605 83.137 91.5704C83.2429 91.714 83.3361 91.8666 83.4156 92.0263C83.4812 92.187 83.5178 92.358 83.5237 92.5315C83.5269 92.5577 83.5375 92.5825 83.5544 92.6029C83.5712 92.6232 83.5936 92.6383 83.6187 92.6463C83.6288 92.6495 83.6395 92.6502 83.6499 92.6483C83.6603 92.6465 83.6701 92.6422 83.6784 92.6357C83.6868 92.6293 83.6935 92.6209 83.6979 92.6113C83.7024 92.6018 83.7044 92.5912 83.704 92.5807C83.696 92.3673 83.6423 92.1581 83.5467 91.9673Z" fill="#F0997A"/>
<path d="M83.3992 92.5643C83.3924 92.5385 83.3836 92.5133 83.3729 92.4888C83.3555 92.4436 83.3347 92.3997 83.3107 92.3576C83.2705 92.2856 83.2221 92.2184 83.1665 92.1575C83.1468 92.1378 83.1108 92.1182 83.0911 92.1575C83.0816 92.1734 83.0765 92.1915 83.0765 92.21C83.0765 92.2285 83.0816 92.2467 83.0911 92.2625L83.1534 92.3511L83.1796 92.4003V92.4199L83.2189 92.5216C83.2201 92.5303 83.2201 92.5392 83.2189 92.5479L83.2353 92.5938C83.2451 92.6182 83.2623 92.6388 83.2845 92.6528C83.293 92.6558 83.3022 92.6558 83.3107 92.6528C83.3202 92.6561 83.3306 92.6561 83.3402 92.6528C83.3417 92.6387 83.3417 92.6244 83.3402 92.6102C83.3648 92.6027 83.3858 92.5863 83.3992 92.5643Z" fill="#F0997A"/>
<path d="M85.6572 90.2189C85.5581 90.0056 85.4071 89.8206 85.218 89.681C85.2121 89.6763 85.2052 89.6732 85.1978 89.6716C85.1904 89.6701 85.1828 89.6703 85.1755 89.6722C85.1682 89.6741 85.1615 89.6777 85.1558 89.6826C85.1501 89.6875 85.1456 89.6937 85.1427 89.7006C85.1372 89.7194 85.1367 89.7393 85.1413 89.7583C85.1459 89.7773 85.1554 89.7947 85.1689 89.8089C85.3029 89.9638 85.4224 90.1307 85.5261 90.3075C85.6151 90.4917 85.6833 90.6854 85.7293 90.8848C85.7457 90.9471 85.8407 90.9766 85.8407 90.8848C85.837 90.6508 85.7739 90.4217 85.6572 90.2189Z" fill="#F0997A"/>
<path d="M85.4867 90.8159C85.4413 90.7176 85.3779 90.6286 85.2999 90.5535C85.277 90.5306 85.2409 90.5142 85.218 90.5535C85.2099 90.5717 85.2071 90.5919 85.21 90.6117C85.2129 90.6314 85.2214 90.6499 85.2344 90.665C85.2868 90.7249 85.3279 90.7938 85.3557 90.8684C85.3711 90.9089 85.3832 90.9506 85.3917 90.9931C85.3917 90.9931 85.3917 91.0128 85.3917 91.0226C85.3901 91.0488 85.3901 91.0751 85.3917 91.1013C85.3937 91.125 85.3992 91.1482 85.4081 91.1702C85.4081 91.203 85.4572 91.2555 85.4966 91.2358C85.5359 91.2161 85.4966 91.2194 85.5228 91.2128C85.5273 91.21 85.5311 91.2061 85.5339 91.2016C85.5368 91.197 85.5386 91.1919 85.5392 91.1866C85.5392 91.1866 85.5392 91.1669 85.5392 91.1571C85.5423 91.1309 85.5423 91.1045 85.5392 91.0784C85.537 90.9885 85.5192 90.8997 85.4867 90.8159Z" fill="#F0997A"/>
<path d="M85.3556 93.7484C85.3493 93.6975 85.3394 93.6471 85.3261 93.5975C85.2961 93.4878 85.2485 93.3837 85.1852 93.2892C85.0922 93.1178 84.9411 92.9852 84.7592 92.9152C84.7068 92.9152 84.7199 92.9972 84.7592 93.0169C84.8918 93.119 85.0031 93.246 85.0869 93.3909C85.1235 93.4641 85.1521 93.5411 85.1721 93.6205C85.1721 93.6533 85.1721 93.6894 85.1885 93.7222C85.1899 93.744 85.1899 93.7659 85.1885 93.7878C85.1956 93.829 85.2138 93.8675 85.2409 93.8993C85.2409 93.8993 85.2802 93.9321 85.2999 93.9223C85.3196 93.9124 85.3589 93.8698 85.3589 93.8173C85.3589 93.7648 85.3589 93.7714 85.3556 93.7484Z" fill="#F0997A"/>
<path d="M88.8293 93.4302C88.8293 93.3876 88.8293 93.345 88.813 93.299C88.8021 93.2074 88.7778 93.1179 88.7409 93.0333C88.7097 92.9563 88.669 92.8836 88.6196 92.8168C88.5721 92.7408 88.5023 92.6812 88.4197 92.6463C88.3378 92.62 88.3509 92.7414 88.3804 92.7775C88.4099 92.8136 88.4754 92.8792 88.5049 92.9218C88.5361 92.9672 88.5604 93.0169 88.577 93.0694C88.6053 93.1451 88.6272 93.223 88.6426 93.3023C88.6557 93.3876 88.6743 93.472 88.6983 93.5549C88.7245 93.6139 88.8162 93.65 88.8326 93.5549C88.8369 93.5134 88.8358 93.4715 88.8293 93.4302Z" fill="#F0997A"/>
<path d="M84.8313 82.8483C84.9973 83.2607 85.2177 83.649 85.4867 84.0029L86.6763 82.6908L85.8701 83.4157V82.6285C85.8701 82.6285 87.181 81.5624 87.4759 80.7161C87.2433 81.1557 85.9324 82.3201 84.8313 82.8483Z" fill="#F0997A"/>
<path d="M84.3102 88.546C84.7168 88.3233 85.1107 88.078 85.4899 87.8113C85.6879 87.6787 85.9001 87.5687 86.1224 87.4832C86.3361 87.3918 86.5549 87.3129 86.7778 87.2471C86.5868 87.3847 86.3876 87.5107 86.1814 87.6243C85.9782 87.7358 85.7849 87.8506 85.5915 87.9786C85.2109 88.259 84.7735 88.4527 84.3102 88.546Z" fill="#F0997A"/>
<path d="M83.0813 92.9579C83.5008 92.6889 83.894 92.3872 84.2873 92.0854C84.6805 91.7836 85.0738 91.4753 85.4572 91.1636C85.8406 90.852 86.1356 90.4518 86.5157 90.1205C86.8964 89.789 87.3323 89.527 87.8036 89.3464C87.3752 89.5928 86.9789 89.8914 86.6239 90.2353C86.2732 90.5797 85.9684 90.9799 85.5883 91.3211C85.2081 91.6622 84.7952 91.9312 84.379 92.21C83.9708 92.4995 83.5363 92.7499 83.0813 92.9579Z" fill="#F0997A"/>
<path d="M85.2869 93.919C85.4457 93.7939 85.5957 93.658 85.7358 93.5122C85.88 93.3712 86.0308 93.2301 86.1848 93.0989C86.5125 92.8332 86.8173 92.5905 87.1089 92.315C87.4038 92.046 87.6746 91.7519 87.9184 91.4358L88.2658 90.9405C88.3782 90.7679 88.5228 90.6187 88.6918 90.501C88.5566 90.6473 88.4459 90.8146 88.3641 90.9963C88.2658 91.1734 88.174 91.3538 88.0626 91.5277C87.8338 91.8718 87.5642 92.1868 87.2597 92.4658C86.9542 92.7377 86.6324 92.9908 86.2962 93.2236C85.979 93.4821 85.6414 93.7147 85.2869 93.919Z" fill="#F0997A"/>
<path d="M87.8691 91.6392L87.8003 92.2264L87.1449 92.4298C87.4052 92.1843 87.6473 91.9201 87.8691 91.6392Z" fill="#F0997A"/>
<path d="M84.343 79.6304C83.8313 80.1119 83.293 80.5641 82.7307 80.9851C82.4521 81.2016 82.1637 81.4017 81.8884 81.6182C81.5978 81.8014 81.3844 82.0851 81.2887 82.4153C81.2861 82.4968 81.3005 82.578 81.3309 82.6537C81.3614 82.7294 81.4073 82.7979 81.4657 82.8548C81.5852 82.98 81.7195 83.0901 81.8655 83.1829C82.1456 83.3782 82.4859 83.4677 82.8257 83.4354C83.5147 83.3346 84.1804 83.1125 84.792 82.7794L84.8608 82.7466L84.8936 82.8188C85.0597 83.224 85.2802 83.6047 85.549 83.9504L85.5883 83.9996L85.549 84.0488L84.9788 84.7738C84.5967 85.1693 84.1836 85.5335 83.7433 85.8628C83.2933 86.1766 82.8225 86.4594 82.3341 86.7091C81.8491 86.9606 81.3586 87.2 80.8627 87.4275C80.3718 87.6199 79.9256 87.9113 79.5519 88.2836C79.4691 88.3752 79.4056 88.4825 79.365 88.5991C79.3245 88.7158 79.3078 88.8394 79.3159 88.9626C79.3159 89.2217 79.3716 89.4973 79.5846 89.5202C79.8444 89.5284 80.1042 89.5041 80.358 89.4481C80.6239 89.4138 80.8875 89.3645 81.1478 89.3005C82.1998 89.0413 83.2452 88.733 84.284 88.4181L84.6838 88.2967L84.4184 88.6247C84.1252 88.9923 83.8077 89.3397 83.468 89.6646C83.1075 89.9631 82.77 90.2681 82.4226 90.5765C82.0752 90.8848 81.7213 91.1866 81.3575 91.4785C80.9873 91.7415 80.6505 92.0489 80.3547 92.3937C80.0631 92.718 79.8909 93.1323 79.8665 93.568C79.8712 93.7713 79.9452 93.9669 80.0762 94.1224C80.1505 94.1796 80.2403 94.213 80.3338 94.2182C80.4274 94.2235 80.5203 94.2004 80.6005 94.1519C81.0003 93.9879 81.3805 93.6959 81.8 93.4958C82.2194 93.2957 82.6225 93.0694 83.0453 92.8693L83.6319 92.5905L83.1665 93.0432L82.4816 93.6992L82.1375 94.0272C82.0284 94.1312 81.9336 94.2492 81.8557 94.3782C81.6881 94.6228 81.6158 94.9204 81.6525 95.2147C81.7213 95.464 81.9114 95.8117 82.1539 95.8084C82.4485 95.752 82.7238 95.621 82.9535 95.4279C83.2124 95.2475 83.4647 95.0572 83.7236 94.867C84.2348 94.4766 84.8346 94.2109 85.2966 93.8042L85.4146 93.919C85.2675 94.0933 85.1338 94.2787 85.0148 94.4733C84.892 94.6577 84.8083 94.8654 84.769 95.0835C84.7606 95.1323 84.7606 95.1822 84.769 95.2311C84.783 95.2836 84.8006 95.3351 84.8215 95.3852C84.8649 95.4841 84.9259 95.5741 85.0017 95.6509C85.0685 95.7278 85.1598 95.7792 85.2601 95.7965C85.3604 95.8138 85.4636 95.796 85.5523 95.7461C85.9291 95.5099 86.2765 95.1753 86.6501 94.8998C86.8365 94.7544 87.0324 94.6218 87.2367 94.5029C87.4434 94.4045 87.6447 94.295 87.8397 94.1748C88.2264 93.9223 88.5836 93.6139 88.9539 93.3384C89.3242 93.0629 89.4127 92.5577 89.5503 92.1214C89.7994 91.2194 90.1828 90.3632 90.4155 89.4579C90.1959 90.3665 89.8322 91.2325 89.5995 92.1346C89.5372 92.3576 89.4782 92.5872 89.3963 92.807C89.3209 93.0349 89.1863 93.2387 89.0063 93.3974C88.6327 93.6828 88.2886 93.9944 87.8987 94.2601C87.7086 94.3946 87.4923 94.5094 87.2957 94.621C87.0984 94.7394 86.91 94.872 86.732 95.0179C86.3617 95.3 86.034 95.6247 85.6211 95.8838C85.5061 95.9534 85.37 95.979 85.2376 95.956C85.1128 95.9281 84.9989 95.8642 84.9099 95.7723C84.8199 95.6766 84.7478 95.5655 84.6969 95.4443C84.6728 95.3876 84.652 95.3296 84.6347 95.2704C84.6171 95.2053 84.6104 95.1377 84.615 95.0703C84.6541 94.8272 84.7434 94.5948 84.8772 94.3881C85.0005 94.1847 85.1385 93.9907 85.2901 93.8075L85.4081 93.9223C84.9099 94.3585 84.3266 94.621 83.8285 95.008C83.5729 95.195 83.3205 95.3918 83.0584 95.5755C82.924 95.6673 82.7929 95.7559 82.6487 95.8379C82.4999 95.9344 82.3278 95.9888 82.1506 95.9954C82.056 95.9893 81.9643 95.9608 81.8828 95.9123C81.8014 95.8639 81.7325 95.7968 81.682 95.7166C81.5788 95.5769 81.5031 95.4188 81.4591 95.2508C81.41 94.9065 81.4893 94.5561 81.682 94.2667C81.7681 94.1224 81.8727 93.99 81.9933 93.8731L82.321 93.5451L82.9994 92.8726L83.1239 93.0497C82.7077 93.2466 82.2981 93.4598 81.8917 93.6795C81.4854 93.8993 81.1281 94.1749 80.6726 94.3651C80.551 94.4164 80.4211 94.4453 80.2892 94.4504C80.1417 94.4497 80.0004 94.3907 79.896 94.2864C79.7177 94.0901 79.6154 93.8365 79.6076 93.5713C79.6267 93.075 79.8153 92.6004 80.1417 92.2264C80.4471 91.8653 80.796 91.5436 81.1806 91.2686C81.5345 90.9766 81.8819 90.6716 82.2293 90.3665C82.5766 90.0615 82.9273 89.7498 83.2812 89.4612C83.6122 89.1546 83.9221 88.8258 84.2086 88.4771L84.343 88.6772C83.2976 88.9856 82.2522 89.2873 81.1871 89.5399C80.925 89.599 80.6431 89.6547 80.3777 89.6875C80.099 89.7476 79.8134 89.7686 79.5289 89.7498C79.4435 89.7334 79.364 89.6943 79.2989 89.6366C79.2337 89.5789 79.1853 89.5047 79.1586 89.4218C79.1139 89.2818 79.0907 89.1358 79.0898 88.9888C79.0736 88.687 79.1772 88.3911 79.3782 88.1655C79.7787 87.7729 80.2548 87.466 80.7775 87.2634C81.2756 87.0437 81.7606 86.8075 82.2456 86.5615C82.7274 86.3178 83.1927 86.0428 83.6384 85.7381C84.0717 85.4172 84.4792 85.063 84.8575 84.6786L85.4343 83.957V84.0554C85.1551 83.6972 84.9268 83.302 84.7559 82.8811L84.8575 82.9204C84.2284 83.2559 83.543 83.4728 82.8355 83.5601C82.4693 83.5873 82.1052 83.4852 81.8065 83.2714C81.6583 83.1701 81.521 83.0536 81.3969 82.9237C81.3311 82.8559 81.2802 82.775 81.2475 82.6863C81.2148 82.5976 81.2009 82.5031 81.2068 82.4087C81.2358 82.2261 81.3218 82.0573 81.4526 81.9265C81.5744 81.7973 81.707 81.6788 81.8491 81.5723C82.1309 81.3591 82.4226 81.1655 82.7044 80.9556C83.275 80.545 83.8221 80.1025 84.343 79.6304Z" fill="#B16668"/>
<path d="M60.2825 50.0068C55.7207 50.8105 52.5321 52.2111 50.6903 57.7317C48.8486 63.2523 46.4891 75.6941 45.9615 78.584C45.0537 83.5732 46.3547 84.3801 50.2217 86.1285C52.8041 87.2995 61.4622 89.4842 68.0001 90.5043L69.7894 82.1201C63.2843 79.6599 57.746 77.3343 57.746 77.3343L60.4987 65.2368C60.4987 65.2368 63.7726 55.4651 60.2825 50.0068Z" fill="#FFBDA7"/>
<path d="M57.7296 77.3277C54.7802 76.2387 51.1295 77.3015 49.8416 78.3675C51.4604 75.563 55.9894 74.9889 58.0933 75.727L57.7296 77.3277Z" fill="#F0997A"/>
<path d="M55.4519 26.3893L53.6528 26.8551C53.503 26.8994 53.3422 26.8868 53.2012 26.8196C53.0603 26.7523 52.9491 26.6353 52.8892 26.491L49.4548 16.2633C49.437 16.1927 49.4337 16.1193 49.4452 16.0475C49.4567 15.9757 49.4827 15.9069 49.5217 15.8455C49.5607 15.7841 49.6117 15.7313 49.6718 15.6903C49.7319 15.6494 49.7996 15.6211 49.871 15.6072L53.2759 14.7216C53.3435 14.6962 53.4156 14.6853 53.4877 14.6896C53.5598 14.6938 53.6301 14.713 53.6943 14.7461C53.7585 14.7791 53.8151 14.8252 53.8604 14.8815C53.9057 14.9377 53.9388 15.0028 53.9575 15.0726L55.9468 25.7431C55.9561 25.8924 55.9111 26.0401 55.8202 26.1589C55.7292 26.2777 55.5984 26.3595 55.4519 26.3893Z" fill="#92E3A9"/>
<path d="M55.8617 31.6639C55.4985 31.7592 55.1152 31.7443 54.7605 31.6211C54.4058 31.4979 54.0957 31.272 53.8695 30.9721C53.6433 30.6721 53.5113 30.3116 53.4902 29.9364C53.4691 29.5612 53.5599 29.1882 53.751 28.8647C53.9421 28.5413 54.225 28.2819 54.5636 28.1197C54.9023 27.9575 55.2815 27.8996 55.653 27.9535C56.0246 28.0074 56.3718 28.1706 56.6505 28.4224C56.9292 28.6742 57.1269 29.0033 57.2184 29.3677C57.2804 29.6077 57.2945 29.8575 57.2598 30.1029C57.2252 30.3483 57.1424 30.5845 57.0164 30.7978C56.8903 31.0111 56.7234 31.1974 56.5253 31.3461C56.3271 31.4947 56.1016 31.6027 55.8617 31.6639Z" fill="#92E3A9"/>
<path d="M49.0584 33.4221L48.1768 34.4553C48.1057 34.5446 48.0041 34.6044 47.8916 34.6232C47.779 34.6419 47.6635 34.6184 47.5673 34.557L41.2457 29.863C41.2037 29.8285 41.1692 29.7856 41.1447 29.7371C41.1202 29.6885 41.1061 29.6353 41.1033 29.5809C41.1005 29.5265 41.1091 29.4722 41.1286 29.4214C41.148 29.3705 41.1779 29.3243 41.2163 29.2857L42.8843 27.3176C42.9144 27.2745 42.953 27.2381 42.9978 27.2107C43.0427 27.1833 43.0927 27.1655 43.1447 27.1584C43.1967 27.1513 43.2497 27.1551 43.3002 27.1695C43.3507 27.1839 43.3977 27.2087 43.4381 27.2421L49.078 32.8152C49.1498 32.9011 49.1874 33.0105 49.1838 33.1224C49.1802 33.2343 49.1355 33.341 49.0584 33.4221Z" fill="#92E3A9"/>
<path d="M51.5032 36.4234C51.3252 36.6314 51.0897 36.7819 50.8264 36.8558C50.563 36.9298 50.2836 36.9239 50.0236 36.8389C49.7636 36.754 49.5346 36.5938 49.3655 36.3785C49.1965 36.1633 49.095 35.9027 49.0739 35.6297C49.0529 35.3568 49.1131 35.0837 49.2471 34.845C49.3811 34.6063 49.5828 34.4127 49.8267 34.2888C50.0705 34.1648 50.3457 34.116 50.6173 34.1486C50.8888 34.1812 51.1447 34.2936 51.3524 34.4717C51.4922 34.5887 51.6073 34.7325 51.6907 34.8946C51.7742 35.0567 51.8245 35.2339 51.8385 35.4158C51.8525 35.5977 51.8301 35.7805 51.7725 35.9535C51.7149 36.1266 51.6234 36.2864 51.5032 36.4234Z" fill="#92E3A9"/>
<g opacity="0.3">
<path d="M49.0584 33.4221L48.1768 34.4553C48.1057 34.5446 48.0041 34.6044 47.8916 34.6232C47.779 34.6419 47.6635 34.6184 47.5673 34.557L41.2457 29.863C41.2037 29.8285 41.1692 29.7856 41.1447 29.7371C41.1202 29.6885 41.1061 29.6353 41.1033 29.5809C41.1005 29.5265 41.1091 29.4722 41.1286 29.4214C41.148 29.3705 41.1779 29.3243 41.2163 29.2857L42.8843 27.3176C42.9144 27.2745 42.953 27.2381 42.9978 27.2107C43.0427 27.1833 43.0927 27.1655 43.1447 27.1584C43.1967 27.1513 43.2497 27.1551 43.3002 27.1695C43.3507 27.1839 43.3977 27.2087 43.4381 27.2421L49.078 32.8152C49.1498 32.9011 49.1874 33.0105 49.1838 33.1224C49.1802 33.2343 49.1355 33.341 49.0584 33.4221Z" fill="white"/>
<path d="M51.5032 36.4234C51.3252 36.6314 51.0897 36.7819 50.8264 36.8558C50.563 36.9298 50.2836 36.9239 50.0236 36.8389C49.7636 36.754 49.5346 36.5938 49.3655 36.3785C49.1965 36.1633 49.095 35.9027 49.0739 35.6297C49.0529 35.3568 49.1131 35.0837 49.2471 34.845C49.3811 34.6063 49.5828 34.4127 49.8267 34.2888C50.0705 34.1648 50.3457 34.116 50.6173 34.1486C50.8888 34.1812 51.1447 34.2936 51.3524 34.4717C51.4922 34.5887 51.6073 34.7325 51.6907 34.8946C51.7742 35.0567 51.8245 35.2339 51.8385 35.4158C51.8525 35.5977 51.8301 35.7805 51.7725 35.9535C51.7149 36.1266 51.6234 36.2864 51.5032 36.4234Z" fill="white"/>
</g>
<path d="M100.624 70.0948L104.229 67.838L101.951 66.1454L109.465 61.9796L105.943 60.2509L114.001 55.2256L109.328 59.9524L113.503 61.7008L104.661 66.2799L107.063 68.376L100.624 70.0948Z" fill="#92E3A9"/>
<path d="M98.3822 65.2959L100.66 62.7996L99.2703 61.9041L101.23 59.2275L99.1327 58.6666L99.6243 55.4028L98.4216 58.9716L99.9028 59.4965L97.7694 62.1928L99.4014 63.1998L98.3822 65.2959Z" fill="#92E3A9"/>
<path d="M100.394 73.808L105.218 77.0784L106.745 74.4706L110.904 76.3764L112.343 73.1782L118.661 74.3394L111.235 71.3971L109.37 74.3755L105.916 72.8108L104.687 75.2939L100.394 73.808Z" fill="#92E3A9"/>
<path d="M42.5927 54.9894L38.8142 53.0475L38.5258 55.8718L31.1031 51.5419L31.4243 55.4552L22.989 51.0958L29.4351 52.6966L28.8026 48.2092L37.2543 53.4707L37.8245 50.3315L42.5927 54.9894Z" fill="#E0E0E0"/>
<path d="M42.0257 59.3882L38.7191 58.7059L38.6634 60.3591L35.3633 60.0409L35.9532 62.1337L32.9022 63.3802L36.5791 62.5897L36.2711 61.0447L39.676 61.5039L39.7088 59.5817L42.0257 59.3882Z" fill="#E0E0E0"/>
<path d="M45.4929 50.4726L44.477 44.7289L41.544 45.4506L40.0168 41.1338L36.7201 42.3278L33.1578 36.9778L36.2121 44.3615L39.6498 43.63L40.9311 47.1989L43.5692 46.3526L45.4929 50.4726Z" fill="#E0E0E0"/>
<path d="M103.229 17.8312C100.147 19.5688 97.8415 22.4168 96.783 25.7956L96.3963 27.3438C95.7305 30.783 96.3824 34.3471 98.2223 37.3271C100.062 40.3071 102.955 42.4848 106.326 43.4269C109.697 44.369 113.299 44.0066 116.415 42.4117C119.531 40.8169 121.934 38.1064 123.144 34.8194L123.609 33.2908C124.256 30.6481 124.116 27.8738 123.207 25.3096C122.298 22.7455 120.659 20.5036 118.493 18.8602C116.326 17.2169 113.727 16.2438 111.015 16.061C108.302 15.8781 105.596 16.4935 103.229 17.8312Z" fill="white"/>
<path d="M102.649 16.8012C99.5402 18.5603 97.1527 21.3628 95.9083 24.7133C94.664 28.0638 94.643 31.7468 95.849 35.1114L92.8668 38.7458C92.7538 38.8827 92.6848 39.0506 92.6689 39.2275C92.6531 39.4043 92.6911 39.5819 92.778 39.7367C92.8649 39.8915 92.9966 40.0163 93.1558 40.0947C93.315 40.1732 93.4941 40.2015 93.6697 40.176L98.3199 39.5036C100.134 41.7463 102.551 43.4232 105.285 44.3367C108.02 45.2502 110.958 45.3622 113.754 44.6595C116.55 43.9568 119.087 42.4686 121.067 40.3704C123.046 38.2722 124.384 35.6515 124.925 32.817C125.465 29.9826 125.184 27.0526 124.116 24.3724C123.048 21.6922 121.237 19.3735 118.896 17.6896C116.555 16.0057 113.781 15.0268 110.903 14.8682C108.024 14.7097 105.161 15.3781 102.649 16.7947V16.8012ZM122.22 23.1353C123.961 26.2236 124.458 29.8611 123.609 33.304L123.144 34.8325C121.934 38.1195 119.531 40.83 116.415 42.4249C113.299 44.0197 109.697 44.3821 106.326 43.44C102.955 42.4979 100.062 40.3203 98.2223 37.3402C96.3824 34.3602 95.7305 30.7962 96.3963 27.3569L96.783 25.8087C97.5977 23.2128 99.1533 20.9121 101.258 19.1901C103.363 17.468 105.925 16.3998 108.629 16.1171C111.332 15.8343 114.06 16.3493 116.475 17.5987C118.89 18.848 120.887 20.7772 122.22 23.1484V23.1353Z" fill="#455A64"/>
<path opacity="0.7" d="M122.22 23.1353C123.961 26.2236 124.458 29.8611 123.609 33.304L123.144 34.8325C121.934 38.1195 119.531 40.83 116.415 42.4248C113.299 44.0197 109.697 44.3821 106.326 43.44C102.955 42.4979 100.062 40.3203 98.2223 37.3402C96.3824 34.3602 95.7305 30.7962 96.3963 27.3569L96.783 25.8087C97.5977 23.2128 99.1533 20.9121 101.258 19.1901C103.363 17.468 105.925 16.3998 108.629 16.1171C111.332 15.8343 114.06 16.3493 116.475 17.5987C118.89 18.848 120.887 20.7772 122.22 23.1484V23.1353Z" fill="white"/>
<path d="M109.809 37.7355C107.46 37.7355 106.234 36.6891 105.71 36.0691L105.651 35.997L105.559 36.0167C105.452 36.043 105.342 36.0562 105.231 36.056C105.004 36.0464 104.781 35.9909 104.575 35.8928C104.37 35.7947 104.186 35.6561 104.035 35.4853C103.675 35.1244 103.272 34.721 102.705 34.721C102.575 34.7215 102.445 34.7414 102.321 34.78C101.564 35.0031 101.568 35.9642 101.568 36.4824V36.5317C101.478 36.6313 101.368 36.7102 101.246 36.7629C101.123 36.8156 100.99 36.8408 100.856 36.8367C100.694 36.8353 100.533 36.7975 100.387 36.726C100.241 36.6544 100.112 36.5511 100.011 36.4234C99.9752 35.4574 100.216 34.5014 100.706 33.668C100.89 33.417 101.135 33.2164 101.417 33.0846C101.7 32.9528 102.01 32.894 102.321 32.9136C102.552 32.9154 102.781 32.9407 103.006 32.989L103.088 33.0054L103.147 32.9431C103.367 32.7273 103.63 32.5613 103.92 32.4566C104.209 32.3519 104.518 32.3109 104.825 32.3363C105.051 32.3363 105.28 32.3363 105.516 32.3658C105.752 32.3953 106.041 32.3953 106.306 32.3953C106.405 32.3953 106.5 32.3953 106.598 32.3953C107.945 32.3297 108.318 31.6343 109.062 30.2468C109.852 28.7707 109.465 26.4975 108.633 25.1526C107.709 23.6568 107.522 22.5284 107.951 20.9802C108.017 20.875 108.109 20.7891 108.218 20.7314C108.328 20.6738 108.45 20.6464 108.574 20.6521C108.65 20.6508 108.726 20.6596 108.8 20.6784C108.919 20.6994 109.028 20.7607 109.107 20.852C109.186 20.9434 109.232 21.0593 109.236 21.1803C109.135 21.4628 109.107 21.7665 109.156 22.0627C109.205 22.3589 109.328 22.6377 109.515 22.8729C109.667 23.0462 109.854 23.1854 110.063 23.2815C110.273 23.3776 110.5 23.4283 110.73 23.4305C110.796 23.4305 110.861 23.4305 110.927 23.4305C111.248 23.3726 111.565 23.2903 111.874 23.1845C112.599 22.9246 113.359 22.7775 114.129 22.7482C114.928 22.7479 115.711 22.9754 116.387 23.4042C118.74 24.8475 119.195 29.1184 117.37 32.5429C115.449 36.0954 112.107 37.7355 109.809 37.7355Z" fill="white"/>
<path d="M117.357 32.5101C119.248 28.9806 118.667 24.7885 116.374 23.3879C114.08 21.9872 112.067 23.2731 110.924 23.4239C110.641 23.4564 110.355 23.4148 110.094 23.3032C109.833 23.1917 109.605 23.014 109.433 22.7876C109.409 23.1215 109.478 23.4555 109.634 23.7521C109.789 24.0487 110.023 24.2962 110.311 24.4671C111.992 25.5167 114.417 24.0275 115.862 25.7201C117.72 27.8949 116.724 31.1915 115.027 33.2416C114.349 34.072 113.494 34.7391 112.524 35.1934C111.554 35.6476 110.494 35.8775 109.423 35.8658C108.392 35.8683 107.393 35.511 106.598 34.8555C106.175 34.4783 105.874 33.7599 106.3 33.3892C106.452 33.2818 106.623 33.205 106.804 33.1629C107.361 32.9654 107.853 32.6193 108.228 32.1619C108.602 31.7046 108.844 31.1535 108.928 30.5682V30.5289C108.272 31.7196 107.866 32.333 106.611 32.3953C105.248 32.4642 103.989 31.9853 103.101 33.0087C104.189 33.4515 105.11 35.3049 105.654 35.9609C106.198 36.617 107.463 37.6994 109.813 37.6994C112.162 37.6994 115.466 36.0429 117.357 32.5101Z" fill="#92E3A9"/>
<path opacity="0.6" d="M117.357 32.5101C119.248 28.9806 118.667 24.7885 116.374 23.3879C114.08 21.9872 112.067 23.2731 110.924 23.4239C110.641 23.4564 110.355 23.4148 110.094 23.3032C109.833 23.1917 109.605 23.014 109.433 22.7876C109.409 23.1215 109.478 23.4555 109.634 23.7521C109.789 24.0487 110.023 24.2962 110.311 24.4671C111.992 25.5167 114.417 24.0275 115.862 25.7201C117.72 27.8949 116.724 31.1915 115.027 33.2416C114.349 34.072 113.494 34.7391 112.524 35.1934C111.554 35.6476 110.494 35.8775 109.423 35.8658C108.392 35.8683 107.393 35.511 106.598 34.8555C106.175 34.4783 105.874 33.7599 106.3 33.3892C106.452 33.2818 106.623 33.205 106.804 33.1629C107.361 32.9654 107.853 32.6193 108.228 32.1619C108.602 31.7046 108.844 31.1535 108.928 30.5682V30.5289C108.272 31.7196 107.866 32.333 106.611 32.3953C105.248 32.4642 103.989 31.9853 103.101 33.0087C104.189 33.4515 105.11 35.3049 105.654 35.9609C106.198 36.617 107.463 37.6994 109.813 37.6994C112.162 37.6994 115.466 36.0429 117.357 32.5101Z" fill="white"/>
<path d="M105.651 35.974C105.364 36.0519 105.06 36.0453 104.776 35.9552C104.493 35.865 104.241 35.6951 104.052 35.4656C103.609 35.0261 103.111 34.5275 102.321 34.7571C101.531 34.9867 101.561 36.0101 101.561 36.5218C101.457 36.624 101.333 36.7027 101.196 36.7529C101.059 36.803 100.913 36.8233 100.768 36.8124C100.623 36.8015 100.482 36.7597 100.354 36.6898C100.226 36.6199 100.115 36.5235 100.027 36.407C99.9974 35.4469 100.238 34.4977 100.722 33.6681C101.187 33.012 102.033 32.7627 103.098 33.012C103.598 33.227 104.02 33.5898 104.307 34.0518C104.927 34.9047 105.454 35.7477 105.651 35.974Z" fill="#92E3A9"/>
<path opacity="0.35" d="M105.651 35.974C105.364 36.0519 105.06 36.0453 104.776 35.9552C104.493 35.865 104.241 35.6951 104.052 35.4656C103.609 35.0261 103.111 34.5275 102.321 34.7571C101.531 34.9867 101.561 36.0101 101.561 36.5218C101.457 36.624 101.333 36.7027 101.196 36.7529C101.059 36.803 100.913 36.8233 100.768 36.8124C100.623 36.8015 100.482 36.7597 100.354 36.6898C100.226 36.6199 100.115 36.5235 100.027 36.407C99.9974 35.4469 100.238 34.4977 100.722 33.6681C101.187 33.012 102.033 32.7627 103.098 33.012C103.598 33.227 104.02 33.5898 104.307 34.0518C104.927 34.9047 105.454 35.7477 105.651 35.974Z" fill="white"/>
<path d="M100.863 36.9778H100.843C100.661 36.975 100.482 36.9314 100.318 36.8503C100.155 36.7691 100.012 36.6524 99.8995 36.5087C99.8766 36.4797 99.8639 36.444 99.8634 36.407C99.8316 35.4127 100.083 34.4298 100.588 33.5729C101.086 32.8513 102.016 32.5888 103.134 32.848C103.675 33.0673 104.134 33.4518 104.445 33.9469C104.74 34.3602 105.018 34.7702 105.244 35.108C105.471 35.4459 105.684 35.7641 105.779 35.8658C105.797 35.886 105.809 35.9105 105.815 35.9369C105.82 35.9634 105.819 35.9908 105.811 36.0167C105.805 36.0433 105.792 36.0678 105.773 36.0874C105.754 36.1071 105.73 36.1212 105.703 36.1282C105.097 36.3217 104.487 36.1282 103.937 35.5804C103.511 35.154 103.068 34.7079 102.37 34.9244C101.777 35.1015 101.715 35.8199 101.715 36.4825V36.5317C101.715 36.5703 101.701 36.6078 101.676 36.6366C101.572 36.7476 101.446 36.8353 101.306 36.8941C101.166 36.9529 101.015 36.9814 100.863 36.9778ZM100.191 36.348C100.273 36.4419 100.373 36.5173 100.486 36.5693C100.599 36.6214 100.722 36.6488 100.847 36.6497C101.043 36.6551 101.233 36.5859 101.381 36.4562C101.381 35.9281 101.381 34.8588 102.259 34.6029C103.137 34.347 103.701 34.9014 104.15 35.3508C104.296 35.524 104.481 35.6609 104.689 35.7508C104.897 35.8407 105.123 35.8812 105.349 35.8691C105.248 35.7247 105.113 35.541 104.956 35.2917C104.73 34.9637 104.455 34.5504 104.16 34.1404C103.892 33.7057 103.499 33.3626 103.032 33.1563C102.049 32.9267 101.263 33.1366 100.84 33.7533C100.388 34.5416 100.164 35.4397 100.191 36.348Z" fill="#455A64"/>
<path d="M109.81 37.8766C107.332 37.8766 106.064 36.7482 105.526 36.0757C105.379 35.892 105.199 35.6362 105.018 35.3377C104.501 34.5471 103.793 33.4647 103.036 33.1563C103.012 33.1466 102.991 33.1315 102.974 33.1121C102.956 33.0928 102.944 33.0697 102.937 33.0448C102.932 33.0196 102.933 32.9935 102.939 32.9686C102.946 32.9436 102.957 32.9204 102.973 32.9005C103.672 32.0935 104.576 32.146 105.533 32.2051C105.887 32.2326 106.243 32.2402 106.598 32.228C107.86 32.1657 108.197 31.5359 108.935 30.1582C109.708 28.7215 109.321 26.5238 108.512 25.2149C107.561 23.6798 107.371 22.5153 107.814 20.9244C107.812 20.9113 107.812 20.8981 107.814 20.8851C107.924 20.7249 108.082 20.6039 108.265 20.5396C108.448 20.4753 108.647 20.4711 108.833 20.5275C108.986 20.557 109.124 20.6384 109.223 20.7579C109.323 20.8775 109.379 21.0278 109.38 21.1836C109.382 21.1977 109.382 21.212 109.38 21.2262C109.286 21.4846 109.259 21.7628 109.303 22.0344C109.347 22.306 109.459 22.5619 109.629 22.7777C109.786 22.9577 109.983 23.0967 110.206 23.1824C110.428 23.2682 110.668 23.2982 110.904 23.2698C111.219 23.2149 111.529 23.1348 111.832 23.0303C113.024 22.6597 114.66 22.1545 116.462 23.2599C118.884 24.7426 119.366 29.1053 117.494 32.5987C115.554 36.2201 112.149 37.8766 109.81 37.8766ZM103.37 32.9562C104.134 33.386 104.796 34.3995 105.29 35.1573C105.48 35.4459 105.644 35.6952 105.779 35.8691C106.28 36.4956 107.47 37.5453 109.81 37.5453C112.054 37.5453 115.328 35.9445 117.213 32.4314C119.005 29.0856 118.586 24.9427 116.292 23.5289C114.614 22.4989 113.06 22.9811 111.927 23.3321C111.606 23.4424 111.277 23.5269 110.943 23.5847C110.654 23.6181 110.361 23.5799 110.089 23.4736C109.818 23.3672 109.577 23.1959 109.387 22.9746C109.183 22.7215 109.046 22.4212 108.989 22.1014C108.932 21.7815 108.956 21.4523 109.059 21.1442C109.059 20.9375 108.843 20.8621 108.754 20.8359C108.641 20.7994 108.519 20.798 108.405 20.832C108.291 20.8659 108.19 20.9336 108.115 21.0261C107.709 22.5055 107.892 23.5945 108.771 25.0345C109.649 26.4745 110.029 28.7641 109.216 30.2829C108.453 31.7098 108.04 32.4806 106.595 32.5528C106.227 32.5657 105.86 32.5569 105.494 32.5265C104.678 32.4872 103.944 32.438 103.37 32.9595V32.9562Z" fill="#455A64"/>
<path d="M108.171 32.7824C108.058 32.6518 107.924 32.5409 107.774 32.4544C107.636 32.3748 107.487 32.3141 107.332 32.274C107.175 32.2288 107.01 32.221 106.85 32.251C106.839 32.2552 106.828 32.2618 106.819 32.2705C106.811 32.2791 106.804 32.2896 106.799 32.3011C106.795 32.3126 106.793 32.325 106.794 32.3373C106.795 32.3496 106.798 32.3616 106.804 32.3724C106.804 32.4216 106.834 32.4675 106.854 32.5101C106.881 32.5681 106.899 32.6302 106.906 32.6938C106.914 32.7866 106.914 32.8799 106.906 32.9727C106.899 33.0672 106.881 33.1607 106.854 33.2515C106.854 33.2744 106.87 33.3007 106.883 33.2679C106.913 33.1859 106.965 33.1104 107.001 33.0284C107.032 32.9532 107.051 32.8735 107.057 32.7922C107.061 32.7186 107.056 32.6447 107.04 32.5725C107.03 32.5323 107.017 32.4929 107.001 32.4544H107.194C107.26 32.4544 107.325 32.4642 107.391 32.4839C107.523 32.5121 107.651 32.5585 107.771 32.6217C108.026 32.7583 108.242 32.9583 108.397 33.2023C108.397 33.2023 108.417 33.2023 108.417 33.1826C108.359 33.0358 108.276 32.9004 108.171 32.7824Z" fill="#455A64"/>
<path d="M110.186 29.9516C110.119 29.8513 110.028 29.7692 109.921 29.7121C109.729 29.6152 109.51 29.584 109.298 29.6235C109.229 29.6235 109.17 29.6924 109.193 29.7679C109.207 29.8041 109.233 29.8346 109.266 29.8542C109.3 29.8739 109.339 29.8816 109.377 29.8761L109.492 29.8597H109.58C109.655 29.8621 109.729 29.8765 109.8 29.9024C109.904 29.9371 110.003 29.9856 110.095 30.0467L110.167 30.109C110.199 30.1451 110.252 30.1877 110.252 30.2402C110.252 30.2927 110.295 30.2927 110.304 30.2402C110.331 30.1418 110.242 30.0303 110.186 29.9516Z" fill="#455A64"/>
<path d="M110.802 27.0223C110.56 26.8738 110.276 26.8082 109.993 26.8354C109.863 26.8451 109.736 26.8716 109.613 26.9141C109.576 26.9289 109.539 26.9465 109.505 26.9666C109.509 26.925 109.519 26.8843 109.534 26.8452C109.567 26.7766 109.61 26.7135 109.662 26.6582C109.713 26.5894 109.773 26.5286 109.842 26.4778L109.954 26.4122C109.999 26.386 110.039 26.3466 110.085 26.3204C110.131 26.2941 110.114 26.2318 110.085 26.2384C110.043 26.2351 110.002 26.2351 109.96 26.2384C109.918 26.2465 109.878 26.2597 109.839 26.2777C109.769 26.3126 109.704 26.3567 109.646 26.4089C109.587 26.4636 109.531 26.5217 109.478 26.5828C109.455 26.6123 109.429 26.6418 109.406 26.6746C109.379 26.719 109.359 26.7679 109.347 26.819C109.347 26.8583 109.324 26.901 109.315 26.9403C109.296 26.9861 109.288 27.0354 109.292 27.0847C109.299 27.1208 109.319 27.1532 109.347 27.1765C109.347 27.2946 109.57 27.37 109.616 27.2421C109.642 27.1699 109.718 27.1437 109.786 27.1207C109.885 27.0867 109.988 27.0625 110.091 27.0486C110.329 27.0306 110.568 27.0438 110.802 27.0879C110.822 27.1043 110.822 27.0354 110.802 27.0223Z" fill="#455A64"/>
</svg>
